<svg width="320" height="320" viewBox="0 0 320 320" fill="none" xmlns="http://www.w3.org/2000/svg">
<path fill-rule="evenodd" clip-rule="evenodd" d="M317.348 309.337L317.347 309.336V309.328H317.342L286.813 259.272C285.065 256.406 280.598 254.563 280.598 254.563C282.439 254.563 283.931 253.07 283.931 251.229V99.333C283.931 97.492 282.439 96 280.598 96H38.75C36.909 96 35.417 97.492 35.417 99.333V251.229C35.417 253.07 36.909 254.563 38.75 254.563C38.75 254.563 34.283 256.406 32.535 259.272L2.006 309.328H2.001V309.336L2 309.337H2.001V316.146C2.001 317.733 3.287 319.019 4.874 319.019H314.516C316.079 319.019 317.347 317.751 317.347 316.188V309.337H317.348Z" fill="#8533AD"/>
<path fill-rule="evenodd" clip-rule="evenodd" d="M272.536 244.623H46.8115C46.1505 244.623 45.6155 244.088 45.6155 243.428V108.489C45.6155 107.829 46.1505 107.294 46.8115 107.294H272.536C273.196 107.294 273.732 107.829 273.732 108.489V243.428C273.732 244.088 273.196 244.623 272.536 244.623Z" fill="#DDDDDD"/>
<path opacity="0.1" fill-rule="evenodd" clip-rule="evenodd" d="M3.24251 307.3L1.99951 309.337H317.348L316.105 307.3H3.24251Z" fill="white"/>
<path fill-rule="evenodd" clip-rule="evenodd" d="M34.9714 282.553H282.88C286.262 282.553 288.341 278.851 286.579 275.963L277.035 260.315C276.249 259.025 274.846 258.238 273.336 258.238H44.5154C43.0044 258.238 41.6024 259.025 40.8154 260.315L31.2714 275.963C29.5104 278.851 31.5894 282.553 34.9714 282.553ZM176.978 286.501H140.874C139.174 286.501 137.648 287.547 137.036 289.133L133.539 298.181C132.497 300.877 134.486 303.779 137.377 303.779H180.474C183.366 303.779 185.355 300.877 184.313 298.181L180.816 289.133C180.204 287.547 178.678 286.501 176.978 286.501ZM2.00073 316.146V309.329H317.347V316.188C317.347 317.752 316.08 319.019 314.516 319.019H4.87373C3.28773 319.019 2.00073 317.733 2.00073 316.146Z" fill="#5D2479"/>
<path fill-rule="evenodd" clip-rule="evenodd" d="M238.745 80.889C234.649 82.654 229.705 80.935 227.941 76.839C226.177 72.743 227.895 67.799 231.991 66.035C236.087 64.271 241.031 65.99 242.796 70.085C244.652 73.845 242.932 78.789 238.745 80.889ZM267.105 52.567L260.106 55.7C258.915 56.095 257.907 55.819 257.084 54.87C255.682 53.402 254.28 51.933 252.785 50.801C251.87 50.188 251.567 48.66 251.844 47.654L254.544 40.451C254.913 39.108 254.274 37.488 252.932 37.118L246.4 34.603C245.057 34.235 243.437 34.872 243.068 36.216L240.368 43.418C240.092 44.426 238.807 45.157 237.708 45.216C235.601 44.998 233.738 45.209 231.874 45.419C230.775 45.479 229.524 44.774 229.037 43.918L225.903 36.919C225.173 35.635 223.922 34.93 222.302 35.569L216.066 38.551C214.782 39.282 214.078 40.533 214.717 42.153L217.849 49.152C218.245 50.343 217.968 51.351 217.02 52.174C215.552 53.577 214.083 54.979 212.95 56.473C212.338 57.388 210.81 57.691 209.804 57.414L202.785 54.042C201.441 53.673 199.822 54.312 199.453 55.656L197.029 61.851C196.661 63.194 197.3 64.814 198.642 65.183L205.846 67.882C206.852 68.16 207.583 69.444 207.642 70.542C207.425 72.65 207.636 74.513 207.847 76.376C207.905 77.476 207.201 78.727 206.345 79.214L199.346 82.348C198.061 83.078 197.356 84.329 197.995 85.949L200.977 92.184C201.708 93.468 202.959 94.173 204.579 93.535L211.578 90.401C212.769 90.006 213.777 90.283 214.6 91.231C216.003 92.7 217.405 94.167 218.899 95.3C219.814 95.912 220.117 97.44 219.841 98.448L217.141 105.651C216.771 106.993 217.41 108.614 218.753 108.982L225.285 111.497C226.628 111.867 228.248 111.228 228.616 109.885L231.316 102.682C231.593 101.675 232.877 100.944 233.976 100.885C236.084 101.103 237.947 100.892 239.81 100.681C240.91 100.622 242.161 101.326 242.647 102.183L245.781 109.182C246.512 110.466 247.763 111.17 249.383 110.532L255.618 107.55C256.902 106.82 257.606 105.569 256.969 103.949L253.835 96.95C253.44 95.757 253.717 94.75 254.665 93.927C256.133 92.525 257.601 91.122 258.734 89.628C259.347 88.713 260.874 88.41 261.882 88.687L269.084 91.387C270.428 91.756 272.047 91.118 272.416 89.774L274.932 83.243C275.301 81.9 274.662 80.28 273.319 79.911L266.116 77.211C265.108 76.934 264.378 75.651 264.318 74.551C264.536 72.444 264.326 70.58 264.115 68.717C264.056 67.618 264.761 66.367 265.616 65.879L272.616 62.746C273.899 62.015 274.604 60.764 273.966 59.145L270.983 52.91C269.976 52.632 268.39 51.836 267.105 52.567Z" fill="#EB3D7D"/>
<path fill-rule="evenodd" clip-rule="evenodd" d="M152.565 157.053C142.262 166.473 126.028 165.531 116.973 154.854C107.608 144.49 108.545 128.161 119.159 119.054C129.462 109.632 145.696 110.575 154.75 121.252C164.117 131.615 162.868 147.631 152.565 157.053ZM180.351 82.9393L169.424 92.6745C167.55 94.2446 165.365 94.5584 163.492 93.3031C160.37 91.1044 156.935 89.8482 153.501 88.2781C151.317 87.3357 150.067 85.4518 150.067 83.2532L151.004 68.8078C151.317 66.2953 148.818 63.7829 146.321 63.469L133.52 62.5266C131.023 62.2128 128.525 64.7253 128.213 67.2377L127.277 81.6831C127.277 83.8817 125.403 85.7657 123.218 86.3942C119.783 87.3357 116.037 88.592 112.916 90.162C110.73 91.1044 108.545 90.4768 106.983 88.9058L97.305 77.9144C95.4321 75.7167 92.3103 75.7167 90.4365 77.6006L80.7583 86.3942C78.5734 88.2781 78.5734 91.4183 80.4463 93.3031L90.1245 104.294C91.6854 106.178 91.9974 108.377 90.7485 110.261C88.5636 113.401 87.3147 116.855 85.7538 120.31C84.817 122.509 82.9441 123.765 80.7583 123.765L66.3974 122.822C63.8996 122.509 61.4018 125.02 61.0898 127.533L60.153 140.409C59.841 142.92 62.3387 145.433 64.8365 145.747L79.1974 146.689C81.3832 146.689 83.2561 148.574 83.8801 150.772C84.817 154.226 86.065 157.995 87.6267 161.134C88.5636 163.333 87.9387 165.531 86.3778 167.102L75.7636 176.522C73.5778 178.407 73.5778 181.548 75.4507 183.432L84.193 193.167C86.065 195.366 89.1876 195.366 91.0614 193.481L101.989 183.746C103.861 182.176 106.046 181.861 107.919 183.117C111.042 185.316 114.476 186.572 117.91 188.142C120.096 189.085 121.345 190.968 121.345 193.167L120.408 207.926C120.096 210.439 122.593 212.951 125.092 213.265L137.891 214.207C140.389 214.521 142.886 212.009 143.199 209.496L144.136 195.051C144.136 192.852 146.009 190.968 148.194 190.34C151.628 189.398 155.374 188.142 158.497 186.572C160.682 185.63 162.868 186.258 164.429 187.828L174.107 198.82C175.981 201.017 179.101 201.017 180.975 199.134L190.653 190.34C192.839 188.456 192.839 185.316 190.965 183.432L181.287 171.812C179.726 169.928 179.414 167.729 180.662 165.846C182.848 162.704 184.098 159.251 185.658 155.797C186.595 153.598 188.469 152.342 190.653 152.342L205.015 153.284C207.512 153.598 210.01 151.085 210.323 148.574L211.259 135.698C211.571 133.185 209.073 130.674 206.576 130.36L192.214 129.417C190.029 129.417 188.156 127.533 187.532 125.335C186.595 121.88 185.346 118.111 183.785 114.971C182.848 112.773 183.472 110.575 185.034 109.005L195.961 99.2695C198.146 97.3856 198.146 94.2446 196.273 92.3607L187.532 82.6255C185.658 81.3693 182.224 81.0545 180.351 82.9393Z" fill="#EF6497"/>
</svg>
