<?xml version="1.0" encoding="UTF-8"?>
<svg xmlns="http://www.w3.org/2000/svg" version="1.1" viewBox="0 0 320 320">
  <defs>
    <style>
      .cls-1 {
        fill: #8533ad;
      }

      .cls-2 {
        fill: #ef6497;
      }

      .cls-3 {
        fill: #6a298a;
      }

      .cls-4 {
        fill: #ddd;
      }

      .cls-5 {
        fill: #eb3d7d;
      }
    </style>
  </defs>
  <!-- Generator: Adobe Illustrator 28.6.0, SVG Export Plug-In . SVG Version: 1.1.0 Build 92)  -->
  <g>
    <g id="Camada_1">
      <path class="cls-3" d="M211,317.2H14.6c-6.3,0-11.4-5.1-11.4-11.4V27.8c0-6.3,5.1-11.4,11.4-11.4h196.4c6.3,0,11.4,5.1,11.4,11.4v277.9c0,6.4-5.1,11.5-11.4,11.5Z"/>
      <path class="cls-1" d="M222.7,317.2H26.2c-6.3,0-11.4-5.1-11.4-11.4V27.8c0-6.3,5.1-11.4,11.4-11.4h196.4c6.3,0,11.4,5.1,11.4,11.4v277.9c.1,6.4-5,11.5-11.3,11.5h0Z"/>
      <path class="cls-4" d="M213.4,283.7H38.7c-4.2,0-7.7-3.4-7.7-7.7V36.6c0-4.2,3.4-7.7,7.7-7.7h174.6c4.2,0,7.7,3.4,7.7,7.7v239.4c0,4.3-3.4,7.7-7.6,7.7Z"/>
      <circle class="cls-3" cx="124.1" cy="300.6" r="7.4"/>
      <g>
        <path class="cls-2" d="M165.1,92h-65.8c-2.4,0-4.3-1.9-4.3-4.3h0c0-2.5,1.9-4.4,4.3-4.4h65.9c2.4,0,4.3,1.9,4.3,4.3h0c0,2.5-2,4.4-4.4,4.4Z"/>
        <path class="cls-2" d="M177,121.5h-77.7c-2.4,0-4.3-1.9-4.3-4.3h0c0-2.5,1.9-4.4,4.3-4.4h77.7c2.4,0,4.3,1.9,4.3,4.3h0c-.1,2.5-1.9,4.4-4.3,4.4Z"/>
        <path class="cls-2" d="M177,151h-77.7c-2.4,0-4.3-1.9-4.3-4.3h0c0-2.5,1.9-4.4,4.3-4.4h77.7c2.4,0,4.3,1.9,4.3,4.3h0c-.1,2.5-1.9,4.4-4.3,4.4Z"/>
        <path class="cls-2" d="M187.8,180.5h-88.5c-2.4,0-4.3-1.9-4.3-4.3h0c0-2.5,1.9-4.4,4.3-4.4h88.4c2.4,0,4.3,1.9,4.3,4.3h0c0,2.5-1.9,4.4-4.2,4.4Z"/>
        <path class="cls-2" d="M167.1,210h-67.8c-2.4,0-4.3-1.9-4.3-4.3h0c0-2.5,1.9-4.4,4.3-4.4h67.8c2.4,0,4.3,1.9,4.3,4.3h0c0,2.5-1.9,4.4-4.3,4.4Z"/>
        <path class="cls-2" d="M187.8,239.5h-88.5c-2.4,0-4.3-1.9-4.3-4.3h0c0-2.5,1.9-4.4,4.3-4.4h88.4c2.4,0,4.3,1.9,4.3,4.3h0c0,2.5-1.9,4.4-4.2,4.4Z"/>
      </g>
      <g>
        <path class="cls-5" d="M70.8,95.4c-.7,0-1.4-.3-1.9-.8l-6.2-6.2c-1-1-1-2.7,0-3.7s2.7-1,3.7,0l4.4,4.4,12.1-12.1c1-1,2.7-1,3.7,0s1,2.7,0,3.7l-13.9,13.9c-.5.6-1.1.8-1.9.8Z"/>
        <path class="cls-5" d="M70.8,242.4c-.7,0-1.4-.3-1.9-.8l-6.2-6.2c-1-1-1-2.7,0-3.7s2.7-1,3.7,0l4.4,4.4,12.1-12.1c1-1,2.7-1,3.7,0s1,2.7,0,3.7l-13.9,13.9c-.5.5-1.1.8-1.9.8Z"/>
        <path class="cls-5" d="M70.8,124.8c-.7,0-1.4-.3-1.9-.8l-6.2-6.2c-1-1-1-2.7,0-3.7s2.7-1,3.7,0l4.4,4.4,12.1-12.1c1-1,2.7-1,3.7,0s1,2.7,0,3.7l-13.9,13.9c-.5.6-1.1.8-1.9.8Z"/>
        <path class="cls-5" d="M70.8,154.2c-.7,0-1.4-.3-1.9-.8l-6.2-6.2c-1-1-1-2.7,0-3.7s2.7-1,3.7,0l4.4,4.4,12.1-12.1c1-1,2.7-1,3.7,0s1,2.7,0,3.7l-13.9,13.9c-.5.6-1.1.8-1.9.8Z"/>
        <path class="cls-5" d="M70.8,183.6c-.7,0-1.4-.3-1.9-.8l-6.2-6.2c-1-1-1-2.7,0-3.7s2.7-1,3.7,0l4.4,4.4,12.1-12.1c1-1,2.7-1,3.7,0s1,2.7,0,3.7l-13.9,13.9c-.5.5-1.1.8-1.9.8Z"/>
        <path class="cls-5" d="M70.8,213c-.7,0-1.4-.3-1.9-.8l-6.2-6.2c-1-1-1-2.7,0-3.7s2.7-1,3.7,0l4.4,4.3,12.1-12c1-1,2.7-1,3.7,0s1,2.7,0,3.7l-13.9,13.9c-.5.5-1.1.8-1.9.8Z"/>
      </g>
    </g>
  </g>
</svg>