<?xml version="1.0" encoding="UTF-8"?>
<svg id="Camada_1_cópia" xmlns="http://www.w3.org/2000/svg" version="1.1" viewBox="0 0 320 320">
  <!-- Generator: Adobe Illustrator 29.5.1, SVG Export Plug-In . SVG Version: 2.1.0 Build 141)  -->
  <defs>
    <style>
      .st0 {
        fill: #ef6497;
      }

      .st0, .st1, .st2, .st3, .st4 {
        fill-rule: evenodd;
      }

      .st1 {
        fill: #eb3d7d;
      }

      .st2 {
        fill: #8533ad;
      }

      .st3 {
        fill: #ddd;
      }

      .st4 {
        fill: #6a298a;
      }
    </style>
  </defs>
  <path class="st2" d="M209.592,141.111c-5.348-22.059-27.272-17.915-27.272-17.915,0,0-36.23,8.557-43.718,10.295-2.343.544-4.123.287-5.463-.32.327-.209.671-.416,1.052-.609,12.567-6.417,28.744-23.53,28.876-49.198,0-.241-.013-.481-.018-.72.004-.277.018-.547.018-.825,0-.241-.013-.481-.018-.72.004-.277.018-.547.018-.825,0-.241-.013-.481-.018-.72.004-.277.018-.547.018-.825,0-.241-.013-.481-.018-.72.004-.277.018-.547.018-.825,0-.241-.013-.481-.018-.72.004-.277.018-.547.018-.825,0-.241-.013-.481-.018-.72.004-.277.018-.547.018-.825,0-.241-.013-.481-.018-.72.004-.277.018-.547.018-.825,0-.241-.013-.481-.018-.72.004-.277.018-.547.018-.825,0-.241-.013-.481-.018-.72.004-.277.018-.547.018-.825,0-25.668-23.394-50.401-55.614-50.535-30.946,0-54.971,24.917-54.216,53.778,0,.22-.014.437-.011.657-.012.513-.005,1.029,0,1.546-.012.513-.005,1.029,0,1.546-.012.513-.005,1.029,0,1.546-.012.513-.005,1.029,0,1.546-.012.513-.005,1.029,0,1.546-.012.513-.005,1.029,0,1.546-.012.513-.005,1.029,0,1.546-.043,1.985.02,3.989.216,6.009,3.074,30.348,26.07,41.444,29.679,43.048.104.046.193.102.292.152-.453.162-.912.292-1.362.377-2.005.4-4.144.4-6.016-.134-4.547-1.203-17.915-4.411-38.503-9.357-25.804-6.017-29.679,14.037-29.679,14.037l-2.274,8.822c-.488,2.051-.632,3.964-.564,5.77-.017.513-.019,1.02,0,1.516-.023.526-.02,1.039,0,1.546-.023.525-.02,1.039,0,1.546-.023.526-.02,1.039,0,1.546-.023.525-.02,1.039,0,1.546-.023.526-.02,1.039,0,1.546-.023.526-.02,1.039,0,1.546-.023.526-.02,1.039,0,1.546-.45,11.005,8.158,17.782,12.329,20.406,1.202.799,2.674,1.336,4.144,1.736,6.819,1.739,30.748,7.485,37.701,9.357,6.155,1.644,9.843,4.339,11.598,9.354-1.292,3.721-3.175,6.016-3.175,6.016-5.615,6.817-35.294,42.645-40.242,48.259-5.08,5.616-6.417,9.091-6.952,15.642-.069.838-.074,1.632-.036,2.388-.017.586-.015,1.157.019,1.703-.014.527-.031,1.053,0,1.545-.014.527-.031,1.055,0,1.547-.014.526-.031,1.053,0,1.545-.014.527-.031,1.053,0,1.545-.014.527-.031,1.055,0,1.547-.014.526-.031,1.053,0,1.545-.014.527-.031,1.053,0,1.545-.155,5.95,2.657,9.713,4.43,12.371,1.872,2.808,7.085,6.951,11.362,10.027,4.145,3.075,10.696,4.278,16.578,3.474,5.884-.799,11.365-5.078,13.237-7.352,2.005-2.271,30.747-37.834,32.753-40.24,2.006-2.407,3.743-5.616,9.493-6.016,4.812-.267,7.485,3.341,8.422,4.679.267.402.533.801.935,1.203,3.476,4.278,21.256,26.202,30.749,37.3,10.562,12.298,20.454,15.373,38.234,2.004,7.788-5.899,9.741-12.083,9.495-17.156.022-.526.025-1.04,0-1.545.022-.526.025-1.042,0-1.547.022-.524.025-1.04,0-1.545.022-.526.025-1.04,0-1.547.022-.524.025-1.04,0-1.545.022-.526.025-1.04,0-1.545.022-.526.025-1.04,0-1.547.022-.496.016-.98-.004-1.46.35-7.249-4.142-12.682-4.142-12.682,0,0-35.695-42.246-41.444-50.535-2.481-3.577-3.888-6.455-4.668-9.024,1.121-3.075,3.216-5.436,5.069-7.013,1.603-1.337,3.476-2.273,5.616-2.808,7.219-1.872,29.678-7.352,37.166-9.224,7.585-1.811,17.564-8.133,17.196-23.424.012-.505.012-1.018,0-1.546.012-.505.012-1.019,0-1.546.012-.505.012-1.019,0-1.546.012-.505.012-1.019,0-1.546.012-.505.012-1.018,0-1.546.012-.506.012-1.019,0-1.546.012-.505.012-1.019,0-1.546.007-.337-.012-.696-.015-1.04.126-3.283-.245-7.011-1.272-11.247Z"/>
  <path class="st4" d="M134.193,132.56c-.381.195-.725.4-1.052.61-2.939-1.332-3.763-4.36-3.763-4.36,0,0-2.271-6.552,4.815-10.161,12.431-6.346,28.382-23.166,28.858-48.372.001.096.004.192.009.287.004.144.009.288.009.431,0,.168-.004.332-.009.497-.004.11-.007.219-.009.33.001.096.004.192.009.288.004.144.009.287.009.431,0,.168-.004.332-.009.497-.004.11-.007.219-.009.33.001.096.004.192.009.287.004.144.009.288.009.431,0,.168-.004.332-.009.497-.004.11-.007.219-.009.33.001.096.004.192.009.287.004.144.009.287.009.431,0,.168-.004.332-.009.497-.004.11-.007.219-.009.33.001.096.004.192.009.287.004.144.009.288.009.431,0,.168-.004.332-.009.497-.004.11-.007.219-.009.33.001.096.004.192.009.287.004.144.009.288.009.431,0,.168-.004.332-.009.497-.004.11-.007.219-.009.33.001.096.004.192.009.287.004.144.009.288.009.431,0,.168-.004.332-.009.497-.004.11-.007.219-.009.33.001.096.004.192.009.287.004.144.009.287.009.431,0,.168-.004.332-.009.497-.004.11-.007.219-.009.33.001.096.004.192.009.287.004.144.009.288.009.431-.133,25.67-16.309,42.783-28.875,49.198ZM83.122,119.319c3.61,1.604,5.213,4.411,4.011,10.026-.42,2.218-2.014,3.424-3.717,4.036-.041-.02-.081-.042-.12-.063-.056-.031-.112-.061-.174-.089-3.609-1.604-26.605-12.702-29.679-43.048-.196-2.02-.26-4.025-.216-6.011,0-.103-.001-.206-.002-.309-.003-.412-.006-.825.002-1.237,0-.103-.001-.206-.002-.308-.003-.412-.006-.825.002-1.237,0-.103-.001-.206-.002-.308-.003-.412-.006-.825.002-1.237,0-.103-.001-.206-.002-.309-.003-.412-.006-.825.002-1.237,0-.103-.001-.206-.002-.308-.003-.412-.006-.825.002-1.237,0-.103-.001-.206-.002-.309-.003-.412-.006-.825.002-1.237,0-.103-.001-.206-.002-.308-.003-.412-.006-.825.002-1.237,0-.116.002-.231.005-.347.003-.103.005-.205.005-.309.033,1.187.09,2.377.206,3.575,3.074,30.348,26.07,41.444,29.679,43.048Z"/>
  <path class="st4" d="M59.192,196.731c6.153,1.642,9.841,4.339,11.598,9.354.828-2.385,1.416-5.351,1.102-8.691-.802-8.556-4.68-12.432-12.7-14.574-6.952-1.871-30.881-7.619-37.702-9.359-1.47-.399-2.94-.934-4.142-1.736-3.969-2.494-11.946-8.755-12.331-18.831-.017.513-.019,1.02,0,1.518-.022.526-.019,1.039,0,1.546-.022.526-.019,1.039,0,1.546-.022.526-.019,1.039,0,1.546-.022.526-.019,1.039,0,1.546-.022.526-.019,1.039,0,1.546-.022.525-.019,1.039,0,1.546-.022.526-.019,1.039,0,1.546-.45,11.003,8.159,17.783,12.331,20.404,1.202.802,2.672,1.339,4.142,1.736,6.821,1.739,30.75,7.488,37.702,9.359Z"/>
  <path class="st4" d="M196.092,289.664c.022-.526.025-1.042,0-1.547.022-.524.025-1.042,0-1.545.022-.526.025-1.042,0-1.545.022-.526.025-1.042,0-1.547.022-.524.025-1.042,0-1.545.022-.526.025-1.042,0-1.545.022-.496.016-.983-.004-1.461-.227,4.734-2.518,10.245-9.49,15.526-17.78,13.369-27.673,10.294-38.234-2.004-9.492-11.098-27.272-33.022-30.749-37.3-.4-.402-.668-.802-.935-1.203-.935-1.339-3.612-4.948-8.423-4.68-5.749.402-7.486,3.609-9.492,6.017-2.006,2.404-30.747,37.967-32.753,40.24-1.872,2.274-7.352,6.551-13.237,7.352-5.881.802-12.433-.399-16.577-3.474-4.278-3.075-9.492-7.219-11.363-10.028-1.632-2.448-4.178-5.814-4.448-10.981-.015.586-.014,1.157.019,1.703-.014.526-.029,1.053,0,1.547-.014.524-.029,1.052,0,1.545-.014.526-.029,1.052,0,1.545-.014.526-.029,1.053,0,1.547-.014.524-.029,1.052,0,1.545-.014.526-.029,1.052,0,1.545-.014.526-.029,1.053,0,1.547-.155,5.947,2.658,9.713,4.43,12.37,1.872,2.808,7.085,6.951,11.363,10.027,4.144,3.075,10.696,4.277,16.577,3.476,5.884-.802,11.365-5.079,13.237-7.353,2.006-2.273,30.747-37.835,32.753-40.24,2.006-2.409,3.743-5.616,9.492-6.017,4.812-.267,7.488,3.341,8.423,4.68.267.4.535.801.935,1.203,3.477,4.277,21.258,26.202,30.749,37.3,10.562,12.298,20.454,15.375,38.234,2.004,7.788-5.901,9.74-12.084,9.495-17.156.022-.526.025-1.042,0-1.545Z"/>
  <path class="st4" d="M193.686,173.733c-7.488,1.871-29.947,7.352-37.166,9.224-2.14.533-4.011,1.47-5.616,2.806-2.673,2.274-5.881,6.15-5.881,11.498-.152,3.192-.215,6.04.813,9.424,1.121-3.075,3.216-5.436,5.069-7.013,1.605-1.336,3.476-2.273,5.616-2.806,7.219-1.872,29.678-7.352,37.166-9.224,7.585-1.813,17.564-8.135,17.196-23.424.012-.505.012-1.02,0-1.546.012-.506.012-1.02,0-1.546.012-.505.012-1.02,0-1.546.012-.505.012-1.02,0-1.546.012-.505.012-1.02,0-1.546.012-.505.012-1.02,0-1.546.012-.505.012-1.02,0-1.546.007-.337-.012-.695-.015-1.042-.53,13.81-9.943,19.644-17.181,21.375Z"/>
  <g>
    <path class="st0" d="M288.561,107.982c0,111.168-67.915,143.794-79.958,151.338-1.015.612-2.451.612-3.676,0-12.024-7.334-79.958-40.189-79.958-151.338,0-2.451,2.049-4.289,4.481-4.48h2.451c25.696.402,50.988-7.142,72.414-21.617,1.436-1.014,3.465-1.014,5.093,0,21.433,14.285,46.657,21.816,72.414,21.617h2.451c2.241.211,4.289,2.03,4.289,4.48Z"/>
    <path class="st1" d="M284.271,103.502h-2.451c-25.757.198-50.982-7.331-72.415-21.617-.524-.326-1.091-.537-1.667-.653v178.44c.309-.076.6-.192.863-.35,12.043-7.544,79.958-40.171,79.958-151.339,0-2.451-2.049-4.27-4.289-4.48Z"/>
    <path class="st3" d="M206.764,239.542c-18.152-10.608-59.145-41.607-63.224-118.099,22.23-1.627,43.847-8.156,63.224-19.377,19.377,11.22,40.994,17.75,63.434,19.377-4.289,76.492-45.072,107.492-63.434,118.099Z"/>
  </g>
</svg>