<?xml version="1.0" encoding="UTF-8"?>
<svg id="Camada_1" xmlns="http://www.w3.org/2000/svg" xmlns:xlink="http://www.w3.org/1999/xlink" version="1.1" viewBox="0 0 320 320">
  <!-- Generator: Adobe Illustrator 29.2.0, SVG Export Plug-In . SVG Version: 2.1.0 Build 22)  -->
  <defs>
    <style>
      .st0, .st1 {
        fill: #ef6497;
      }

      .st0, .st2, .st3, .st4 {
        fill-rule: evenodd;
      }

      .st2 {
        fill: #8533ad;
      }

      .st3 {
        fill: #321a4c;
        fill-opacity: .2;
      }

      .st4 {
        fill: #4a1d61;
      }
    </style>
  </defs>
  <path class="st2" d="M242.8000031,123.5h-112.1000061v-31.9000015c0-3-2.5-5.5-5.5-5.5H9.8000002c-3,0-5.5,2.5-5.5,5.5v225.6999893c0,1.2999878,1.0999999,2.3999939,2.4000001,2.3999939h239.300015c1.3000031,0,2.3999939-1.1000061,2.3999939-2.3999939v-188.2999878c-.1000061-3-2.6000061-5.5-5.6000061-5.5Z"/>
  <path class="st0" d="M101.4000015,105.8000031h9.1999969c.5999985,0,1.0999985.5,1.0999985,1.0999985v23.9999924c0,.6000061-.5,1.1000061-1.0999985,1.1000061h-9.1999969c-.5999985,0-1.0999985-.5-1.0999985-1.1000061v-24c0-.5999908.5-1.0999908,1.0999985-1.0999908ZM55.2000008,143.6999969h-9.2000008c-.5999985,0-1.0999985.5-1.0999985,1.1000061v24c0,.6000061.5,1.1000061,1.0999985,1.1000061h9.2000008c.5999985,0,1.0999985-.5,1.0999985-1.1000061v-24c0-.6000061-.5-1.1000061-1.0999985-1.1000061ZM172.8000031,143.6999969h-9.1999969c-.6000061,0-1.1000061.5-1.1000061,1.1000061v24c0,.6000061.5,1.1000061,1.1000061,1.1000061h9.1999969c.6000061,0,1.1000061-.5,1.1000061-1.1000061v-24c-.0000153-.6000061-.5000153-1.1000061-1.1000061-1.1000061ZM209.6999969,180.6000061h-9.1999969c-.6000061,0-1.1000061.5-1.1000061,1.1000061v24c0,.6000061.5,1.1000061,1.1000061,1.1000061h9.1999969c.6000061,0,1.1000061-.5,1.1000061-1.1000061v-24c0-.6000061-.5-1.1000061-1.1000061-1.1000061ZM182.1000061,180.6000061h9.1999969c.6000061,0,1.1000061.5,1.1000061,1.1000061v24c0,.6000061-.5,1.1000061-1.1000061,1.1000061h-9.1999969c-.6000061,0-1.1000061-.5-1.1000061-1.1000061v-24c0-.6000061.5-1.1000061,1.1000061-1.1000061ZM228.1000061,217.5h-9.1000061c-.6000061,0-1.1000061.5-1.1000061,1.1000061v24c0,.6000061.5,1.1000061,1.1000061,1.1000061h9.1999969c.6000061,0,1.1000061-.5,1.1000061-1.1000061v-24c-.1000061-.7000122-.6000061-1.1000061-1.1999969-1.1000061ZM163.6999969,254.3000031h9.1999969c.6000061,0,1.1000061.5,1.1000061,1.1000061v24.0000153c0,.6000061-.5,1.1000061-1.1000061,1.1000061h-9.1999969c-.6000061,0-1.1000061-.5-1.1000061-1.1000061v-24c.0000153-.6000214.5000153-1.1000214,1.1000061-1.1000214ZM92.0999985,105.8000031h-9.0999985c-.5999985,0-1.0999985.5-1.0999985,1.0999985v23.9999924c0,.6000061.5,1.1000061,1.0999985,1.1000061h9.1999969c.5999985,0,1.0999985-.5,1.0999985-1.1000061v-24c-.0999985-.5999908-.5999985-1.0999908-1.1999969-1.0999908ZM64.5,105.8000031h9.1999969c.5999985,0,1.0999985.5,1.0999985,1.0999985v23.9999924c0,.6000061-.5,1.1000061-1.0999985,1.1000061h-9.1999969c-.5999985,0-1.0999985-.5-1.0999985-1.1000061v-24c0-.5999908.5-1.0999908,1.0999985-1.0999908ZM110.5,180.6000061h-9.1999969c-.5999985,0-1.0999985.5-1.0999985,1.1000061v24c0,.6000061.5,1.1000061,1.0999985,1.1000061h9.1999969c.5999985,0,1.0999985-.5,1.0999985-1.1000061v-24c0-.6000061-.5-1.1000061-1.0999985-1.1000061ZM83,180.6000061h9.1999969c.5999985,0,1.0999985.5,1.0999985,1.1000061v24c0,.6000061-.5,1.1000061-1.0999985,1.1000061h-9.1999969c-.5999985,0-1.0999985-.5-1.0999985-1.1000061v-24c0-.6000061.5-1.1000061,1.0999985-1.1000061ZM55.2000008,217.5h-9.2000008c-.5999985,0-1.0999985.5-1.0999985,1.1000061v24c0,.6000061.5,1.1000061,1.0999985,1.1000061h9.2000008c.5999985,0,1.0999985-.5,1.0999985-1.1000061v-24c0-.7000122-.5-1.1000061-1.0999985-1.1000061ZM83,254.3000031h9.1999969c.5999985,0,1.0999985.5,1.0999985,1.1000061v24.0000153c0,.6000061-.5,1.1000061-1.0999985,1.1000061h-9.1999969c-.5999985,0-1.0999985-.5-1.0999985-1.1000061v-24c0-.6000214.5-1.1000214,1.0999985-1.1000214Z"/>
  <path class="st4" d="M46.0999985,105.8000031h9.2000008c.5999985,0,1.0999985.5,1.0999985,1.0999985v23.9999924c0,.6000061-.5,1.1000061-1.0999985,1.1000061h-9.2000008c-.5999985,0-1.0999985-.5-1.0999985-1.1000061v-24c0-.5999908.5-1.0999908,1.0999985-1.0999908ZM64.5,169.8999939h9.1999969c.5999985,0,1.0999985-.5,1.0999985-1.1000061v-24c0-.6000061-.5-1.1000061-1.0999985-1.1000061h-9.1999969c-.5999985,0-1.0999985.5-1.0999985,1.1000061v24c0,.6000061.5,1.1000061,1.0999985,1.1000061ZM191.3000031,169.8999939h-9.1999969c-.6000061,0-1.1000061-.5-1.1000061-1.1000061v-24c0-.6000061.5-1.1000061,1.1000061-1.1000061h9.1999969c.6000061,0,1.1000061.5,1.1000061,1.1000061v24c-.1000061.6000061-.5000153,1.1000061-1.1000061,1.1000061ZM200.5,169.8999939h9.1999969c.6000061,0,1.1000061-.5,1.1000061-1.1000061v-24c0-.6000061-.5-1.1000061-1.1000061-1.1000061h-9.1999969c-.6000061,0-1.1000061.5-1.1000061,1.1000061v24c.1000061.6000061.5,1.1000061,1.1000061,1.1000061ZM228.1000061,143.6999969h-9.1000061c-.6000061,0-1.1000061.5-1.1000061,1.1000061v24c0,.6000061.5,1.1000061,1.1000061,1.1000061h9.1999969c.6000061,0,1.1000061-.5,1.1000061-1.1000061v-24c-.1000061-.6000061-.6000061-1.1000061-1.1999969-1.1000061ZM228.1000061,180.6000061h-9.1000061c-.6000061,0-1.1000061.5-1.1000061,1.1000061v24c0,.6000061.5,1.1000061,1.1000061,1.1000061h9.1999969c.6000061,0,1.1000061-.5,1.1000061-1.1000061v-24c-.1000061-.6000061-.6000061-1.1000061-1.1999969-1.1000061ZM163.6999969,180.6000061h9.1999969c.6000061,0,1.1000061.5,1.1000061,1.1000061v24c0,.6000061-.5,1.1000061-1.1000061,1.1000061h-9.1999969c-.6000061,0-1.1000061-.5-1.1000061-1.1000061v-24c.0000153-.6000061.5000153-1.1000061,1.1000061-1.1000061ZM200.5,243.6000061h9.1999969c.6000061,0,1.1000061-.5,1.1000061-1.1000061v-24c0-.6000061-.5-1.1000061-1.1000061-1.1000061h-9.1999969c-.6000061,0-1.1000061.5-1.1000061,1.1000061v24c.1000061.6000061.5,1.1000061,1.1000061,1.1000061ZM191.3000031,243.6000061h-9.1999969c-.6000061,0-1.1000061-.5-1.1000061-1.1000061v-24c0-.6000061.5-1.1000061,1.1000061-1.1000061h9.1999969c.6000061,0,1.1000061.5,1.1000061,1.1000061v24c-.1000061.6000061-.5000153,1.1000061-1.1000061,1.1000061ZM172.8000031,217.5h-9.1999969c-.6000061,0-1.1000061.5-1.1000061,1.1000061v24c0,.6000061.5,1.1000061,1.1000061,1.1000061h9.1999969c.6000061,0,1.1000061-.5,1.1000061-1.1000061v-24c-.0000153-.7000122-.5000153-1.1000061-1.1000061-1.1000061ZM219,254.3000031h9.1999969c.6000061,0,1.1000061.5,1.1000061,1.1000061v24.0000153c0,.6000061-.5,1.1000061-1.1000061,1.1000061h-9.1999969c-.6000061,0-1.1000061-.5-1.1000061-1.1000061v-24c0-.6000214.5-1.1000214,1.1000061-1.1000214ZM200.5,280.3999939h9.1999969c.6000061,0,1.1000061-.5,1.1000061-1.1000061v-24c0-.6000061-.5-1.1000061-1.1000061-1.1000061h-9.1999969c-.6000061,0-1.1000061.5-1.1000061,1.1000061v24c.1000061.7000122.5,1.1000061,1.1000061,1.1000061ZM191.3000031,280.3999939h-9.1999969c-.6000061,0-1.1000061-.5-1.1000061-1.1000061v-24c0-.6000061.5-1.1000061,1.1000061-1.1000061h9.1999969c.6000061,0,1.1000061.5,1.1000061,1.1000061v24c-.1000061.7000122-.5000153,1.1000061-1.1000061,1.1000061ZM110.5,143.6999969h-9.1999969c-.5999985,0-1.0999985.5-1.0999985,1.1000061v24c0,.6000061.5,1.1000061,1.0999985,1.1000061h9.1999969c.5999985,0,1.0999985-.5,1.0999985-1.1000061v-24c0-.6000061-.5-1.1000061-1.0999985-1.1000061ZM83,143.6999969h9.1999969c.5999985,0,1.0999985.5,1.0999985,1.1000061v24c0,.6000061-.5,1.1000061-1.0999985,1.1000061h-9.1999969c-.5999985,0-1.0999985-.5-1.0999985-1.1000061v-24c0-.6000061.5-1.1000061,1.0999985-1.1000061ZM64.5,206.6999969h9.1999969c.5999985,0,1.0999985-.5,1.0999985-1.1000061v-24c0-.6000061-.5-1.1000061-1.0999985-1.1000061h-9.1999969c-.5999985,0-1.0999985.5-1.0999985,1.1000061v24c0,.6000061.5,1.1000061,1.0999985,1.1000061ZM46.0999985,180.6000061h9.2000008c.5999985,0,1.0999985.5,1.0999985,1.1000061v24c0,.6000061-.5,1.1000061-1.0999985,1.1000061h-9.2000008c-.5999985,0-1.0999985-.5-1.0999985-1.1000061v-24c0-.6000061.5-1.1000061,1.0999985-1.1000061ZM110.5,217.5h-9.1999969c-.5999985,0-1.0999985.5-1.0999985,1.1000061v24c0,.6000061.5,1.1000061,1.0999985,1.1000061h9.1999969c.5999985,0,1.0999985-.5,1.0999985-1.1000061v-24c0-.7000122-.5-1.1000061-1.0999985-1.1000061ZM83,217.5h9.1999969c.5999985,0,1.0999985.5,1.0999985,1.1000061v24c0,.6000061-.5,1.1000061-1.0999985,1.1000061h-9.1999969c-.5999985,0-1.0999985-.5-1.0999985-1.1000061v-24c0-.7000122.5-1.1000061,1.0999985-1.1000061ZM64.5,243.6000061h9.1999969c.5999985,0,1.0999985-.5,1.0999985-1.1000061v-24c0-.6000061-.5-1.1000061-1.0999985-1.1000061h-9.1999969c-.5999985,0-1.0999985.5-1.0999985,1.1000061v24c0,.6000061.5,1.1000061,1.0999985,1.1000061ZM101.4000015,254.3000031h9.1999969c.5999985,0,1.0999985.5,1.0999985,1.1000061v24.0000153c0,.6000061-.5,1.1000061-1.0999985,1.1000061h-9.1999969c-.5999985,0-1.0999985-.5-1.0999985-1.1000061v-24c0-.6000214.5-1.1000214,1.0999985-1.1000214ZM64.5,280.3999939h9.1999969c.5999985,0,1.0999985-.5,1.0999985-1.1000061v-24c0-.6000061-.5-1.1000061-1.0999985-1.1000061h-9.1999969c-.5999985,0-1.0999985.5-1.0999985,1.1000061v24c0,.7000122.5,1.1000061,1.0999985,1.1000061ZM46.0999985,254.3000031h9.2000008c.5999985,0,1.0999985.5,1.0999985,1.1000061v24.0000153c0,.6000061-.5,1.1000061-1.0999985,1.1000061h-9.2000008c-.5999985,0-1.0999985-.5-1.0999985-1.1000061v-24c0-.6000214.5-1.1000214,1.0999985-1.1000214ZM207.6999969,293.5h-23.6000061c-1.6999969,0-3.1000061,1.3999939-3.1000061,3.1000061v23h29.8000031v-23c.0000153-1.7000122-1.3999939-3.1000061-3.0999908-3.1000061ZM64.8000031,293.5h23.5999985c1.6999969,0,3.0999985,1.3999939,3.0999985,3.1000061v23h-29.7999992v-23c0-1.7000122,1.3999977-3.1000061,3.1000023-3.1000061Z"/>
  <path class="st3" d="M4.3000002,91.5999985c0-3,2.5-5.5,5.5-5.5h21.6000013c-3,0-5.5,2.5-5.5,5.5v225.6999893c0,1.2999878,1.1000004,2.3999939,2.3999996,2.3999939H6.6999998c-1.3000002,0-2.4000001-1.1000061-2.4000001-2.3999939,0,0,0-225.6999893.0000005-225.6999893ZM130.6999969,123.5h18.3000031c-3,0-5.5,2.5-5.5,5.5v188.2999878c0,1.2999878,1.1000061,2.3999939,2.3999939,2.3999939h-17.5c1.3000031,0,2.3999939-1.1000061,2.3999939-2.3999939V123.5h-.0999908Z"/>
  <path class="st1" d="M262.2000122,70.6999998l12.6000061,25.500001c.8999939,1.7999992,2.7000122,3.0999985,4.7000122,3.4000015l28.2000122,4.0999985c5.1000061.7000008,7.1000061,7,3.3999939,10.6000023l-20.3999939,19.9000015c-1.5,1.4000015-2.1000061,3.5-1.7999878,5.5l4.7999878,28.0999985c.8999939,5.0999985-4.5,8.9000015-9,6.5l-25.2000427-13.3000031c-1.7999878-1-4-1-5.8000031,0l-25.1999969,13.3000031c-4.6000061,2.4000015-9.8999939-1.5-9-6.5l4.8000031-28.0999985c.3000031-2-.3000031-4.0999985-1.8000031-5.5l-20.3999939-19.9000015c-3.6999969-3.5999985-1.6999969-9.9000015,3.3999939-10.5999985l28.1999969-4.0999985c2-.2999992,3.8000031-1.5999985,4.6999969-3.4000015l12.6000061-25.5000048c2.3000031-4.5999999,8.8999939-4.5999999,11.2000122,0Z"/>
</svg>