<?xml version="1.0" encoding="UTF-8"?>
<svg id="Camada_1" xmlns="http://www.w3.org/2000/svg" version="1.1" viewBox="0 0 320 320">
  <!-- Generator: Adobe Illustrator 29.5.1, SVG Export Plug-In . SVG Version: 2.1.0 Build 141)  -->
  <defs>
    <style>
      .st0 {
        fill: #ef6497;
      }

      .st0, .st1, .st2, .st3 {
        fill-rule: evenodd;
      }

      .st1 {
        fill: #fff;
      }

      .st2 {
        fill: #8533ad;
      }

      .st3 {
        fill: #6a298a;
      }
    </style>
  </defs>
  <g>
    <path class="st0" d="M312.114,89c0,44.734-36.265,81-81,81s-81-36.266-81-81S186.379,8,231.114,8s81,36.265,81,81Z"/>
    <path class="st1" d="M218.448,125.551c-2.385-.099-4.66-1.039-6.424-2.651l-.324-.31-24.356-24.361c-3.961-3.962-3.961-10.383,0-14.342,3.872-3.872,10.091-3.96,14.069-.264l.274.264,17.184,17.183,41.669-41.664c3.873-3.871,10.091-3.959,14.068-.264l.274.264c3.874,3.872,3.962,10.091.264,14.069l-.264.274-48.84,48.842c-1.803,1.8-4.212,2.854-6.747,2.96l-.424.009-.423-.009Z"/>
  </g>
  <path class="st2" d="M212.171,145.476c-2.595-22.331-24.648-20.903-24.648-20.903,0,0-36.65,4.038-44.22,4.844-2.369.252-4.089-.216-5.333-.974.348-.166.71-.328,1.108-.472,13.128-4.792,31.098-19.662,34.325-44.88.029-.237.044-.474.069-.71.038-.271.084-.536.118-.809.029-.237.044-.474.068-.71.038-.271.085-.536.118-.809.029-.237.044-.474.069-.71.038-.271.084-.536.118-.809.029-.237.044-.474.068-.71.038-.271.085-.536.118-.809.029-.237.045-.474.069-.71.038-.271.084-.536.118-.809.029-.237.044-.474.068-.71.038-.271.085-.536.118-.809.029-.237.045-.474.069-.71.038-.271.084-.536.118-.809.029-.237.044-.474.069-.71.038-.271.084-.536.117-.809.03-.237.045-.474.069-.71.038-.271.084-.536.118-.809,3.098-25.233-16.914-52.371-48.572-56.392-30.422-3.735-57.048,17.86-59.789,46.323-.026.216-.066.428-.09.645-.074.503-.128,1.011-.186,1.519-.074.503-.129,1.011-.187,1.52-.074.503-.129,1.011-.186,1.519-.074.503-.129,1.011-.187,1.519-.074.503-.129,1.011-.186,1.52-.074.503-.129,1.011-.187,1.519-.074.503-.129,1.011-.187,1.519-.282,1.946-.461,3.924-.512,5.934-.641,30.205,20.626,43.889,23.98,45.902.096.058.177.124.269.184-.465.105-.932.177-1.384.207-2.019.151-4.122-.107-5.898-.859-4.325-1.731-17.079-6.499-36.721-13.846-24.641-9.03-30.87,10.217-30.87,10.217l-3.3,8.399c-.728,1.957-1.1,3.821-1.251,5.604-.079.502-.141,1-.183,1.49-.086.514-.145,1.019-.187,1.52-.086.513-.145,1.018-.187,1.519-.086.514-.145,1.019-.187,1.519-.086.514-.145,1.019-.187,1.52-.086.514-.145,1.019-.187,1.519-.086.514-.145,1.019-.187,1.52-.086.514-.145,1.018-.187,1.519-1.771,10.764,5.873,18.466,9.658,21.548,1.086.932,2.467,1.637,3.864,2.208,6.494,2.532,29.324,11.07,35.933,13.749,5.852,2.358,9.152,5.453,10.272,10.596-1.719,3.501-3.847,5.53-3.847,5.53-6.343,6.025-39.843,37.663-45.385,42.586-5.672,4.906-7.406,8.162-8.722,14.537-.17.815-.27,1.596-.323,2.343-.087.574-.155,1.135-.187,1.677-.077.516-.158,1.033-.187,1.519-.077.517-.158,1.033-.187,1.52-.077.516-.158,1.032-.186,1.519-.077.517-.158,1.033-.187,1.52-.077.516-.158,1.032-.187,1.519-.077.517-.158,1.033-.186,1.52-.077.516-.158,1.032-.187,1.519-.87,5.83,1.44,9.869,2.861,12.696,1.501,2.985,6.126,7.688,9.959,11.228,3.704,3.523,9.998,5.497,15.878,5.417,5.881-.077,11.785-3.621,13.9-5.63,2.245-1.992,34.792-33.482,37.055-35.605,2.263-2.124,4.358-5.068,10.059-4.768,4.762.318,6.955,4.189,7.714,5.616.215.427.428.851.774,1.295,2.901,4.625,17.734,28.325,25.727,40.38,8.898,13.365,18.251,17.583,37.344,6.586,8.369-4.86,11.034-10.703,11.405-15.72.085-.514.15-1.019.187-1.519.084-.514.149-1.02.186-1.52.085-.514.15-1.019.187-1.519.084-.514.15-1.02.186-1.52.085-.514.15-1.019.187-1.519.085-.514.15-1.02.186-1.519.085-.514.15-1.02.187-1.52.081-.485.134-.963.172-1.436,1.218-7.084-2.542-12.967-2.542-12.967,0,0-29.992-45.84-34.642-54.682-2.007-3.815-3.042-6.814-3.499-9.434,1.473-2.888,3.816-4.957,5.828-6.282,1.739-1.122,3.692-1.815,5.859-2.083,7.324-.968,30.064-3.645,37.65-4.582,7.676-.865,18.249-5.875,19.733-20.951.073-.495.135-1,.186-1.519.073-.496.135-1,.187-1.52.073-.495.135-1,.186-1.519.073-.496.135-1,.187-1.52.073-.495.135-1,.186-1.519.074-.496.136-1,.187-1.52.073-.495.135-.999.187-1.519.048-.33.071-.685.11-1.025.521-3.211.606-6.921.109-11.21Z"/>
  <path class="st3" d="M139.079,127.97c-.399.146-.761.306-1.109.473-2.729-1.664-3.172-4.74-3.172-4.74,0,0-1.442-6.715,5.96-9.408,12.985-4.738,30.697-19.347,34.206-44.068-.009.094-.018.189-.026.284-.012.142-.025.284-.042.425-.02.165-.045.326-.07.487-.017.107-.033.215-.048.323-.01.094-.018.189-.027.284-.012.142-.024.284-.042.425-.02.165-.045.326-.07.487-.016.107-.033.215-.048.323-.01.094-.018.189-.026.284-.013.142-.025.284-.042.425-.021.165-.045.326-.07.487-.017.107-.033.215-.048.323-.01.095-.018.189-.027.284-.012.142-.025.284-.042.425-.02.165-.045.326-.07.487-.016.107-.033.215-.048.323-.01.094-.018.189-.026.284-.013.142-.025.284-.042.425-.021.165-.045.326-.07.487-.017.107-.033.215-.048.323-.01.094-.019.189-.027.284-.012.142-.025.284-.042.425-.02.165-.045.326-.07.487-.016.107-.033.215-.048.323-.01.094-.018.189-.026.284-.013.142-.025.284-.043.425-.02.165-.045.326-.069.487-.017.107-.033.215-.049.323-.009.094-.018.189-.026.284-.012.142-.025.284-.042.425-.02.165-.045.326-.07.487-.016.107-.033.215-.048.323-.01.094-.018.189-.026.284-.013.142-.025.284-.043.425-3.229,25.218-21.197,40.089-34.324,44.879ZM90.471,108.789c3.356,2.013,4.593,4.965,2.733,10.34-.681,2.13-2.393,3.123-4.141,3.519-.039-.025-.075-.051-.11-.076-.052-.037-.103-.074-.161-.108-3.354-2.013-24.621-15.698-23.98-45.902.051-2.01.231-3.988.513-5.935.012-.101.023-.202.035-.303.047-.406.093-.812.151-1.216.012-.101.024-.202.036-.304.046-.406.093-.812.151-1.216.012-.101.023-.202.035-.304.047-.406.093-.812.152-1.216.011-.101.023-.202.035-.303.046-.406.093-.812.151-1.216.012-.101.024-.202.035-.304.047-.406.094-.812.152-1.216.012-.101.023-.202.035-.304.046-.406.093-.812.151-1.216.012-.101.024-.202.035-.303.047-.406.094-.812.152-1.216.013-.114.03-.227.047-.34.015-.1.03-.201.043-.303-.112,1.171-.199,2.348-.23,3.539-.641,30.205,20.626,43.889,23.98,45.902Z"/>
  <path class="st3" d="M57.603,182.001c5.851,2.356,9.151,5.453,10.273,10.596,1.102-2.245,2.037-5.09,2.132-8.411.244-8.508-3.1-12.787-10.726-15.86-6.608-2.679-29.438-11.218-35.934-13.751-1.397-.569-2.777-1.274-3.862-2.208-3.601-2.93-10.687-10.048-9.849-19.999-.079.502-.141,1-.183,1.492-.085.514-.144,1.019-.187,1.519-.085.514-.144,1.019-.187,1.52-.085.514-.144,1.019-.187,1.519-.085.514-.144,1.019-.187,1.52-.085.514-.144,1.018-.187,1.519-.085.514-.144,1.019-.187,1.519-.085.514-.144,1.019-.187,1.52-1.77,10.762,5.875,18.466,9.659,21.546,1.085.934,2.466,1.639,3.862,2.208,6.495,2.533,29.326,11.072,35.934,13.751Z"/>
  <path class="st3" d="M180.967,289.881c.086-.514.152-1.021.187-1.519.086-.514.151-1.021.186-1.52.086-.513.152-1.02.187-1.519.086-.514.151-1.021.186-1.519.087-.514.152-1.021.187-1.52.086-.514.151-1.021.186-1.519.083-.485.136-.965.172-1.437-.795,4.627-3.711,9.767-11.203,14.117-19.092,10.998-28.447,6.78-37.344-6.585-7.992-12.055-22.825-35.755-25.726-40.38-.346-.444-.561-.87-.775-1.295-.758-1.429-2.952-5.3-7.715-5.618-5.7-.299-7.795,2.644-10.058,4.77-2.263,2.122-34.809,33.612-37.056,35.604-2.114,2.01-8.018,5.552-13.9,5.631-5.878.078-12.174-1.895-15.877-5.417-3.835-3.54-8.459-8.243-9.96-11.23-1.309-2.603-3.405-6.22-3.047-11.332-.086.574-.153,1.135-.187,1.677-.077.515-.156,1.031-.187,1.519-.077.515-.156,1.031-.187,1.519-.077.515-.156,1.032-.187,1.52-.077.515-.156,1.031-.187,1.519-.077.515-.156,1.032-.187,1.52-.077.515-.156,1.031-.187,1.519-.077.515-.156,1.031-.187,1.52-.87,5.828,1.441,9.869,2.862,12.694,1.501,2.987,6.126,7.69,9.96,11.23,3.702,3.522,9.998,5.495,15.877,5.417,5.881-.079,11.786-3.621,13.9-5.631,2.247-1.993,34.793-33.482,37.056-35.605,2.263-2.125,4.357-5.068,10.058-4.769,4.763.318,6.957,4.189,7.715,5.618.214.425.429.851.775,1.295,2.901,4.624,17.734,28.324,25.726,40.38,8.897,13.365,18.252,17.582,37.344,6.585,8.369-4.861,11.034-10.704,11.405-15.719.086-.514.151-1.021.186-1.52Z"/>
  <path class="st3" d="M192.592,175.625c-7.586.936-30.326,3.613-37.65,4.582-2.167.266-4.12.961-5.858,2.081-2.902,1.913-6.524,5.336-7.17,10.593-.535,3.12-.94,5.912-.338,9.364,1.473-2.888,3.816-4.956,5.828-6.282,1.739-1.12,3.692-1.815,5.859-2.081,7.324-.969,30.064-3.646,37.65-4.582,7.676-.867,18.249-5.877,19.733-20.952.073-.495.135-1.001.186-1.519.073-.495.135-1.001.187-1.519.073-.496.135-1.002.186-1.52.073-.495.136-1.001.187-1.519.073-.496.135-1.002.186-1.52.074-.495.136-1.001.187-1.519.073-.495.135-1.001.187-1.52.048-.33.071-.685.11-1.025-2.188,13.512-12.146,18.111-19.47,18.938Z"/>
</svg>