<?xml version="1.0" encoding="UTF-8"?>
<svg id="Camada_1" xmlns="http://www.w3.org/2000/svg" width="320" height="320" version="1.1" viewBox="0 0 320 320">
  <!-- Generator: Adobe Illustrator 30.2.1, SVG Export Plug-In . SVG Version: 2.1.1 Build 1)  -->
  <defs>
    <style>
      .st0 {
        fill: #ef6497;
      }

      .st0, .st1, .st2, .st3, .st4, .st5 {
        fill-rule: evenodd;
      }

      .st1 {
        fill: #fff;
      }

      .st6, .st2 {
        fill: #8533ad;
      }

      .st3 {
        fill: #14001f;
        isolation: isolate;
        opacity: .1;
      }

      .st4 {
        fill: #ddd;
      }

      .st5 {
        fill: #6a298a;
      }
    </style>
  </defs>
  <g>
    <path class="st4" d="M311.2000122,41.7999992c-2.6000061-3.9000015-6.2999878-6.9000015-10.7000122-8.6000023-2.5-.9000015-5.1000061-1.5-7.8999939-1.5H27.3999996c-12.1999998,0-22.2000008,10-22.2000008,22.2000008v184.2999992c0,12.1999969,10,22.1999969,22.2000008,22.1999969h101.7999973v40.7000122h-25.6999969c-2.5,0-4.5999985,2.1000061-4.5999985,4.6000061v2.8999939c0,2.5,2.0999985,4.6000061,4.5999985,4.6000061h115.6000061c2.5,0,4.6000061-2.1000061,4.6000061-4.6000061v-2.8999939c0-2.5-2.1000061-4.6000061-4.6000061-4.6000061h-25.6999969v-40.7000122h99.1999969c12.2000122,0,22.2000122-10,22.2000122-22.1999969V53.9000015c0-4.4000015-1.2999878-8.5999985-3.6000061-12.1000023Z"/>
    <path class="st2" d="M165.8000031,248.8999939c-4.1000061,0-7.5-3.3999939-7.5-7.5s3.3999939-7.5,7.5-7.5,7.5,3.3999939,7.5,7.5-3.3000031,7.5-7.5,7.5ZM16.7999992,220.6000061v17.6999969c0,12.1999969,10,22.1999969,22.2000008,22.1999969h253.6000061c12.2000122,0,22.2000122-10,22.2000122-22.1999969v-17.6999969H16.7999992Z"/>
    <path class="st6" d="M129.1999969,301.1000061v-40.7000122h64.3000031v40.7000122h25.6999969c2.5,0,4.6000061,2.1000061,4.6000061,4.6000061v2.8999939c0,2.5-2.1000061,4.6000061-4.6000061,4.6000061h-115.5999985c-2.5,0-4.5999985-2.1000061-4.5999985-4.6000061v-2.8999939c0-2.5,2.0999985-4.6000061,4.5999985-4.6000061h25.5999985Z"/>
    <path class="st5" d="M27.3999996,31.7000008h11.6000004c-12.2000008,0-22.2000008,10-22.2000008,22.2000008v184.3000107c0,12.1999969,10,22.2000122,22.2000008,22.2000122h-11.6000004c-12.1999998,0-22.2000008-10-22.2000008-22.1999969V53.9000015c0-12.2000008,10-22.2000008,22.2000008-22.2000008ZM129.1999969,260.3999939v40.7000122h10.8000031v-20.1000061c0-5.3999939,4.3999939-9.7999878,9.8000031-9.7999878h43.5999908v-10.7999878h-64.1999969v-.0000305ZM114.3000031,301.1000061h-10.8000031c-2.5,0-4.5999985,2.1000061-4.5999985,4.6000061v2.8999939c0,2.5,2.0999985,4.6000061,4.5999985,4.6000061h10.8000031c-2.5,0-4.5999985-2.1000061-4.5999985-4.6000061v-2.8999939c0-2.5,2.0999985-4.6000061,4.5999985-4.6000061Z"/>
  </g>
  <g>
    <path class="st0" d="M259.5458679,145.7701569c-1.6350098-22.576004-11.4940033-43.8950043-27.7630005-60.027504-16.2660065-16.1310043-37.6210022-25.7705002-60.1289978-27.1439018-26.2380066-1.5971985-51.1950073,7.4413033-70.2649002,25.4561043-18.8045044,17.7652969-29.5891037,42.8143005-29.5891037,68.7263031,0,7.6109924.9088974,15.1899872,2.7027969,22.522995,1.6069031,6.572998,6.0347061,12.0119934,12.1464005,14.9210052,3.0716019,1.4629974,6.3669052,2.1929932,9.6603012,2.1929932h138.4574814l-.0219879-.0149994c3.4649963.0829926,6.9429932-.6430054,10.1729889-2.1829987,6.1520081-2.9360046,10.6060028-8.4329987,12.2189941-15.0820007,2.3179932-9.5509949,3.1289978-19.4320068,2.4089966-29.3679962h.0000305Z"/>
    <path class="st2" d="M109.7528839,166.2481537c-1.3770065-5.5940094-1.9350052-11.5050049-1.5009995-17.6170044,2.0569992-29.0130005,26.1469955-52.4369965,55.208992-53.5935974,32.8769989-1.3089981,60.0400085,25.0586014,60.0400085,57.6495972,0,4.6580048-.5700073,9.178009-1.6330109,13.5090027-1.6380005,6.6860046,1.4900055,13.6100006,7.70401,16.5709991,8.2440033,3.9259949,17.996994-.7400055,20.1579895-9.6130066,2.0800018-8.5389862,2.8900146-17.5739899,2.2120056-26.8989868-3.1029968-42.6880035-38.0240021-77.1796036-80.7449951-79.7756042-50.1450043-3.0449982-91.7637024,36.7205963-91.7637024,86.2075958,0,7.1070099.8610001,14.0120087,2.4830017,20.6190033,2.1609955,8.8059998,11.9339981,13.3600006,20.1209946,9.4600067,6.1957016-2.9520111,9.3567047-9.8530121,7.7157059-16.5180054Z"/>
    <path class="st1" d="M245.3268738,151.1881561c.82901,0,1.5.6719971,1.5,1.5,0,.6829987-.4579926,1.2689972-1.173996,1.4559937l-.1459961.0319977-.1800079.0120087h-12.0309906c-.8280029,0-1.5-.6719971-1.5-1.5,0-.6829987.4589996-1.2689972,1.1750031-1.4560089l.1459961-.0319977.1790009-.0119934h12.0309906ZM98.3135834,151.1881561c.8283997,0,1.5.6719971,1.5,1.5,0,.6829987-.4587021,1.2689972-1.1744003,1.4559937l-.1464996.0319977-.1791.0120087h-12.0320053c-.8283997,0-1.5-.6719971-1.5-1.5,0-.6829987.4587021-1.2689972,1.1743011-1.4560089l.1464996-.0319977.1791992-.0119934h12.0320053ZM97.8596802,122.561142l.0882034.0070038.086998.012001.173996.0389938.1697998.0580063,5.8030014,2.4429932c.763504.3209991,1.1219025,1.201004.800499,1.9640045-.2649002.6300049-.9152985.9919968-1.6472931.8869934l-.1473999-.0279999-.1698074-.0579987-5.8029938-2.4429932c-.763504-.3209991-1.1219025-1.201004-.800499-1.9649963.2261963-.5370026.7373962-.8860092,1.303093-.916008h.1424026ZM233.1558838,122.5101471c.7630005-.3230057,1.6429901.0329971,1.9669952.7959976.2649994.6260071.0740051,1.3410034-.5059967,1.7929993l-.1300049.0919952-.1600037.0810089-5.7979889,2.4570007c-.7630005.3229904-1.6430054-.0330048-1.9670105-.7960052-.2649994-.625-.0739899-1.3410034.506012-1.7919922l.1299896-.0930023.1600037-.0810089,5.7980042-2.4569931ZM220.974884,95.3960419c.5859985-.5858002,1.5350037-.5858002,2.1210022,0,.4809875.4801025.571991,1.2151031.2039948,1.8511047l-.0859985.1349945-.1179962.1350021-8.5080109,8.5080032c-.5859985.5859985-1.5349884.5859985-2.1209869,0-.4810028-.4800034-.5730133-1.215004-.20401-1.8510056l.0859985-.1349945.1180115-.1350021,8.5079956-8.5081024ZM108.5128784,95.3958435c.4120026-.4123001,1.0170059-.5422974,1.552002-.3565979l.1320038.0531006.0789948.0402985.076004.043396.1469955.1016998.1350021.118103,8.5080032,8.5083008c.5859985.5849991.5859985,1.5350037,0,2.1210022-.4810028.4809952-1.215004.5719986-1.8510056.2039948l-.1349945-.0859985-.1350021-.1179962-8.5080032-8.5080032c-.5859985-.5859985-.5859985-1.5359955,0-2.1212997ZM136.421875,83.3709412c.5360107-.2276001,1.1460114-.1213989,1.5720062.251503l.1029968.0988007.0579987.0669022.0540009.0687943.0980072.1492004.0809937.160202,2.4580078,5.7969971c.322998.7627029-.0330048,1.6432037-.7949982,1.9666061-.6260071.2652969-1.3420105.0747986-1.7930145-.5050049l-.0929871-.1301956-.0810089-.1603012-2.4579926-5.7970047c-.322998-.7626953.0329895-1.6430969.79599-1.9664993ZM193.049881,84.0985413c.3209991-.7635956,1.201004-1.121994,1.9649963-.800499.6289978.2649002.9909973.9151993.8860016,1.6473007l-.0279999.1473999-.0579987.1697998-2.4429932,5.8030014c-.3209991.7634964-1.201004,1.1219025-1.9650116.800499-.6289978-.2649002-.9909973-.9152985-.8860016-1.6473007l.0279999-.1474991.0580139-.1697006,2.4429932-5.8030014ZM166.299881,71.4181442c.6829987,0,1.2689972.4587021,1.4559937,1.1744003l.0320129.1464996.0119934.1791v12.0319977c0,.8283997-.6719971,1.5-1.5,1.5-.6829987,0-1.2689972-.4586945-1.4559937-1.1744003l-.0320129-.1464996-.0119934-.1791v-12.0319977c0-.8283997.6710052-1.5,1.5-1.5Z"/>
    <path class="st1" d="M172.9498749,137.1891479c-1.9089966,1.678009-2.0029907,4.6200104-.2059937,6.4170074s4.7389984,1.7030029,6.4169922-.2060089l29.5920105-35.0619965c.5059967-.598999-.3050079-1.4049988-.9020081-.8969955l-34.901001,29.7479935ZM165.8048859,161.0901489c4.6399994,0,8.4019928-3.7610016,8.4019928-8.4019928,0-4.6410065-3.7619934-8.4020081-8.4019928-8.4020081-4.6410065,0-8.4029999,3.7610016-8.4029999,8.4020081,0,4.6409912,3.7619934,8.4019928,8.4029999,8.4019928Z"/>
    <path class="st3" d="M174.2068787,152.6881561c0,4.6409912-3.7619934,8.4019928-8.4019928,8.4019928-4.6410065,0-8.4029999-3.7610016-8.4029999-8.4019928,0-4.6410065,3.7619934-8.4020081,8.4029999-8.4020081,4.6399994,0,8.4019928,3.7610016,8.4019928,8.4020081Z"/>
  </g>
</svg>