<?xml version="1.0" encoding="UTF-8"?>
<svg id="Camada_1" xmlns="http://www.w3.org/2000/svg" version="1.1" viewBox="0 0 303.8 312">
  <!-- Generator: Adobe Illustrator 29.0.1, SVG Export Plug-In . SVG Version: 2.1.0 Build 192)  -->
  <defs>
    <style>
      .st0 {
        fill: #ef6497;
      }

      .st0, .st1, .st2, .st3, .st4, .st5 {
        fill-rule: evenodd;
      }

      .st1 {
        fill: #eb3d7d;
      }

      .st2 {
        fill: #fff;
      }

      .st3 {
        fill: #ceadde;
      }

      .st4 {
        fill: #8533ad;
      }

      .st5 {
        fill: #14001f;
        isolation: isolate;
        opacity: .1;
      }
    </style>
  </defs>
  <path class="st3" d="M285.555,44.581l-7.911-1.176c-.428,0-.428-.641,0-.641l7.911-1.176c.107,0,.214-.107.321-.321l1.176-7.911c0-.428.641-.428.641,0l1.176,7.911c0,.107.107.214.321.321l7.911,1.176c.428,0,.428.641,0,.641l-7.911,1.176c-.107,0-.214.107-.321.321l-1.176,7.911c0,.428-.641.428-.641,0l-1.176-7.911c0-.107-.107-.214-.321-.321Z"/>
  <path class="st3" d="M225.476,28.652l18.173,2.566c.321,0,.641.321.641.641l2.566,18.173c.107.855,1.39.855,1.497,0l2.566-18.173c0-.321.321-.641.641-.641l18.173-2.566c.855-.107.855-1.39,0-1.497l-18.173-2.566c-.321,0-.641-.321-.641-.641l-2.566-18.173c-.107-.855-1.39-.855-1.497,0l-2.566,18.173c0,.321-.321.641-.641.641l-18.173,2.566c-.855.107-.855,1.39,0,1.497Z"/>
  <path class="st3" d="M44.169,290.243l13.684,1.924c.214,0,.428.214.535.535l1.924,13.684c0,.641,1.069.641,1.176,0l1.924-13.684c0-.214.214-.428.535-.535l13.684-1.924c.641,0,.641-1.069,0-1.176l-13.684-1.924c-.214,0-.428-.214-.535-.535l-1.924-13.684c0-.641-1.069-.641-1.176,0l-1.924,13.684c0,.214-.214.428-.535.535l-13.684,1.924c-.641,0-.641,1.069,0,1.176Z"/>
  <path class="st3" d="M14.557,245.13l1.283,8.98c0,.428.748.428.748,0l1.283-8.98c0-.214.107-.321.321-.321l8.98-1.283c.428,0,.428-.748,0-.748l-8.98-1.283c-.214,0-.321-.107-.321-.321l-1.283-8.98c0-.428-.748-.428-.748,0l-1.283,8.98c0,.214-.107.321-.321.321l-8.98,1.283c-.428,0-.428.748,0,.748l8.98,1.283c.214,0,.321.107.321.321Z"/>
  <path class="st3" d="M289.573,81.569l5.131.748c.214,0,.214.428,0,.428l-5.131.748s-.214,0-.214.214l-.748,5.131c0,.214-.428.214-.428,0l-.748-5.131s0-.214-.214-.214l-5.131-.748c-.214,0-.214-.428,0-.428l5.131-.748s.214,0,.214-.214l.748-5.131c0-.214.428-.214.428,0l.748,5.131s0,.214.214.214Z"/>
  <path class="st3" d="M22.468,282.332l5.131.748c.214,0,.214.428,0,.428l-5.131.748s-.214,0-.214.214l-.748,5.131c0,.214-.428.214-.428,0l-.748-5.131s0-.214-.214-.214l-5.131-.748c-.214,0-.214-.428,0-.428l5.131-.748s.214,0,.214-.214l.748-5.131c0-.214.428-.214.428,0l.748,5.131s0,.214.214.214Z"/>
  <path class="st0" d="M247.295,62.428c22.986,22.794,36.915,52.915,39.226,84.811.312,4.319.421,8.632.325,12.925.096,4.294-.013,8.606-.325,12.925-2.31,31.897-16.24,62.018-39.226,84.81-22.982,22.791-53.154,36.411-84.955,38.351-37.071,2.258-72.332-10.513-99.275-35.966-26.568-25.1-41.806-60.491-41.806-97.101,0-1.006.011-2.013.034-3.019-.022-1.006-.034-2.013-.034-3.019,0-36.611,15.237-72.002,41.806-97.101,26.943-25.453,62.204-38.223,99.275-35.966,31.801,1.94,61.973,15.56,84.955,38.351Z"/>
  <path class="st1" d="M51.126,159.972c0,57.686,46.217,104.449,103.229,104.449s103.227-46.763,103.227-104.449-46.218-104.45-103.227-104.45-103.229,46.764-103.229,104.45ZM286.52,147.239c-2.31-31.896-16.24-62.017-39.226-84.811-22.982-22.791-53.154-36.41-84.955-38.351-37.071-2.257-72.332,10.514-99.275,35.966-26.568,25.1-41.806,60.491-41.806,97.101,0,1.006.011,2.013.034,3.019-.022,1.006-.034,2.013-.034,3.019,0,36.61,15.237,72.001,41.806,97.101,26.943,25.453,62.204,38.224,99.275,35.966,31.801-1.94,61.973-15.56,84.955-38.351,22.986-22.792,36.915-52.913,39.226-84.81.312-4.319.421-8.631.325-12.925.096-4.294-.013-8.606-.325-12.925Z"/>
  <path class="st4" d="M74.882,176.731c-1.946-7.904-2.734-16.255-2.121-24.891,2.906-40.992,36.942-74.087,78.003-75.721,46.451-1.849,84.829,35.405,84.829,81.452,0,6.581-.805,12.967-2.307,19.086-2.314,9.446,2.105,19.229,10.885,23.413,11.648,5.547,25.427-1.046,28.481-13.582,2.939-12.065,4.083-24.83,3.125-38.005-4.384-60.313-53.723-109.045-114.082-112.713-70.849-4.302-129.651,51.882-129.651,121.801,0,10.041,1.216,19.797,3.508,29.132,3.053,12.442,16.861,18.876,28.428,13.366,8.754-4.171,13.22-13.921,10.902-23.338Z"/>
  <path class="st2" d="M266.429,155.453c1.171,0,2.119.949,2.119,2.119,0,.965-.649,1.794-1.659,2.059l-.208.044-.253.017h-16.998c-1.17,0-2.119-.948-2.119-2.119,0-.964.649-1.793,1.66-2.056l.206-.045.253-.017h16.998ZM58.718,155.453c1.17,0,2.119.949,2.119,2.119,0,.965-.648,1.794-1.659,2.059l-.207.044-.253.017h-17c-1.171,0-2.119-.948-2.119-2.119,0-.964.648-1.793,1.659-2.056l.207-.045.253-.017h17ZM58.077,115.006l.125.011.123.016.246.055.24.083,8.199,3.452c1.079.454,1.585,1.697,1.131,2.776-.374.889-1.293,1.401-2.327,1.252l-.208-.039-.24-.083-8.199-3.452c-1.079-.454-1.585-1.697-1.131-2.776.32-.759,1.042-1.252,1.841-1.294h.201ZM249.233,114.935c1.078-.457,2.321.047,2.778,1.124.374.884.106,1.895-.714,2.533l-.184.131-.227.114-8.192,3.471c-1.077.457-2.321-.047-2.778-1.125-.374-.884-.106-1.895.714-2.533l.185-.131.226-.114,8.192-3.471ZM232.023,76.626c.827-.828,2.169-.828,2.997,0,.678.679.808,1.717.288,2.616l-.122.19-.167.191-12.021,12.021c-.828.828-2.17.828-2.997,0-.68-.679-.81-1.717-.29-2.616l.122-.19.168-.191,12.021-12.021ZM73.128,76.626c.583-.583,1.437-.766,2.193-.504l.187.075.111.057.108.061.207.144.191.167,12.021,12.021c.828.828.828,2.17,0,2.997-.679.679-1.717.809-2.616.289l-.19-.122-.191-.167-12.021-12.021c-.828-.828-.828-2.169,0-2.997ZM112.559,59.636c.758-.322,1.62-.172,2.222.355l.145.14.082.095.077.097.138.211.115.226,3.473,8.19c.457,1.078-.046,2.322-1.124,2.779-.884.375-1.895.106-2.533-.713l-.131-.184-.114-.226-3.473-8.19c-.457-1.078.046-2.321,1.124-2.778ZM192.568,60.664c.454-1.079,1.697-1.585,2.775-1.131.889.374,1.402,1.293,1.253,2.327l-.04.208-.082.24-3.452,8.199c-.455,1.079-1.697,1.585-2.776,1.131-.889-.374-1.402-1.293-1.252-2.327l.038-.208.083-.24,3.452-8.199ZM154.075,43.097c.964,0,1.793.648,2.057,1.659l.045.207.017.253v17c0,1.17-.949,2.119-2.119,2.119-.965,0-1.794-.648-2.058-1.659l-.045-.207-.017-.253v-17c0-1.17.949-2.119,2.12-2.119Z"/>
  <path class="st2" d="M164.171,135.674c-2.697,2.371-2.83,6.527-.291,9.066,2.539,2.539,6.696,2.406,9.066-.291l41.81-49.538c.715-.846-.431-1.985-1.274-1.267l-49.311,42.03ZM154.076,169.444c6.556,0,11.871-5.314,11.871-11.871s-5.315-11.872-11.871-11.872-11.873,5.314-11.873,11.872,5.315,11.871,11.873,11.871Z"/>
  <path class="st5" d="M165.947,157.573c0,6.557-5.315,11.871-11.871,11.871s-11.873-5.314-11.873-11.871,5.315-11.871,11.873-11.871,11.871,5.314,11.871,11.871Z"/>
</svg>