<?xml version="1.0" encoding="utf-8"?>
<!-- Generator: Adobe Illustrator 28.2.0, SVG Export Plug-In . SVG Version: 6.00 Build 0)  -->
<svg version="1.1" id="Camada_1" xmlns="http://www.w3.org/2000/svg" xmlns:xlink="http://www.w3.org/1999/xlink" x="0px" y="0px"
	 viewBox="0 0 320 320" style="enable-background:new 0 0 320 320;" xml:space="preserve">
<style type="text/css">
	.st0{fill-rule:evenodd;clip-rule:evenodd;fill:#8533AD;}
	.st1{fill-rule:evenodd;clip-rule:evenodd;fill:#6A298A;}
	.st2{fill-rule:evenodd;clip-rule:evenodd;fill:#EF6497;}
	.st3{fill-rule:evenodd;clip-rule:evenodd;fill:#FFFFFF;}
</style>
<path class="st0" d="M254.7,50l-81.3-30v0.7L90,51.2v0.1L12.7,23c-3.4-1.2-6.9,1.4-6.9,5.1V243c0,2.3,1.4,4.3,3.5,5.1L90,277.5v0
	l0.1,0l0.2,0.1l0-0.2l83.8-30.7l77.2,28.2c3.4,1.2,6.9-1.4,6.9-5.1V55.1C258.2,52.8,256.8,50.7,254.7,50z"/>
<path class="st1" d="M174,246.8L90,277.6V51.2L174,20.5V246.8z"/>
<path class="st2" d="M281.8,157.2c-27.5-27.5-72-27.5-99.5,0c-27.5,27.5-27.5,72,0,99.5l44.6,44.7c2.8,2.8,7.4,2.8,10.2,0l44.7-44.7
	C309.2,229.2,309.2,184.7,281.8,157.2z"/>
<path class="st3" d="M232,172.7c18.7,0,33.9,15.2,33.9,33.9c0,18.7-15.2,33.9-33.9,33.9c-18.7,0-33.9-15.2-33.9-33.9
	C198.1,187.8,213.3,172.7,232,172.7z"/>
</svg>
