<?xml version="1.0" encoding="utf-8"?>
<!-- Generator: Adobe Illustrator 28.1.0, SVG Export Plug-In . SVG Version: 6.00 Build 0)  -->
<svg version="1.1" id="Camada_1" xmlns="http://www.w3.org/2000/svg" xmlns:xlink="http://www.w3.org/1999/xlink" x="0px" y="0px"
	 viewBox="0 0 320 320" style="enable-background:new 0 0 320 320;" xml:space="preserve">
<style type="text/css">
	.st0{fill-rule:evenodd;clip-rule:evenodd;fill:#DDDDDD;}
	.st1{fill-rule:evenodd;clip-rule:evenodd;fill:#660099;}
	.st2{fill-rule:evenodd;clip-rule:evenodd;fill:#FFFFFF;}
	.st3{fill-rule:evenodd;clip-rule:evenodd;fill:#8533AD;}
	.st4{fill-rule:evenodd;clip-rule:evenodd;fill:#6A298A;}
	.st5{fill-rule:evenodd;clip-rule:evenodd;fill:#EF6497;}
	.st6{fill-rule:evenodd;clip-rule:evenodd;fill:#BF5079;}
</style>
<path class="st0" d="M319.1,33.6H0v262.9c0,5.9,4.8,10.8,10.8,10.8h297.6c5.9,0,10.8-4.8,10.8-10.8V124.2V54.3V33.6z"/>
<path class="st1" d="M47.3,27.8c-2.5,0-4.5-2-4.5-4.5c0-2.5,2-4.5,4.5-4.5c2.5,0,4.5,2,4.5,4.5C51.8,25.8,49.8,27.8,47.3,27.8z
	 M31.5,27.8c-2.5,0-4.5-2-4.5-4.5c0-2.5,2-4.5,4.5-4.5c2.5,0,4.5,2,4.5,4.5C36,25.8,34,27.8,31.5,27.8z M15.7,27.8
	c-2.5,0-4.5-2-4.5-4.5c0-2.5,2-4.5,4.5-4.5c2.5,0,4.5,2,4.5,4.5C20.2,25.8,18.1,27.8,15.7,27.8z M319.1,23.6
	c0-5.9-4.8-10.8-10.8-10.8H10.8C4.8,12.8,0,17.6,0,23.6v10h319.1V23.6z"/>
<path class="st2" d="M15.7,18.8c-2.5,0-4.5,2-4.5,4.5c0,2.5,2,4.5,4.5,4.5c2.5,0,4.5-2,4.5-4.5C20.2,20.8,18.1,18.8,15.7,18.8z
	 M31.5,18.8c-2.5,0-4.5,2-4.5,4.5c0,2.5,2,4.5,4.5,4.5c2.5,0,4.5-2,4.5-4.5C36,20.8,34,18.8,31.5,18.8z M42.8,23.3
	c0-2.5,2-4.5,4.5-4.5c2.5,0,4.5,2,4.5,4.5c0,2.5-2,4.5-4.5,4.5C44.8,27.8,42.8,25.8,42.8,23.3z"/>
<path class="st3" d="M223.8,143.9c-3.4-13.9-17.2-11.3-17.2-11.3s-22.8,5.4-27.5,6.5c-1.5,0.3-2.6,0.2-3.4-0.2
	c0.2-0.1,0.4-0.3,0.7-0.4c7.9-4,18.1-14.8,18.2-30.9c0-0.2,0-0.3,0-0.5c0-0.2,0-0.3,0-0.5c0-0.2,0-0.3,0-0.5c0-0.2,0-0.3,0-0.5
	c0-0.2,0-0.3,0-0.5c0-0.2,0-0.3,0-0.5c0-0.2,0-0.3,0-0.5c0-0.2,0-0.3,0-0.5c0-0.2,0-0.3,0-0.5c0-0.2,0-0.3,0-0.5c0-0.2,0-0.3,0-0.5
	c0-0.2,0-0.3,0-0.5c0-0.2,0-0.3,0-0.5c0-0.2,0-0.3,0-0.5c0-0.2,0-0.3,0-0.5c0-0.2,0-0.3,0-0.5c0-0.2,0-0.3,0-0.5c0-0.2,0-0.3,0-0.5
	c0-16.1-14.7-31.7-35-31.8c-19.5,0-34.6,15.7-34.1,33.8c0,0.1,0,0.3,0,0.4c0,0.3,0,0.6,0,1c0,0.3,0,0.6,0,1c0,0.3,0,0.6,0,1
	c0,0.3,0,0.6,0,1c0,0.3,0,0.6,0,1c0,0.3,0,0.6,0,1c0,0.3,0,0.6,0,1c0,1.2,0,2.5,0.1,3.8c1.9,19.1,16.4,26.1,18.7,27.1
	c0.1,0,0.1,0.1,0.2,0.1c-0.3,0.1-0.6,0.2-0.9,0.2c-1.3,0.3-2.6,0.3-3.8-0.1c-2.9-0.8-11.3-2.8-24.2-5.9c-16.2-3.8-18.7,8.8-18.7,8.8
	l-1.4,5.5c-0.3,1.3-0.4,2.5-0.4,3.6c0,0.3,0,0.6,0,1c0,0.3,0,0.7,0,1c0,0.3,0,0.7,0,1c0,0.3,0,0.7,0,1c0,0.3,0,0.7,0,1
	c0,0.3,0,0.7,0,1c0,0.3,0,0.7,0,1c0,0.3,0,0.7,0,1c-0.3,6.9,5.1,11.2,7.8,12.8c0.8,0.5,1.7,0.8,2.6,1.1c4.3,1.1,19.3,4.7,23.7,5.9
	c3.9,1,6.2,2.7,7.3,5.9c-0.8,2.3-2,3.8-2,3.8c-3.5,4.3-22.2,26.8-25.3,30.4c-3.2,3.5-4,5.7-4.4,9.8c0,0.5,0,1,0,1.5
	c0,0.4,0,0.7,0,1.1c0,0.3,0,0.7,0,1c0,0.3,0,0.7,0,1c0,0.3,0,0.7,0,1c0,0.3,0,0.7,0,1c0,0.3,0,0.7,0,1c0,0.3,0,0.7,0,1
	c0,0.3,0,0.7,0,1c-0.1,3.7,1.7,6.1,2.8,7.8c1.2,1.8,4.5,4.4,7.1,6.3c2.6,1.9,6.7,2.7,10.4,2.2c3.7-0.5,7.1-3.2,8.3-4.6
	c1.3-1.4,19.3-23.8,20.6-25.3c1.3-1.5,2.4-3.5,6-3.8c3-0.2,4.7,2.1,5.3,2.9c0.2,0.3,0.3,0.5,0.6,0.8c2.2,2.7,13.4,16.5,19.3,23.5
	c6.6,7.7,12.9,9.7,24.1,1.3c4.9-3.7,6.1-7.6,6-10.8c0-0.3,0-0.7,0-1c0-0.3,0-0.7,0-1c0-0.3,0-0.7,0-1c0-0.3,0-0.7,0-1
	c0-0.3,0-0.7,0-1c0-0.3,0-0.7,0-1c0-0.3,0-0.7,0-1c0-0.3,0-0.6,0-0.9c0.2-4.6-2.6-8-2.6-8s-22.5-26.6-26.1-31.8
	c-1.6-2.2-2.4-4.1-2.9-5.7c0.7-1.9,2-3.4,3.2-4.4c1-0.8,2.2-1.4,3.5-1.8c4.5-1.2,18.7-4.6,23.4-5.8c4.8-1.1,11-5.1,10.8-14.7
	c0-0.3,0-0.6,0-1c0-0.3,0-0.6,0-1c0-0.3,0-0.6,0-1c0-0.3,0-0.6,0-1c0-0.3,0-0.6,0-1c0-0.3,0-0.6,0-1c0-0.3,0-0.6,0-1
	c0-0.2,0-0.4,0-0.7C224.7,148.9,224.5,146.5,223.8,143.9z"/>
<path class="st4" d="M176.4,138.5c-0.2,0.1-0.5,0.3-0.7,0.4c-1.8-0.8-2.4-2.7-2.4-2.7s-1.4-4.1,3-6.4c7.8-4,17.9-14.6,18.2-30.4
	c0,0.1,0,0.1,0,0.2c0,0.1,0,0.2,0,0.3c0,0.1,0,0.2,0,0.3c0,0.1,0,0.1,0,0.2c0,0.1,0,0.1,0,0.2c0,0.1,0,0.2,0,0.3c0,0.1,0,0.2,0,0.3
	c0,0.1,0,0.1,0,0.2c0,0.1,0,0.1,0,0.2c0,0.1,0,0.2,0,0.3c0,0.1,0,0.2,0,0.3c0,0.1,0,0.1,0,0.2c0,0.1,0,0.1,0,0.2c0,0.1,0,0.2,0,0.3
	c0,0.1,0,0.2,0,0.3c0,0.1,0,0.1,0,0.2c0,0.1,0,0.1,0,0.2c0,0.1,0,0.2,0,0.3c0,0.1,0,0.2,0,0.3c0,0.1,0,0.1,0,0.2c0,0.1,0,0.1,0,0.2
	c0,0.1,0,0.2,0,0.3c0,0.1,0,0.2,0,0.3c0,0.1,0,0.1,0,0.2c0,0.1,0,0.1,0,0.2c0,0.1,0,0.2,0,0.3c0,0.1,0,0.2,0,0.3c0,0.1,0,0.1,0,0.2
	c0,0.1,0,0.1,0,0.2c0,0.1,0,0.2,0,0.3c0,0.1,0,0.2,0,0.3c0,0.1,0,0.1,0,0.2c0,0.1,0,0.1,0,0.2c0,0.1,0,0.2,0,0.3
	C194.5,123.7,184.3,134.5,176.4,138.5z M144.3,130.2c2.3,1,3.3,2.8,2.5,6.3c-0.3,1.4-1.3,2.2-2.3,2.5c0,0-0.1,0-0.1,0
	c0,0-0.1,0-0.1-0.1c-2.3-1-16.7-8-18.7-27.1c-0.1-1.3-0.2-2.5-0.1-3.8c0-0.1,0-0.1,0-0.2c0-0.3,0-0.5,0-0.8c0-0.1,0-0.1,0-0.2
	c0-0.3,0-0.5,0-0.8c0-0.1,0-0.1,0-0.2c0-0.3,0-0.5,0-0.8c0-0.1,0-0.1,0-0.2c0-0.3,0-0.5,0-0.8c0-0.1,0-0.1,0-0.2c0-0.3,0-0.5,0-0.8
	c0-0.1,0-0.1,0-0.2c0-0.3,0-0.5,0-0.8c0-0.1,0-0.1,0-0.2c0-0.3,0-0.5,0-0.8c0-0.1,0-0.1,0-0.2c0-0.1,0-0.1,0-0.2
	c0,0.7,0.1,1.5,0.1,2.2C127.5,122.2,142,129.1,144.3,130.2z"/>
<path class="st4" d="M129.2,178.9c3.9,1,6.2,2.7,7.3,5.9c0.5-1.5,0.9-3.4,0.7-5.5c-0.5-5.4-2.9-7.8-8-9.2
	c-4.4-1.2-19.4-4.8-23.7-5.9c-0.9-0.3-1.8-0.6-2.6-1.1c-2.5-1.6-7.5-5.5-7.8-11.8c0,0.3,0,0.6,0,1c0,0.3,0,0.7,0,1c0,0.3,0,0.7,0,1
	c0,0.3,0,0.7,0,1c0,0.3,0,0.7,0,1c0,0.3,0,0.7,0,1c0,0.3,0,0.7,0,1c0,0.3,0,0.7,0,1c-0.3,6.9,5.1,11.2,7.8,12.8
	c0.8,0.5,1.7,0.8,2.6,1.1C109.8,174.1,124.9,177.7,129.2,178.9z"/>
<path class="st4" d="M215.4,237.3c0-0.3,0-0.7,0-1c0-0.3,0-0.7,0-1c0-0.3,0-0.7,0-1c0-0.3,0-0.7,0-1c0-0.3,0-0.7,0-1
	c0-0.3,0-0.7,0-1c0-0.3,0-0.6,0-0.9c-0.1,3-1.6,6.4-6,9.8c-11.2,8.4-17.4,6.5-24.1-1.3c-6-7-17.2-20.8-19.3-23.5
	c-0.3-0.3-0.4-0.5-0.6-0.8c-0.6-0.8-2.3-3.1-5.3-2.9c-3.6,0.3-4.7,2.3-6,3.8c-1.3,1.5-19.3,23.9-20.6,25.3c-1.2,1.4-4.6,4.1-8.3,4.6
	c-3.7,0.5-7.8-0.3-10.4-2.2c-2.7-1.9-6-4.5-7.1-6.3c-1-1.5-2.6-3.7-2.8-6.9c0,0.4,0,0.7,0,1.1c0,0.3,0,0.7,0,1c0,0.3,0,0.7,0,1
	c0,0.3,0,0.7,0,1c0,0.3,0,0.7,0,1c0,0.3,0,0.7,0,1c0,0.3,0,0.7,0,1c0,0.3,0,0.7,0,1c-0.1,3.7,1.7,6.1,2.8,7.8
	c1.2,1.8,4.5,4.4,7.1,6.3c2.6,1.9,6.7,2.7,10.4,2.2c3.7-0.5,7.1-3.2,8.3-4.6c1.3-1.4,19.3-23.8,20.6-25.3c1.3-1.5,2.4-3.5,6-3.8
	c3-0.2,4.7,2.1,5.3,2.9c0.2,0.3,0.3,0.5,0.6,0.8c2.2,2.7,13.4,16.5,19.3,23.5c6.6,7.7,12.9,9.7,24.1,1.3c4.9-3.7,6.1-7.6,6-10.8
	C215.4,238,215.4,237.6,215.4,237.3z"/>
<path class="st4" d="M213.8,164.4c-4.7,1.2-18.8,4.6-23.4,5.8c-1.3,0.3-2.5,0.9-3.5,1.8c-1.7,1.4-3.7,3.9-3.7,7.2
	c-0.1,2-0.1,3.8,0.5,5.9c0.7-1.9,2-3.4,3.2-4.4c1-0.8,2.2-1.4,3.5-1.8c4.5-1.2,18.7-4.6,23.4-5.8c4.8-1.1,11-5.1,10.8-14.7
	c0-0.3,0-0.6,0-1c0-0.3,0-0.6,0-1c0-0.3,0-0.6,0-1c0-0.3,0-0.6,0-1c0-0.3,0-0.6,0-1c0-0.3,0-0.6,0-1c0-0.3,0-0.6,0-1
	c0-0.2,0-0.4,0-0.7C224.3,159.6,218.4,163.3,213.8,164.4z"/>
<path class="st5" d="M248.4,216.5V216h0c-0.2-2.1-1.1-4.2-2.7-5.9l-16.8-16.8l11.8-3.2c2-0.5,2.9-2.3,2.7-4v-6.3
	c0.1-0.4,0.1-0.8,0-1.2v-0.1l0,0c-0.2-1.2-1-2.3-2.3-2.8l-63.7-25.4c-2.5-1-5.1,0.9-5.2,3.3l0,0v7.8h0c0,0.4,0.1,0.8,0.3,1.2
	l25.4,63.7c1.4,3.4,6.2,3.1,7.2-0.4l3.5-12.8c0.6-2.1,3.2-2.8,4.7-1.2l19.1,19.1c3.7,3.7,9.7,3.7,13.4,0c1.6-1.6,2.5-3.7,2.7-5.8
	h0.1v-7.8C248.4,217,248.4,216.7,248.4,216.5z"/>
<path class="st6" d="M245.7,223.5L245.7,223.5c1.8-1.8,2.7-4,2.8-6.3v7.8h-0.1c-0.2,2.1-1.1,4.2-2.7,5.8c-3.7,3.7-9.7,3.7-13.4,0
	l-19.1-19.1c-1.5-1.5-4.1-0.8-4.7,1.2l-3.5,12.8c-1,3.5-5.8,3.8-7.2,0.4l-25.4-63.7c-0.2-0.4-0.2-0.8-0.3-1.2h0v-7.8l0,0
	c0,0.5,0,1.1,0.3,1.7l25.4,63.7c1.3,3.4,6.2,3.1,7.2-0.4l3.5-12.8c0.6-2.1,3.2-2.8,4.7-1.2l19.1,19.1
	C236,227.2,242,227.2,245.7,223.5z M227.8,186.3l12.8-3.5c1.6-0.4,2.5-1.7,2.7-3v6.3c0.2,1.7-0.7,3.5-2.7,4l-11.8,3.2l-2.3-2.3
	C225,189.5,225.7,186.9,227.8,186.3z"/>
</svg>
