<?xml version="1.0" encoding="utf-8"?>
<!-- Generator: Adobe Illustrator 28.2.0, SVG Export Plug-In . SVG Version: 6.00 Build 0)  -->
<svg version="1.1" id="Camada_1" xmlns="http://www.w3.org/2000/svg" xmlns:xlink="http://www.w3.org/1999/xlink" x="0px" y="0px"
	 viewBox="0 0 320 320" style="enable-background:new 0 0 320 320;" xml:space="preserve">
<style type="text/css">
	.st0{fill-rule:evenodd;clip-rule:evenodd;fill:#DDDDDD;}
	.st1{fill-rule:evenodd;clip-rule:evenodd;fill:#EF6497;}
	.st2{fill-rule:evenodd;clip-rule:evenodd;fill:#8533AD;}
	.st3{fill-rule:evenodd;clip-rule:evenodd;fill:#CEADDE;}
	.st4{fill-rule:evenodd;clip-rule:evenodd;fill:#5D2479;}
</style>
<g>
	<path class="st0" d="M151.7,185L87,61l6.3-3.3l64.3,123.3L279,98l4,5.8L162.9,186l100.2,58.2l-3.5,6.1l-101.6-59l-43.7,115
		l-6.6-2.5l42.1-110.6L32.4,228.1l-2-6.8l121.1-36L151.7,185z"/>
	<path class="st1" d="M112.6,35.6c0,17.8-14.5,32.3-32.3,32.3c-17.8,0-32.3-14.5-32.3-32.3c0-17.8,14.5-32.3,32.3-32.3
		C98.2,3.3,112.6,17.8,112.6,35.6z M297.3,247.9c0,15.9-12.9,28.8-28.8,28.8c-15.9,0-28.8-12.9-28.8-28.8
		c0-15.9,12.9-28.8,28.8-28.8C284.5,219.1,297.3,232,297.3,247.9z M275.2,139.7c18.3,0,33.1-14.8,33.1-33.1s-14.8-33.1-33.1-33.1
		c-18.3,0-33.1,14.8-33.1,33.1S256.9,139.7,275.2,139.7z M49.5,226.4c0,10.5-8.5,18.9-18.9,18.9c-10.5,0-18.9-8.5-18.9-18.9
		c0-10.5,8.5-18.9,18.9-18.9C41.1,207.5,49.5,215.9,49.5,226.4z M110.7,316.7c7,0,12.6-5.6,12.6-12.6s-5.6-12.6-12.6-12.6
		s-12.6,5.6-12.6,12.6S103.7,316.7,110.7,316.7z"/>
	<path class="st2" d="M208.4,138.8L148,90.1c-1.5-1.2-3.7-1.2-5.2,0l-60.3,48.7l-0.7,0.5v81.8h126.9v-81.8L208.4,138.8z"/>
	<path class="st1" d="M149.6,82.3l63.6,53.9c1.2,1.1,0.5,3.1-1.1,3.1h-3.4l-0.3-0.5L148,90.1c-1.5-1.2-3.7-1.2-5.2,0l-60.3,48.7
		l-0.6,0.5h-3.1c-1.6,0-2.4-2-1.1-3.1l63.6-53.9C143.7,80.2,147.2,80.2,149.6,82.3z M111.5,182.6c-1.6,0-2.9,1.3-2.9,2.9
		s1.3,2.9,2.9,2.9c1.6,0,2.9-1.3,2.9-2.9S113.1,182.6,111.5,182.6z M104.6,155.7c0-3.8,3.1-6.8,6.8-6.8h30.7c3.8,0,6.8,3.1,6.8,6.8
		v66.8h-44.4V155.7z"/>
	<path class="st3" d="M150.3,219.4h58.7c1.1,0,2,0.9,2,2v0.3c0,1.1-0.9,2-2,2h-60.7c-1.1,0-2-0.9-2-2v-0.3c0-0.8,0.4-1.4,1.1-1.8
		V154c0-2-1.6-3.6-3.6-3.6h-34.2c-2,0-3.6,1.6-3.6,3.6v65.6c0.7,0.3,1.2,1,1.2,1.8v0.3c0,1.1-0.9,2-2,2H82.4c-1.1,0-2-0.9-2-2v-0.3
		c0-1.1,0.9-2,2-2h20.4V154c0-3.6,2.9-6.6,6.6-6.6h34.2c3.6,0,6.6,3,6.6,6.6V219.4z M177.2,152.8c-6.3,0.8-11.1,6.2-11.1,12.7v2.7
		h11.1V152.8z M191.7,165.5c0-6.3-4.6-11.6-10.6-12.6v15.3h10.6V165.5z M177.2,172v14.4h-7.3c-2.1,0-3.8-1.7-3.8-3.8V172H177.2z
		 M191.7,172h-10.6v14.4h6.8c2.1,0,3.8-1.7,3.8-3.8V172z"/>
	<path class="st4" d="M81.9,139.4v3.2l61-48.6c1.5-1.2,3.7-1.2,5.3,0l60.7,48.4v-3l-0.3-0.4l-60.3-48.7c-1.5-1.2-3.8-1.2-5.3,0
		L81.9,139.4z"/>
</g>
</svg>
