<svg width="320" height="320" viewBox="0 0 320 320" fill="none" xmlns="http://www.w3.org/2000/svg">
<path fill-rule="evenodd" clip-rule="evenodd" d="M233.407 239.15C229.155 240.982 224.024 239.198 222.193 234.946C220.362 230.695 222.145 225.563 226.396 223.732C230.648 221.901 235.78 223.685 237.612 227.936C239.538 231.839 237.753 236.97 233.407 239.15ZM262.844 209.753L255.579 213.005C254.343 213.415 253.297 213.128 252.442 212.143C250.987 210.619 249.532 209.094 247.98 207.92C247.03 207.283 246.716 205.697 247.003 204.653L249.806 197.176C250.189 195.782 249.526 194.101 248.133 193.717L241.353 191.106C239.959 190.724 238.277 191.386 237.894 192.781L235.091 200.256C234.805 201.302 233.471 202.061 232.33 202.122C230.143 201.896 228.21 202.115 226.275 202.333C225.134 202.395 223.836 201.664 223.33 200.775L220.077 193.51C219.319 192.178 218.021 191.446 216.339 192.109L209.867 195.204C208.534 195.963 207.803 197.262 208.466 198.943L211.717 206.208C212.128 207.444 211.841 208.49 210.857 209.345C209.333 210.801 207.808 212.256 206.632 213.807C205.997 214.757 204.411 215.071 203.367 214.784L196.081 211.284C194.686 210.901 193.006 211.564 192.623 212.959L190.107 219.389C189.725 220.783 190.388 222.465 191.781 222.848L199.259 225.649C200.303 225.938 201.061 227.27 201.123 228.41C200.897 230.598 201.116 232.532 201.336 234.466C201.396 235.607 200.665 236.906 199.776 237.411L192.512 240.664C191.178 241.422 190.446 242.721 191.109 244.402L194.205 250.874C194.963 252.207 196.262 252.939 197.943 252.276L205.208 249.023C206.444 248.613 207.491 248.901 208.345 249.885C209.801 251.41 211.256 252.932 212.807 254.108C213.757 254.744 214.071 256.33 213.785 257.376L210.982 264.852C210.598 266.245 211.262 267.928 212.656 268.31L219.436 270.92C220.83 271.304 222.511 270.641 222.893 269.247L225.696 261.771C225.983 260.725 227.316 259.967 228.457 259.905C230.645 260.132 232.579 259.913 234.512 259.694C235.654 259.632 236.953 260.363 237.457 261.253L240.71 268.518C241.469 269.85 242.767 270.581 244.449 269.919L250.921 266.824C252.253 266.066 252.984 264.767 252.323 263.086L249.07 255.821C248.66 254.583 248.947 253.537 249.931 252.683C251.455 251.228 252.979 249.772 254.155 248.221C254.791 247.271 256.376 246.957 257.422 247.244L264.898 250.047C266.293 250.43 267.973 249.768 268.356 248.372L270.968 241.593C271.351 240.199 270.688 238.518 269.294 238.135L261.817 235.332C260.771 235.045 260.013 233.713 259.951 232.571C260.177 230.384 259.959 228.45 259.74 226.516C259.679 225.375 260.411 224.077 261.298 223.57L268.564 220.318C269.896 219.559 270.628 218.261 269.965 216.58L266.869 210.109C265.824 209.82 264.178 208.994 262.844 209.753Z" fill="#EF6497"/>
<path fill-rule="evenodd" clip-rule="evenodd" d="M119.723 124.644C107.049 136.166 87.0758 135.013 75.9367 121.955C64.4149 109.279 65.5675 89.3076 78.6258 78.1685C91.3013 66.6456 111.273 67.7982 122.412 80.8576C133.935 93.532 132.399 113.121 119.723 124.644ZM153.908 33.9982L140.465 45.905C138.16 47.8253 135.47 48.2091 133.166 46.6738C129.326 43.9847 125.1 42.4482 120.876 40.5279C118.188 39.3753 116.65 37.0712 116.65 34.3821L117.803 16.7144C118.188 13.6415 115.114 10.5686 112.042 10.1847L96.2934 9.0321C93.2216 8.64825 90.1487 11.7212 89.7637 14.7941L88.6122 32.4618C88.6122 35.1509 86.307 37.455 83.619 38.2238C79.3935 39.3753 74.7841 40.9118 70.9445 42.8321C68.2555 43.9847 65.5675 43.217 63.6461 41.2956L51.7393 27.8524C49.4352 25.1644 45.5946 25.1644 43.2893 27.4685L31.3826 38.2238C28.6946 40.5279 28.6946 44.3685 30.9987 46.6738L42.9055 60.117C44.8258 62.4211 45.2096 65.1102 43.6732 67.4144C40.9852 71.255 39.4487 75.4794 37.5284 79.705C36.3758 82.3941 34.0716 83.9305 31.3826 83.9305L13.7149 82.7779C10.642 82.3941 7.56905 85.4659 7.1852 88.5388L6.03258 104.287C5.64874 107.359 8.72167 110.432 11.7946 110.816L29.4623 111.968C32.1513 111.968 34.4555 114.274 35.2232 116.962C36.3758 121.187 37.9112 125.797 39.8326 129.636C40.9852 132.325 40.2164 135.013 38.2961 136.935L25.2378 148.456C22.5487 150.762 22.5487 154.603 24.8529 156.908L35.6081 168.814C37.9112 171.503 41.7529 171.503 44.0581 169.198L57.5013 157.291C59.8055 155.371 62.4935 154.986 64.7976 156.523C68.6393 159.212 72.8638 160.748 77.0893 162.668C79.7784 163.821 81.3148 166.125 81.3148 168.814L80.1622 186.866C79.7784 189.939 82.8502 193.012 85.9242 193.395L101.671 194.548C104.745 194.932 107.816 191.859 108.201 188.786L109.354 171.118C109.354 168.429 111.658 166.125 114.346 165.356C118.57 164.205 123.18 162.668 127.022 160.748C129.71 159.596 132.399 160.364 134.319 162.285L146.226 175.728C148.531 178.416 152.37 178.416 154.676 176.112L166.582 165.356C169.272 163.052 169.272 159.212 166.966 156.908L155.06 142.696C153.139 140.391 152.755 137.702 154.291 135.398C156.98 131.556 158.517 127.332 160.437 123.108C161.589 120.418 163.895 118.882 166.582 118.882L184.251 120.035C187.323 120.418 190.396 117.346 190.781 114.274L191.932 98.5253C192.316 95.4523 189.243 92.3805 186.172 91.9967L168.503 90.844C165.814 90.844 163.51 88.5388 162.742 85.8508C161.589 81.6253 160.053 77.0159 158.132 73.1753C156.98 70.4873 157.748 67.7982 159.669 65.8779L173.112 53.9711C175.8 51.667 175.8 47.8253 173.496 45.5212L162.742 33.6144C160.437 32.0779 156.212 31.693 153.908 33.9982Z" fill="#EF6497"/>
<path fill-rule="evenodd" clip-rule="evenodd" d="M303.872 78.5605C303.248 74.5033 299.504 71.383 295.447 72.0061H286.395C284.211 71.6941 282.026 72.6311 280.467 74.1912L272.04 82.6178C269.802 84.855 267.308 86.4219 264.761 87.3502C263.583 86.8753 262.462 86.2414 261.43 85.426C255.188 80.4327 254.252 71.07 259.556 64.8286L260.493 63.8925L270.792 53.5938C273.912 50.7846 273.912 45.7923 270.792 42.9831C269.231 41.735 267.67 40.7989 266.111 40.7989C265.685 40.7381 265.26 40.693 264.835 40.6498C264.225 40.5733 263.616 40.5321 263.006 40.5124C262.792 40.5026 262.579 40.4987 262.366 40.4938C262.311 40.4928 262.256 40.4918 262.2 40.4908C261.741 40.481 261.281 40.4781 260.821 40.4859H249.883C247.386 40.4859 244.889 40.7989 242.393 41.422C224.915 44.8552 211.184 58.8992 208.376 76.6884C208.063 78.8726 207.752 81.0567 207.752 83.2419C207.44 90.1073 204.63 96.9738 199.638 101.654L95.7142 205.265C90.7208 210.259 84.1674 213.38 76.9899 213.38C74.8047 213.38 72.6196 213.692 70.4354 214.004C52.6472 216.812 38.6033 230.544 35.17 248.021C34.234 252.39 34.234 256.759 34.547 261.128C34.859 264.873 38.2912 267.994 42.3485 267.682H50.6848C51.5954 267.947 52.5707 268.066 53.5833 267.994C55.4554 267.682 57.0165 267.058 58.2646 265.497L68.5633 255.198C70.0194 253.743 71.7287 252.672 73.5566 251.972C75.3856 252.672 77.0949 253.743 78.549 255.198L79.4861 256.135C84.1674 262.064 83.5433 270.803 77.9259 276.108L68.2503 285.782C65.1311 288.591 65.1311 293.584 68.2503 296.394C69.5004 297.642 71.0605 298.266 72.6196 298.578C75.5436 298.996 78.4666 298.986 81.3906 298.659C81.9911 298.901 82.6102 299.078 83.2313 299.202C87.6006 299.826 91.9689 299.515 96.3382 298.578C113.815 295.144 127.546 281.101 130.356 263.312C130.668 260.504 130.98 257.383 130.98 254.575C130.668 249.581 132.852 244.588 136.285 241.155L245.512 131.614C248.946 127.869 253.939 125.997 258.932 126.309C282.651 127.245 302.624 108.833 303.561 85.114C304.184 82.9298 304.184 80.7457 303.872 78.5605Z" fill="#8533AD"/>
<path fill-rule="evenodd" clip-rule="evenodd" d="M254.751 44.4494C256.03 44.2002 257.247 45.0431 257.497 46.3226C257.748 47.6021 256.905 48.8187 255.625 49.0689C241.737 51.6583 230.846 62.9245 228.474 77.1245C228.286 78.2166 227.288 79.029 226.165 79.029C226.039 79.029 225.914 79.029 225.79 78.9976C224.52 78.7817 223.659 77.5866 223.856 76.313C226.538 60.2095 238.959 47.3832 254.751 44.4494ZM285.991 86.5807C286.896 85.6761 288.393 85.6761 289.298 86.5807C290.204 87.4864 290.204 88.9837 289.298 89.8894C283.649 95.5372 276.847 98.4396 270.292 98.4396C265.58 98.4396 260.992 96.9108 257.123 93.7906C256.124 92.9792 255.971 91.5132 256.779 90.5134C257.592 89.5145 259.059 89.3585 260.087 90.17C267.359 96.0376 278.001 94.5707 285.991 86.5807ZM80.6402 219.777C64.9125 222.461 52.3668 234.632 49.4006 250.112C48.809 253.638 48.3713 257.508 49.0896 261.815C49.2721 262.948 50.2513 263.78 51.3984 263.781C51.524 263.781 51.6486 263.781 51.7732 263.718C53.0536 263.5 53.9259 262.314 53.7081 261.035C53.1145 257.383 53.5207 253.981 54.0201 250.923C56.6105 237.41 67.6265 226.737 81.4526 224.397C82.7007 224.178 83.574 222.96 83.3561 221.681C83.1373 220.433 81.9206 219.558 80.6402 219.777ZM95.4328 259.161C94.6223 258.132 94.8087 256.665 95.8086 255.885C96.8379 255.074 98.3048 255.261 99.0848 256.26C104.515 263.157 103.735 273.3 97.3049 279.385L87.6931 288.997C87.226 289.465 86.6324 289.684 86.0397 289.684C85.4461 289.684 84.8544 289.465 84.3854 288.997C83.4808 288.08 83.4808 286.606 84.3854 285.689L94.0611 276.015C98.8042 271.552 99.3969 264.156 95.4328 259.161Z" fill="#CEADDE"/>
<path fill-rule="evenodd" clip-rule="evenodd" d="M242.393 41.4224C224.916 44.8556 211.184 58.8996 208.376 76.6878C208.064 78.872 207.752 81.0571 207.752 83.2413C207.44 90.1077 204.63 96.9732 199.638 101.655L95.7149 205.266C90.7206 210.259 84.1671 213.379 76.9896 213.379C74.8045 213.379 72.6203 213.691 70.4352 214.004C52.647 216.812 38.604 230.544 35.1708 248.021C34.2347 252.39 34.2347 256.759 34.5467 261.129C34.8587 264.873 38.291 267.994 42.3483 267.682H50.6846C47.6654 266.802 45.3969 264.245 45.1565 261.129C44.8454 256.759 44.8454 252.39 45.7805 248.021C49.2137 230.544 63.2587 216.812 81.0469 214.004C83.2311 213.691 85.4162 213.379 87.6004 213.379C94.4658 213.379 101.331 210.259 106.014 205.266L210.248 101.655C215.241 96.9732 218.05 90.1077 218.362 83.2413C218.362 81.0571 218.674 78.872 218.986 76.6878C221.796 58.8996 235.527 44.8556 253.003 41.4224C255.609 40.8641 258.215 40.5344 260.821 40.4863H249.882C247.385 40.4863 244.889 40.7984 242.393 41.4224Z" fill="#6A298A"/>
<path fill-rule="evenodd" clip-rule="evenodd" d="M286.396 72.0065C284.211 71.6945 282.026 72.6315 280.466 74.1917L272.04 82.6172C269.803 84.8554 267.308 86.4214 264.76 87.3496C270.34 89.6005 277.239 88.0305 282.652 82.6172L291.077 74.1917C292.325 72.9436 293.886 72.3185 295.447 72.0065H286.396Z" fill="#A564C4"/>
<path fill-rule="evenodd" clip-rule="evenodd" d="M137.69 219.591L218.893 138.386C222.7 134.579 222.7 128.65 218.893 124.842C215.086 121.035 209.156 121.035 205.348 124.842L124.208 205.983C120.467 209.628 120.39 215.615 124.035 219.355C124.091 219.413 124.148 219.471 124.208 219.528C126.049 221.369 128.608 222.305 131.26 222.368C133.788 222.337 136.067 221.338 137.69 219.591ZM120.899 202.707L202.041 121.566C207.594 116.01 216.646 116.01 222.201 121.566C227.755 127.121 227.755 136.171 222.201 141.725L141.06 222.867C138.625 225.488 135.161 226.986 131.354 227.049H131.104C127.297 227.049 123.583 225.52 120.899 222.867C115.345 217.295 115.345 208.278 120.899 202.707ZM73.5574 251.971C78.7833 249.967 84.9982 251.037 89.1605 255.198L90.0966 256.135C94.7779 262.065 94.1538 270.802 88.5355 276.109L78.8618 286.408C75.7406 289.216 75.7406 294.209 78.8618 297.017C79.6144 297.77 80.4798 298.292 81.3903 298.659C78.4673 298.987 75.5434 298.995 72.6204 298.578C71.0602 298.266 69.5001 297.641 68.2501 296.393C65.1308 293.585 65.1308 288.592 68.2501 285.783L77.9257 276.109C83.5431 270.802 84.1672 262.065 79.4868 256.135L78.5498 255.198C77.0946 253.743 75.3854 252.673 73.5574 251.971Z" fill="#6A298A"/>
</svg>
