<?xml version="1.0" encoding="UTF-8"?>
<svg id="Camada_2_cópia" xmlns="http://www.w3.org/2000/svg" version="1.1" viewBox="0 0 320 320">
  <!-- Generator: Adobe Illustrator 29.0.1, SVG Export Plug-In . SVG Version: 2.1.0 Build 192)  -->
  <defs>
    <style>
      .st0 {
        fill: #ef6497;
      }

      .st0, .st1, .st2, .st3, .st4 {
        fill-rule: evenodd;
      }

      .st5, .st1 {
        fill: #8533ad;
      }

      .st2 {
        fill: #5d2479;
      }

      .st3 {
        fill: #4a1d61;
      }

      .st4 {
        fill: #f7b1cb;
      }
    </style>
  </defs>
  <g>
    <path class="st5" d="M142.504,82.498l-7.737,8.613c-1.533,1.752-1.387,4.526.292,6.204l9.927,8.613c1.387,1.241,1.971,3.358,1.022,5.11-1.387,2.993-2.409,6.204-3.139,9.343-.511,1.971-2.263,3.358-4.234,3.504l-12.847.73c-2.409.146-4.38,2.263-4.234,4.745l.73,11.606c.146,2.409,2.263,4.38,4.745,4.234l12.847-.73c2.117-.146,3.869,1.022,4.526,2.993,1.241,3.139,2.628,6.204,4.38,8.905.876,1.752.73,3.869-.511,5.255l-8.613,9.854c-1.533,1.752-1.387,4.526.292,6.204l8.613,7.737c1.752,1.533,4.526,1.387,6.204-.292l8.613-9.854c1.241-1.387,3.358-1.971,5.11-1.022,2.993,1.387,6.204,2.409,9.343,3.139,1.971.511,3.358,2.263,3.504,4.234l.73,12.847c.146,2.409,2.263,4.38,4.745,4.234l11.606-.73c2.409-.146,4.38-2.263,4.234-4.745l-.73-12.847c-.146-2.117,1.022-3.869,2.993-4.526,3.139-1.241,6.204-2.628,8.905-4.38,1.752-.876,3.869-.73,5.255.511l9.854,8.613c1.752,1.533,4.526,1.387,6.204-.292l7.737-8.613c1.533-1.752,1.387-4.526-.292-6.204l-9.854-8.613c-1.387-1.241-1.971-3.358-1.022-5.11,1.387-2.993,2.409-6.204,3.139-9.343.511-1.971,2.263-3.358,4.234-3.504l12.847-.73c2.409-.146,4.38-2.263,4.234-4.745l-.657-11.606c-.146-2.409-2.263-4.38-4.745-4.234l-12.847.73c-2.117.146-3.869-1.022-4.526-2.993-1.241-3.139-2.628-6.204-4.38-8.905-.876-1.752-.73-3.869.511-5.255l8.613-9.854c1.533-1.752,1.387-4.526-.292-6.204l-8.613-7.737c-1.752-1.533-4.526-1.387-6.204.292l-8.613,9.635c-1.241,1.387-3.358,1.971-5.11,1.022-2.993-1.387-6.204-2.409-9.343-3.139-1.971-.511-3.358-2.263-3.504-4.234l-.876-12.847c-.146-2.409-2.263-4.38-4.745-4.234l-11.679.657c-2.409.146-4.38,2.263-4.234,4.745l.73,12.847c.146,2.117-1.022,3.869-2.993,4.526-3.139,1.241-6.204,2.628-8.905,4.38-1.752.876-3.869.73-5.255-.511l-9.781-8.613c-1.752-1.679-4.526-1.387-6.204.584h0ZM171.774,116.075c8.321-9.343,22.701-10.219,32.044-1.971,9.343,8.248,10.219,22.701,1.971,32.044-8.321,9.343-22.701,10.219-32.044,1.971-9.343-8.175-10.073-22.701-1.971-32.044Z"/>
    <path class="st0" d="M182.552,126.441c0-33.568-28.876-59.917-62.805-56.067-25.988,2.888-47.043,24.304-49.931,50.713-1.805,18.529,5.354,35.673,17.867,47.103,9.625,9.264,16.062,21.416,16.062,34.952v5.715c0,3.91,3.188,7.52,7.52,7.52h30.319c3.91,0,7.52-3.188,7.52-7.52v-6.076c0-13.175,6.076-26.048,15.701-35.313,11.069-10.347,17.867-24.604,17.867-41.028h-.12Z"/>
    <path class="st1" d="M148.322,222.814v-.722c0-3.249-2.827-5.775-5.715-5.775h-33.207c-3.188,0-5.715,2.888-5.715,5.775v.722c0,3.008,2.466,5.354,5.113,5.715-2.888.361-5.113,2.948-5.113,5.655v.722c0,2.346,1.504,4.271,3.429,5.174-2.045.963-3.429,3.068-3.429,5.174v.722c0,3.188,2.827,5.715,5.715,5.715h5.655l2.527,3.91c1.083,1.444,2.466,2.166,3.91,2.166h9.264c1.444,0,2.827-.722,4.271-2.166l2.527-3.91h4.993c3.188,0,5.354-2.466,5.715-5.715v-.722c0-2.346-1.504-4.271-3.429-5.174,1.925-.963,3.188-3.068,3.429-5.174v-.722c0-2.948-2.406-5.294-4.993-5.655,2.827-.301,4.692-2.406,4.993-5.715h.06Z"/>
    <path class="st2" d="M112.288,230.213h27.853c1.083,0,1.805-.722,1.805-1.805s-.722-1.805-1.805-1.805h-27.853c-1.083,0-1.805.722-1.805,1.805s.722,1.805,1.805,1.805ZM117.642,255.54c1.083,1.444,2.527,2.166,3.91,2.166h9.264c1.444,0,2.827-.722,4.271-2.166l2.527-3.91h-22.499s2.527,3.91,2.527,3.91ZM112.288,238.816h27.853c1.083,0,1.805.722,1.805,1.805s-.722,1.805-1.805,1.805h-27.853c-1.083,0-1.805-.722-1.805-1.805s.722-1.805,1.805-1.805Z"/>
    <path class="st4" d="M167.573,108.574c-.722,0-1.444-.361-1.805-1.083-7.82-16.062-23.522-25.687-41.028-25.687-1.658,0-1.805-.722-1.805-1.805s.722-1.805,1.805-1.805c18.529,0,36.034,10.708,44.216,27.853.361.722,0,1.805-.722,2.527,0-.361-.361,0-.722,0h.06ZM172.566,128.908c-1.083,0-1.805-.722-1.805-1.805,0-3.549-.361-7.159-1.083-10.708-.361-1.083.361-1.805,1.444-2.166,1.083-.361,1.805.361,2.166,1.444.722,3.549,1.444,7.82,1.444,11.43-.361,1.083-1.083,1.805-2.166,1.805h0Z"/>
  </g>
  <g>
    <path class="st0" d="M260.118,252.885c42.152-42.152,48.258-108.329,14.519-157.351-2.336-3.396-1.478-8.042,1.917-10.378,3.012-2.072,7.007-1.631,9.502.864.318.318.612.669.876,1.053,37.82,54.951,30.981,129.124-16.261,176.366-18.83,18.83-42.477,31.76-68.384,37.395-22.146,4.817-45.026,4.148-66.725-1.883l4.896,8.478c2.061,3.569.84,8.134-2.73,10.194-3.568,2.061-8.133.836-10.194-2.73l-14.269-24.706c-2.061-3.569-.84-8.134,2.729-10.195l24.707-14.269c2.989-1.726,6.677-1.148,9.007,1.181.452.452.853.969,1.187,1.549,2.061,3.569.84,8.134-2.729,10.195l-9.701,5.602c19.689,5.667,40.506,6.382,60.65,2,23.106-5.026,44.2-16.562,61.002-33.365Z"/>
    <path class="st0" d="M43.446,234.844c-3.394,2.336-8.038,1.483-10.378-1.917C-4.752,177.977,2.087,103.803,49.329,56.562c18.829-18.829,42.476-31.76,68.383-37.395,22.148-4.817,45.027-4.148,66.725,1.882l-4.897-8.477c-2.061-3.568-.839-8.134,2.73-10.194,2.989-1.726,6.677-1.15,9.008,1.181.452.452.852.969,1.187,1.549l14.269,24.707c2.061,3.568.839,8.133-2.73,10.194l-24.706,14.269c-3.57,2.061-8.134.836-10.195-2.729-2.061-3.569-.839-8.134,2.73-10.194l9.701-5.603c-19.689-5.666-40.507-6.381-60.65-2-23.105,5.026-44.2,16.563-61.001,33.365-42.153,42.153-48.26,108.329-14.521,157.351,2.337,3.395,1.478,8.041-1.917,10.378Z"/>
  </g>
  <g>
    <path class="st4" d="M128.489,150.982c-2.845-6.738-6.123-13.216-9.166-19.759-3.024-6.54-5.865-13.189-7.331-20.222-.058-.273-.323-.467-.602-.423-.287.046-.485.317-.439.604,1.148,7.248,3.719,14.155,6.443,20.879,2.744,6.732,5.695,13.341,8.162,20.079,2.475,6.728,4.467,13.599,5.427,20.578.979,6.974.881,14.024-.319,20.883l-.007.041c-.007.038-.011.074-.016.112-.182,1.439.836,2.752,2.275,2.934,1.439.183,2.752-.837,2.934-2.275.944-7.476.669-15.065-.72-22.375-1.371-7.32-3.791-14.332-6.639-21.058Z"/>
    <path class="st1" d="M98.976,117.453c5.388-19.964,11.434-34.622,13.682-23.476.922,4.573,5.822,9.389,11.618,15.084,8.33,8.187,18.511,18.192,21.39,31.91,2.091,9.968-.399,17.884-3.848,23.628-1.723,2.868-4.117,5.078-6.863,6.596-1.395-7.016-3.728-13.747-6.465-20.214-1.925-4.558-4.048-8.998-6.162-13.419-1.011-2.114-2.02-4.224-3.004-6.34-3.024-6.539-5.865-13.19-7.332-20.222-.058-.273-.322-.467-.601-.423-.287.046-.486.317-.439.604,1.148,7.247,3.719,14.154,6.442,20.879.889,2.181,1.8,4.349,2.709,6.512,1.897,4.515,3.786,9.011,5.454,13.566,2.474,6.727,4.466,13.6,5.426,20.579.002.016.004.033.006.049.003.024.006.048.009.071-4.377,1.238-9.221.91-13.602-1.203-21.288-10.261-23.546-35.185-18.42-54.184Z"/>
    <path class="st3" d="M117.396,171.637c4.677,2.254,9.875,2.46,14.475.914-13.736-2.912-25.076-15.13-29.433-35.274-3.81-17.616,5.573-41.196,8.124-47.131-2.895-.292-7.437,11.925-11.587,27.308-5.126,18.998-2.867,43.922,18.42,54.183Z"/>
  </g>
</svg>