<?xml version="1.0" encoding="utf-8"?>
<!-- Generator: Adobe Illustrator 28.1.0, SVG Export Plug-In . SVG Version: 6.00 Build 0)  -->
<svg version="1.1" id="Camada_2" xmlns="http://www.w3.org/2000/svg" xmlns:xlink="http://www.w3.org/1999/xlink" x="0px" y="0px"
	 viewBox="0 0 320 320" style="enable-background:new 0 0 320 320;" xml:space="preserve">
<style type="text/css">
	.st0{fill-rule:evenodd;clip-rule:evenodd;fill:#DDDDDD;}
	.st1{fill-rule:evenodd;clip-rule:evenodd;fill:#EF6497;}
	.st2{fill-rule:evenodd;clip-rule:evenodd;fill:#8533AD;}
	.st3{fill-rule:evenodd;clip-rule:evenodd;fill:#FFFFFF;}
</style>
<g>
	<path class="st0" d="M164.5,156.4V35.5h-10v120.8l-120.3-20l-1.6,9.9l119.4,19.8L83.6,284.8l8.7,5l67.3-117.1l67.2,116.9l8.7-5
		l-68.1-118.5l119.4-19.8l-1.6-9.9L164.5,156.4z"/>
	<path class="st1" d="M184.9,32.4c0,14-11.4,25.4-25.4,25.4s-25.4-11.4-25.4-25.4S145.5,7,159.5,7S184.9,18.4,184.9,32.4z
		 M112.1,287.6c0,14-11.4,25.4-25.4,25.4s-25.4-11.4-25.4-25.4s11.4-25.4,25.4-25.4S112.1,273.5,112.1,287.6z M232.3,313
		c14,0,25.4-11.4,25.4-25.4s-11.4-25.4-25.4-25.4c-14,0-25.4,11.4-25.4,25.4S218.2,313,232.3,313z M59.5,141.1
		c0,14-11.4,25.4-25.4,25.4S8.6,155.2,8.6,141.1c0-14,11.4-25.4,25.4-25.4S59.5,127.1,59.5,141.1z M284.9,166.5
		c14,0,25.4-11.4,25.4-25.4c0-14-11.4-25.4-25.4-25.4s-25.4,11.4-25.4,25.4C259.5,155.2,270.9,166.5,284.9,166.5z"/>
	<path class="st2" d="M232.4,157.6c0,40.4-32.7,73.1-73.1,73.1c-40.4,0-73.1-32.7-73.1-73.1c0-40.4,32.7-73.1,73.1-73.1
		C199.7,84.6,232.4,117.3,232.4,157.6z"/>
	<path class="st3" d="M108.4,146.5l0.4,0.4c1.7,1.7,4.5,1.7,6.2,0c11.8-11.2,27.6-18.1,45.1-18.1c17.5,0,33.3,6.9,45.1,18.1
		c1.8,1.7,4.5,1.7,6.2,0l0.4-0.4c1.8-1.8,1.7-4.7-0.2-6.4c-13.5-12.8-31.6-20.7-51.6-20.7s-38.1,7.9-51.6,20.7
		C106.8,141.8,106.6,144.7,108.4,146.5z M123.1,154.7c9.7-9.1,22.7-14.7,37-14.7c14.3,0,27.3,5.6,37,14.7c1.8,1.7,1.9,4.6,0.2,6.4
		l-0.4,0.4c-1.6,1.6-4.3,1.8-6,0.2c-8.1-7.6-18.9-12.3-30.8-12.3s-22.7,4.7-30.8,12.3c-1.7,1.6-4.4,1.5-6-0.2l-0.4-0.4
		C121.2,159.3,121.3,156.4,123.1,154.7z M138.4,170c5.8-5.2,13.4-8.3,21.8-8.3c8.4,0,16,3.1,21.8,8.3c1.9,1.7,1.9,4.6,0.1,6.4
		l-0.5,0.5c-1.7,1.7-4.3,1.7-6.1,0.1c-4.1-3.6-9.5-5.8-15.4-5.8c-5.9,0-11.2,2.2-15.4,5.9c-1.8,1.6-4.4,1.6-6.1-0.1l-0.5-0.5
		C136.5,174.6,136.5,171.7,138.4,170z M160.2,203c4.5,0,8.2-3.7,8.2-8.3s-3.7-8.3-8.2-8.3c-4.5,0-8.2,3.7-8.2,8.3
		S155.6,203,160.2,203z"/>
</g>
</svg>
