<?xml version="1.0" encoding="utf-8"?>
<!-- Generator: Adobe Illustrator 28.2.0, SVG Export Plug-In . SVG Version: 6.00 Build 0)  -->
<svg version="1.1" id="Camada_3_cópia" xmlns="http://www.w3.org/2000/svg" xmlns:xlink="http://www.w3.org/1999/xlink" x="0px"
	 y="0px" viewBox="0 0 320 320" style="enable-background:new 0 0 320 320;" xml:space="preserve">
<style type="text/css">
	.st0{fill-rule:evenodd;clip-rule:evenodd;fill:#5D2479;}
	.st1{fill-rule:evenodd;clip-rule:evenodd;fill:#EF6497;}
	.st2{fill-rule:evenodd;clip-rule:evenodd;fill:#8533AD;}
	.st3{fill-rule:evenodd;clip-rule:evenodd;fill:#EB3D7D;}
	.st4{fill-rule:evenodd;clip-rule:evenodd;fill:#F7B1CB;}
</style>
<g>
	<g>
		<path class="st0" d="M184.1,33c-0.9-1.3-2.8-1.7-4.2-0.7l-17.8,12.5c-1.3,0.9-1.7,2.8-0.7,4.2c0.8,1.1,2.2,1.5,3.4,1.1
			c0.2-0.1,0.5-0.2,0.7-0.4l17.8-12.5C184.7,36.2,185,34.3,184.1,33z"/>
		<path class="st0" d="M85.4,105.8c0.2-0.1,0.5-0.2,0.7-0.4l68.3-48c1.3-0.9,1.7-2.8,0.7-4.2c-0.9-1.3-2.8-1.7-4.2-0.7l-68.3,48
			c-1.3,0.9-1.7,2.8-0.7,4.2C82.7,105.9,84.2,106.3,85.4,105.8z"/>
		<path class="st0" d="M80.6,76.5c0.2-0.1,0.5-0.2,0.7-0.4l44.1-31c1.3-0.9,1.7-2.8,0.7-4.2c-0.9-1.3-2.8-1.7-4.2-0.7l-44.1,31
			c-1.3,0.9-1.7,2.8-0.7,4.2C78,76.6,79.4,77,80.6,76.5z"/>
		<path class="st0" d="M27.5,113.9c0.2-0.1,0.5-0.2,0.7-0.4l36-25.3c1.3-0.9,1.7-2.8,0.7-4.2c-0.9-1.3-2.8-1.7-4.2-0.7l-36,25.3
			c-1.3,0.9-1.7,2.8-0.7,4.2C24.9,113.9,26.3,114.3,27.5,113.9z"/>
	</g>
	<g>
		<path class="st0" d="M295.8,159.7c-1-1.3-2.9-1.5-4.2-0.4l-12.5,10.2c-1.3,1-1.5,2.9-0.4,4.2c0.9,1.1,2.3,1.4,3.5,0.8
			c0.2-0.1,0.5-0.2,0.7-0.4l12.5-10.2C296.7,162.8,296.8,161,295.8,159.7z"/>
		<path class="st0" d="M246.4,199.9c0.9,1.1,2.3,1.4,3.5,0.8c0.2-0.1,0.5-0.2,0.7-0.4l15.7-12.8c1.3-1,1.5-2.9,0.4-4.2
			c-1-1.3-2.9-1.5-4.2-0.4l-15.7,12.8C245.5,196.7,245.3,198.6,246.4,199.9z"/>
		<path class="st0" d="M276.1,208.1L183.9,283c-1.3,1-1.5,2.9-0.4,4.2c0.9,1.1,2.3,1.4,3.5,0.8c0.2-0.1,0.5-0.2,0.7-0.4l92.2-74.9
			c1.3-1,1.5-2.9,0.4-4.2C279.3,207.2,277.4,207,276.1,208.1z"/>
	</g>
</g>
<g>
	<path class="st1" d="M263.6,61.5c0.8-5.5-3.9-10.2-9.4-9.5c-18.2,2.5-56.7,11-87.4,38.8c-39.1,35.3-54,70.5-58.4,82.8
		c-1,2.8-0.2,5.8,1.8,7.9l24,24c2.1,2.1,5.1,2.8,7.9,1.8c12.3-4.3,47.5-19.3,82.8-58.4C252.3,118.5,260.9,79.8,263.6,61.5z"/>
	<path class="st2" d="M191,124.6c8.3,8.3,21.6,8.3,29.9,0c8.3-8.3,8.3-21.6,0-29.9c-8.3-8.3-21.6-8.3-29.9,0
		C182.8,103,182.8,116.3,191,124.6z M128.1,199.4L116,187.3c-4,4.8-9,8.8-14.7,11.6c-1.8,0.9-3.6,1.6-5.6,1.6
		c-2.7-0.1-4.2-2.7-5.8-5.3c-0.8-1.4-1.6-2.7-2.6-3.7c-2.8-3-8.3-6.3-11.8-4.8c-4.6,1.9-6.6,5.6-8.3,8.8c-1.6,3-3,5.6-6,5.9
		c-1.7,0.2-3.9-0.2-6.3-0.7c-4.8-1-10.7-2.2-15.9,1c-8.7,5.3-7.7,18,0.8,22.8c1.8,1,4.7,1.9,7.2,2.7l0,0l0,0c1,0.3,2,0.6,2.8,0.9
		c2.8,1,5.7,2.6,6.9,5.3c1.4,3,0.5,6.3-0.4,9.6l0,0c-0.4,1.5-0.8,2.9-1,4.4c-0.7,4.9,1.1,10.1,4.6,13.5c3.6,3.4,8.8,5,13.7,4.1
		c0.6-0.1,1.2-0.3,1.8-0.4c1.7-0.4,3.5-0.9,5.2-0.5c3.1,0.7,4.7,3.6,6.3,6.5c0.8,1.4,1.6,2.9,2.6,4.1c2.7,3.3,7.3,4.9,11.4,4
		c5.8-1.3,9.7-6.8,12-12.3l0-0.1c0.4-1.1,0.9-2.2,1.9-2.9c1.6-1.1,3.7-0.4,5.6,0.3c0.3,0.1,0.7,0.2,1,0.3c6.7,2.1,14.7-1.9,17-8.6
		c0.9-2.7,0.9-5.7,0.4-8.6c-1-5.6-4-10.8-8.3-14.5c-1.5-1.3-3.1-2.4-4.8-3.4c-1.6-1-3.1-2.1-4.5-3.3c-2.9-2.4-5.4-5.9-5.3-9.7
		c0.1-2.8,1.5-5.4,3.2-7.6C121.6,204.8,124.7,201.9,128.1,199.4z M58.8,192.1c-2.2,2.2-5.8,2.2-8,0c-2.2-2.2-2.2-5.8,0-8
		c2.2-2.2,5.8-2.2,8,0C61,186.3,61,189.9,58.8,192.1z M116.2,280.4c2.2,2.2,5.8,2.2,8,0c2.2-2.2,2.2-5.8,0-8c-2.2-2.2-5.8-2.2-8,0
		C113.9,274.6,113.9,278.2,116.2,280.4z M36.9,241.9c1.2,1.2,3.3,1.2,4.5,0c1.2-1.2,1.2-3.3,0-4.5c-1.2-1.2-3.3-1.2-4.5,0
		C35.7,238.6,35.7,240.7,36.9,241.9z"/>
	<path class="st3" d="M241.2,74.5c6.4,6.4,11.6,13,15,18.7c4.1-12.7,6.3-23.9,7.4-31.6c0.8-5.6-3.9-10.3-9.5-9.5
		c-7.7,1.1-19,3.2-31.7,7.4C228.1,62.8,234.7,68,241.2,74.5z"/>
	<path class="st4" d="M193.8,97.5c-6.7,6.7-6.7,17.6,0,24.3c6.7,6.7,17.6,6.7,24.3,0c6.7-6.7,6.7-17.6,0-24.3
		C211.4,90.8,200.5,90.8,193.8,97.5z M188.2,91.9c9.8-9.8,25.7-9.8,35.5,0c9.8,9.8,9.8,25.7,0,35.5c-9.8,9.8-25.7,9.8-35.5,0
		C178.5,117.6,178.5,101.7,188.2,91.9z M132.2,173c3.2-4.2,9-5.1,12.2-1.9c3.2,3.2,2.3,9-1.9,12.2l-37.4,29c-1.4,1.1-3-0.5-1.9-1.9
		L132.2,173z M153,244.5l6.6-9.7c5.1-7.6,7.9-16.5,8.1-25.6l0.2-10.5c0.1-3-2.9-5-5.7-3.8l-18.6,7.8c-1.7,0.7-2.8,2.6-2.4,4.4
		l6.1,36.2C147.8,246,151.4,246.8,153,244.5z M117,147.7c3-0.1,5,2.9,3.8,5.7l-7.8,18.6c-0.7,1.7-2.6,2.8-4.4,2.4l-36.2-6.1
		c-2.8-0.5-3.5-4.1-1.2-5.6l9.7-6.6c7.6-5.1,16.5-7.9,25.6-8.1L117,147.7z"/>
</g>
</svg>
