<?xml version="1.0" encoding="utf-8"?>
<!-- Generator: Adobe Illustrator 28.2.0, SVG Export Plug-In . SVG Version: 6.00 Build 0)  -->
<svg version="1.1" id="Layer_1" xmlns="http://www.w3.org/2000/svg" xmlns:xlink="http://www.w3.org/1999/xlink" x="0px" y="0px"
	 viewBox="0 0 320 320" style="enable-background:new 0 0 320 320;" xml:space="preserve">
<style type="text/css">
	.st0{fill:#B1B1B1;}
	.st1{fill:#DDDDDD;}
	.st2{fill:#8533AD;}
	.st3{fill:#55057F;}
	.st4{fill:#EF6497;}
	.st5{fill:#FFFFFF;}
</style>
<path class="st0" d="M237.9,258.7V123.8c0-10-8.1-18-18.1-18H32c-10,0-18,8.1-18,18V294c0,10,8.1,18,18,18h237.4
	c1.7,0,3.1-1.1,3.5-2.6c0.4-1.2,1.2-11.3,0.1-12.4L248.2,283C241.7,276.5,237.9,267.8,237.9,258.7L237.9,258.7z"/>
<path class="st1" d="M238.3,248.6V113.7c0-10-8.1-18-18-18H32.5c-10,0-18,8.1-18,18v170.2c0,10,8.1,18,18,18h237.4
	c3.4,0,5-4.1,2.6-6.3l-23.8-22.7C242.1,266.4,238.3,257.7,238.3,248.6z"/>
<path class="st2" d="M176.9,166.6c0,19.9-10.3,37.2-40.7,41.8v2.2c0,7.2-5.4,12.4-12.4,12.4h-7.1c-7.1,0-12.7-4.9-12.7-12.7v-12.7
	c0-7.2,4.5-12.4,11.6-13.3c18.8-2.4,26.1-5.7,26.1-14.7c0-8.1-9-10.7-20.9-10.7c-8.2,0-17.4,2.2-27,6.6c-7.7,3.1-13.7,0.9-16.7-5.2
	l-3.5-6.8c-3.1-6.6-1-12.9,5.4-16.7c12.4-7.7,29.6-10.1,42-10.1C151.8,126.9,176.9,137.9,176.9,166.6L176.9,166.6z M99.5,252.5
	c0-11.2,8.5-19.9,19.8-19.9s19.8,8.6,19.8,19.9s-8.5,19.3-19.8,19.3S99.5,263.8,99.5,252.5z"/>
<path class="st3" d="M154.4,132.8L144,146.3c-1.6,2,0.1,5,2.6,4.6l22.2-2.9c1.1-0.1,2.4-0.1,3.5-0.1
	C168.4,141.1,162.1,136.1,154.4,132.8z"/>
<path class="st4" d="M222.1,8.1c-36.2,2.9-65.6,32.2-68.5,68.5c-0.9,10.2,0.5,20,3.4,29.1c1.7,5.4,1,11.1-1.5,16.1l-12.4,24
	c-1.2,2.4,1,5.1,3.6,4.2L169,143c6.2-2,13.1-1,18.7,2.6c13.3,8.6,29.6,13.2,46.9,11.7c37.1-3.1,66.7-34,68.3-71.1
	C304.9,41.1,267.3,4.5,222.1,8.1L222.1,8.1z"/>
<circle class="st5" cx="197.1" cy="84.3" r="9.7"/>
<circle class="st5" cx="229.2" cy="84.3" r="9.7"/>
<circle class="st5" cx="261.3" cy="84.3" r="9.7"/>
</svg>
