<?xml version="1.0" encoding="utf-8"?>
<!-- Generator: Adobe Illustrator 28.2.0, SVG Export Plug-In . SVG Version: 6.00 Build 0)  -->
<svg version="1.1" id="Layer_1" xmlns="http://www.w3.org/2000/svg" xmlns:xlink="http://www.w3.org/1999/xlink" x="0px" y="0px"
	 viewBox="0 0 252 252" style="enable-background:new 0 0 252 252;" xml:space="preserve">
<style type="text/css">
	.st0{fill:#55057F;}
	.st1{fill:#660099;}
	.st2{fill:#F6B1CB;}
	.st3{fill:#EF6497;}
</style>
<g>
	<path class="st0" d="M221.4,248.4H30.6c-12.2,0-22.1-9.9-22.1-22.1V35.8c0-12.2,9.9-22.1,22.1-22.1h190.7
		c12.2,0,22.1,9.9,22.1,22.1v190.7C243.2,238.5,233.6,248.4,221.4,248.4z"/>
	<path class="st1" d="M221.4,239.6H30.6c-12.2,0-22.1-9.9-22.1-22.1V26.7c0-12.2,9.9-22.1,22.1-22.1h190.7
		c12.2,0,22.1,9.9,22.1,22.1v190.7C243.2,229.4,233.6,239.6,221.4,239.6z"/>
	<g>
		<g>
			<g>
				<path class="st1" d="M196.1,208H55.9c-7,0-12.8-5.7-12.8-12.8V54.9c0-7,5.7-12.8,12.8-12.8h140.2c7,0,12.8,5.7,12.8,12.8V195
					C208.8,202.3,203.1,208,196.1,208z M55.7,48.6c-3.4,0-6.3,2.9-6.3,6.3V195c0,3.4,2.9,6.3,6.3,6.3h140.2c3.4,0,6.3-2.9,6.3-6.3
					V54.9c0-3.4-2.9-6.3-6.3-6.3H55.7z"/>
			</g>
			<g>
				<path class="st1" d="M167.7,181.2H79.4c-5.5,0-9.9-4.2-9.9-9.9v-93c0-5.5,4.2-9.9,9.9-9.9h93.3c5.5,0,9.9,4.2,9.9,9.9v89.4
					c0,1-0.3,2.3-0.5,3.4C179.4,177.6,173.9,181.2,167.7,181.2z"/>
			</g>
			<g>
				<g>
					<g>
						<path class="st1" d="M69.7,48.6c-1.8,0-3.1-1.6-3.1-3.1V26.2c0-1.8,1.6-3.1,3.1-3.1c1.8,0,3.1,1.6,3.1,3.1v19
							C72.9,47.3,71.3,48.6,69.7,48.6z"/>
					</g>
					<g>
						<path class="st1" d="M107.2,48.6c-1.8,0-3.1-1.6-3.1-3.1V26.2c0-1.8,1.6-3.1,3.1-3.1c1.8,0,3.1,1.6,3.1,3.1v19
							C110.4,47.3,109.1,48.6,107.2,48.6z"/>
					</g>
					<g>
						<path class="st1" d="M144.8,48.6c-1.8,0-3.1-1.6-3.1-3.1V26.2c0-1.8,1.6-3.1,3.1-3.1c1.8,0,3.1,1.6,3.1,3.1v19
							C147.9,47.3,146.6,48.6,144.8,48.6z"/>
					</g>
					<g>
						<path class="st1" d="M182,48.6c-1.8,0-3.1-1.6-3.1-3.1V26.2c0-1.8,1.6-3.1,3.1-3.1c1.8,0,3.1,1.6,3.1,3.1v19
							C185.7,47.3,184.1,48.6,182,48.6z"/>
					</g>
				</g>
				<g>
					<g>
						<path class="st1" d="M69.7,227.1c-1.8,0-3.1-1.6-3.1-3.1v-19c0-1.8,1.6-3.1,3.1-3.1c1.8,0,3.1,1.6,3.1,3.1v19
							C72.9,225.5,71.3,227.1,69.7,227.1z"/>
					</g>
					<g>
						<path class="st1" d="M107.2,227.1c-1.8,0-3.1-1.6-3.1-3.1v-19c0-1.8,1.6-3.1,3.1-3.1c1.8,0,3.1,1.6,3.1,3.1v19
							C110.4,225.5,109.1,227.1,107.2,227.1z"/>
					</g>
					<g>
						<path class="st1" d="M144.8,227.1c-1.8,0-3.1-1.6-3.1-3.1v-19c0-1.8,1.6-3.1,3.1-3.1c1.8,0,3.1,1.6,3.1,3.1v19
							C147.9,225.5,146.6,227.1,144.8,227.1z"/>
					</g>
					<g>
						<path class="st1" d="M182,227.1c-1.8,0-3.1-1.6-3.1-3.1v-19c0-1.8,1.6-3.1,3.1-3.1c1.8,0,3.1,1.6,3.1,3.1v19
							C185.7,225.5,184.1,227.1,182,227.1z"/>
					</g>
				</g>
			</g>
			<g>
				<g>
					<g>
						<path class="st1" d="M224.7,72h-19c-1.8,0-3.1-1.6-3.1-3.1c0-1.6,1.6-3.1,3.1-3.1h19c1.8,0,3.1,1.6,3.1,3.1
							C227.9,70.5,226.6,72,224.7,72z"/>
					</g>
					<g>
						<path class="st1" d="M224.7,109.6h-19c-1.8,0-3.1-1.6-3.1-3.1c0-1.8,1.6-3.1,3.1-3.1h19c1.8,0,3.1,1.6,3.1,3.1
							C227.9,108,226.6,109.6,224.7,109.6z"/>
					</g>
					<g>
						<path class="st1" d="M224.7,147.1h-19c-1.8,0-3.1-1.6-3.1-3.1s1.6-3.1,3.1-3.1h19c1.8,0,3.1,1.6,3.1,3.1
							S226.6,147.1,224.7,147.1z"/>
					</g>
					<g>
						<path class="st1" d="M224.7,184.3h-19c-1.8,0-3.1-1.6-3.1-3.1s1.6-3.1,3.1-3.1h19c1.8,0,3.1,1.6,3.1,3.1
							C227.9,183,226.6,184.3,224.7,184.3z"/>
					</g>
				</g>
				<g>
					<g>
						<path class="st1" d="M46.3,72h-19c-1.8,0-3.1-1.6-3.1-3.1c0-1.6,1.6-3.1,3.1-3.1h19c1.8,0,3.1,1.6,3.1,3.1
							C49.4,70.5,48.1,72,46.3,72z"/>
					</g>
					<g>
						<path class="st1" d="M46.3,109.6h-19c-1.8,0-3.1-1.6-3.1-3.1c0-1.8,1.6-3.1,3.1-3.1h19c1.8,0,3.1,1.6,3.1,3.1
							C49.7,108,48.1,109.6,46.3,109.6z"/>
					</g>
					<g>
						<path class="st1" d="M46.3,147.1h-19c-1.8,0-3.1-1.6-3.1-3.1s1.6-3.1,3.1-3.1h19c1.8,0,3.1,1.6,3.1,3.1S48.1,147.1,46.3,147.1
							z"/>
					</g>
					<g>
						<path class="st1" d="M46.3,184.3h-19c-1.8,0-3.1-1.6-3.1-3.1s1.6-3.1,3.1-3.1h19c1.8,0,3.1,1.6,3.1,3.1
							C49.7,183,48.1,184.3,46.3,184.3z"/>
					</g>
				</g>
			</g>
		</g>
	</g>
	<path class="st2" d="M167.7,178.3H79.4c-5.5,0-9.9-4.2-9.9-9.9v-93c0-5.5,4.2-9.9,9.9-9.9h93.3c5.5,0,9.9,4.2,9.9,9.9v89.4
		c0,1-0.3,2.3-0.5,3.4C179.4,174.7,173.9,178.3,167.7,178.3z"/>
	<path class="st3" d="M224.7,106.4c1.8,0,3.1-1.6,3.1-3.1c0-1.8-1.6-3.1-3.1-3.1h-15.9v-31h15.9c1.8,0,3.1-1.6,3.1-3.1
		c0-1.6-1.6-3.1-3.1-3.1h-15.9V52.2c0-7-5.7-12.8-12.8-12.8h-10.7V23.9c0-1.8-1.6-3.1-3.1-3.1c-1.8,0-3.1,1.6-3.1,3.1v15.6h-31V23.9
		c0-1.8-1.6-3.1-3.1-3.1s-3.1,1.6-3.1,3.1v15.6h-31V23.9c0-1.8-1.6-3.1-3.1-3.1c-1.8,0-3.1,1.6-3.1,3.1v15.6H72.9V23.9
		c0-1.8-1.6-3.1-3.1-3.1c-1.6,0-3.1,1.6-3.1,3.1v15.6H55.9c-7,0-12.8,5.7-12.8,12.8v10.7H27.5c-1.8,0-3.1,1.6-3.1,3.1
		c0,1.6,1.6,3.1,3.1,3.1h15.6v31H27.5c-1.8,0-3.1,1.6-3.1,3.1c0,1.8,1.6,3.1,3.1,3.1h15.6v31H27.5c-1.8,0-3.1,1.6-3.1,3.1
		c0,1.8,1.6,3.1,3.1,3.1h15.6v31H27.5c-1.8,0-3.1,1.6-3.1,3.1c0,1.8,1.6,3.1,3.1,3.1h15.6v10.7c0,7,5.7,12.8,12.8,12.8h10.7v15.9
		c0,1.8,1.6,3.1,3.1,3.1c1.8,0,3.1-1.6,3.1-3.1v-15.9h31v15.9c0,1.8,1.6,3.1,3.1,3.1c1.8,0,3.1-1.6,3.1-3.1v-15.9h31v15.9
		c0,1.8,1.6,3.1,3.1,3.1c1.8,0,3.1-1.6,3.1-3.1v-15.9h31v15.9c0,1.8,1.6,3.1,3.1,3.1c1.8,0,3.4-1.6,3.1-3.1v-15.9h10.7
		c7,0,12.8-5.7,12.8-12.8V181H224c1.8,0,3.1-1.6,3.1-3.1c0-1.8-1.6-3.1-3.1-3.1h-15.9v-31H224c1.8,0,3.1-1.6,3.1-3.1
		c0-1.8-1.6-3.1-3.1-3.1h-15.9v-31C208.1,106.4,224.7,106.4,224.7,106.4z M202.3,192.2c0,3.4-2.9,6.3-6.3,6.3H55.9
		c-3.4,0-6.3-2.9-6.3-6.3V52c0-3.4,2.9-6.3,6.3-6.3h140.2c3.4,0,6.3,2.9,6.3,6.3V192.2z"/>
	<g>
		<path class="st3" d="M133.8,125.7c0.3-0.3,0.5-0.5,1-0.5c1.3-0.5,5.5-1.3,6.8-1.8c1.8-0.5,3.9-1.8,3.1-6c-1-4.2-5.2-3.1-5.2-3.1
			s-6.5,1.6-8.1,1.8c-1.3,0.3-1.8-0.8-1.8-0.8s-0.5-1.3,0.8-1.8c2.3-1.3,5.5-4.2,5.5-9.1c0-5-4.2-9.1-10.2-9.4
			c-6,0-10.4,5-10.2,10.4c0.5,5.5,4.7,7.8,5.5,7.8c0.5,0.3,0.8,0.8,0.5,1.8c0,0.5-0.5,0.5-0.8,0.8c-0.5,0-0.8,0-1,0
			c-0.8-0.3-3.1-0.8-7-1.8c-4.7-1-5.5,2.6-5.5,2.6l-0.5,1.8c-0.5,2.6,1.3,4.2,2.1,4.4c0.3,0.3,0.5,0.3,0.8,0.3
			c1.3,0.3,5.5,1.3,6.8,1.8c1.6,0.5,2.1,1,2.3,2.9c0.3,1.6-0.8,2.9-0.8,2.9c-1,1.3-6.5,7.8-7.6,9.1c-0.8,1-1.3,1.8-1.3,2.9
			c0,1.3,0.5,1.8,0.8,2.6c0.5,0.5,1.3,1.3,2.1,1.8s1.8,0.8,3.1,0.5c1.3-0.3,2.1-0.8,2.3-1.3c0.5-0.5,5.5-7,6-7.6
			c0.5-0.5,0.5-1,1.8-1c0.8,0,1.3,0.5,1.6,0.8c0,0,0,0.3,0.3,0.3c0.5,0.8,3.9,5,5.5,6.8c1.8,2.3,3.9,2.9,7,0.5c3.1-2.6,1-5.2,1-5.2
			s-6.5-7.8-7.8-9.4c-1-1.6-1-2.3-1-3.4C132.8,126.8,133.6,126.2,133.8,125.7L133.8,125.7z"/>
	</g>
</g>
</svg>
