<svg width="320" height="320" viewBox="0 0 320 320" fill="none" xmlns="http://www.w3.org/2000/svg">
<path fill-rule="evenodd" clip-rule="evenodd" d="M234.238 138.429C235.396 131.793 236 124.967 236 118C236 52.8304 183.17 0 118 0C52.8304 0 0 52.8304 0 118C0 183.17 52.8304 236 118 236C130.354 236 142.264 234.102 153.455 230.581C158.072 235.869 163.446 240.454 169.171 244.596L170.246 244.089C214 231.546 244.064 196.006 251.969 145.756C246.504 142.575 240.554 140.141 234.238 138.429Z" fill="#8533AD"/>
<path opacity="0.4" fill-rule="evenodd" clip-rule="evenodd" d="M198.545 240.009C226.907 240.009 249.985 216.93 249.985 188.569C249.962 160.186 226.907 137.129 198.545 137.129C170.185 137.129 147.106 160.209 147.106 188.569C147.106 216.93 170.185 240.009 198.545 240.009Z" fill="white"/>
<path fill-rule="evenodd" clip-rule="evenodd" d="M198.545 240.009C170.185 240.009 147.106 216.93 147.106 188.569C147.106 160.209 170.185 137.129 198.545 137.129C226.907 137.129 249.962 160.185 249.985 188.569C249.985 216.93 226.907 240.009 198.545 240.009ZM310.979 289.934L281.699 260.654C278.408 257.363 273.964 255.922 269.66 256.33L250.041 236.712C261.85 224.094 269.091 207.152 269.091 188.546C269.091 149.645 237.447 118 198.545 118C159.644 118 128 149.645 128 188.546C128 227.448 159.644 259.092 198.545 259.092C211.929 259.092 224.455 255.346 235.127 248.848L256.134 269.847C255.723 274.155 257.164 278.603 260.457 281.896L289.737 311.152C292.653 314.092 296.511 315.561 300.346 315.561C304.33 315.561 308.153 313.985 310.979 311.175C316.834 305.296 316.834 295.789 310.979 289.934Z" fill="#EF6497"/>
<path fill-rule="evenodd" clip-rule="evenodd" d="M310.979 289.933L281.7 260.654C278.408 257.363 273.964 255.922 269.66 256.33L250.041 236.711C245.654 241.399 240.639 245.492 235.127 248.847L256.134 269.846C255.723 274.155 257.164 278.603 260.457 281.896L289.737 311.152C292.653 314.091 296.511 315.561 300.345 315.561C304.331 315.561 308.153 313.984 310.979 311.175C316.834 305.296 316.834 295.789 310.979 289.933Z" fill="#BF5079"/>
<path fill-rule="evenodd" clip-rule="evenodd" d="M300.346 315.561C296.511 315.561 292.653 314.091 289.736 311.152L260.457 281.896C254.601 276.04 254.601 266.533 260.457 260.654C266.336 254.798 275.843 254.798 281.699 260.654L310.979 289.933C316.835 295.789 316.835 305.296 310.979 311.175C308.153 313.985 304.33 315.561 300.346 315.561Z" fill="#EB3D7D"/>
<path fill-rule="evenodd" clip-rule="evenodd" d="M191.485 153.201C187.03 153.201 187.054 146.312 191.485 146.312C195.918 146.312 195.918 153.201 191.485 153.201ZM207.491 155.979C219.456 159.906 228.481 169.436 231.902 181.538C233.097 185.81 239.756 183.995 238.539 179.701C234.452 165.233 223.589 154.004 209.329 149.343C205.103 147.965 203.289 154.602 207.491 155.979Z" fill="white"/>
<path fill-rule="evenodd" clip-rule="evenodd" d="M132.794 72.677C133.772 66.3112 128.386 61.4136 122.999 61.4136H111.244C106.346 61.4136 101.448 66.3112 101.448 72.677L104.876 124.102C105.366 129.979 109.284 133.897 114.671 133.897H120.059C125.447 133.897 129.364 130.469 129.854 124.102L132.794 72.677ZM117.121 143.692C108.306 143.692 101.938 150.55 101.938 159.365C101.938 168.18 108.306 174.546 117.121 174.546C125.937 174.546 132.304 168.18 132.304 159.365C132.304 150.55 125.937 143.692 117.121 143.692Z" fill="white"/>
<path fill-rule="evenodd" clip-rule="evenodd" d="M191.325 151.504L193.883 163.05L187.903 172.907L187.455 190.553L198.017 206.72L214.234 218.593L193.223 211.409L178.948 192.844L166.472 191.125L160.234 182.532L168.457 187.974L179.488 188.481L181.784 169.927L166.059 149.165L185.58 165.711L190.944 161.645L191.325 151.504Z" fill="#6A298A"/>
</svg>
