<?xml version="1.0" encoding="UTF-8"?>
<svg id="Camada_2" xmlns="http://www.w3.org/2000/svg" xmlns:xlink="http://www.w3.org/1999/xlink" version="1.1" viewBox="0 0 320 320">
  <!-- Generator: Adobe Illustrator 29.2.0, SVG Export Plug-In . SVG Version: 2.1.0 Build 22)  -->
  <defs>
    <style>
      .st0 {
        fill: #8533ad;
      }

      .st1 {
        fill: #ef6497;
      }

      .st2 {
        fill: #f7b1cb;
      }

      .st3 {
        fill: #6a298a;
      }

      .st4 {
        fill: #ceadde;
      }

      .st5 {
        fill: #a58ab2;
      }

      .st6 {
        fill: #fff;
      }

      .st7 {
        fill: #bf5079;
      }

      .st8 {
        fill: #5d2479;
      }

      .st9 {
        fill: #461e5f;
      }
    </style>
  </defs>
  <g>
    <path class="st0" d="M314.6,227.8v-1.3c0-1.3-.5-2.2-1.3-3.3-8.8-12.7-50.6-70.1-62.3-83.7-4-3.8-10.9-4.8-22.2-4.8h-17.3c-12.1,0-16.4,6.6-16.4,20.2s1,91.2,1,91.2c0,0,2,24.2,6.3,25.8.8.3,107.9,2,109.7-1,1.8-3,2.4-22.8,2.4-22.8v-5c0-6.1,0-11.8,0-15.3Z"/>
    <path class="st3" d="M314.6,241.3s.2,27.6-1.3,29.7c-1.7,1.8-4.5,2.9-7.3,3.1-3,.4-26.8.2-26.8.2,0,0-267.2-1.7-271.3-2.1s-5.7-3-5.8-6.8c0-.8-.4-17-.4-24.1h312.9Z"/>
    <path class="st4" d="M267.7,191.7h-54.1c-1.7,0-3-1.4-3-3v-36c0-2.7,2.2-5,5-5h18.7c5,0,9.6,2.4,12.7,6.5l23.6,32.1c1.7,2,.1,5.4-2.9,5.4Z"/>
    <path class="st3" d="M275.9,186.3c0,4.3-4.5,7.7-10,7.7s-10-3.5-10-7.7,4.5-7.7,10-7.7c5.5-.2,10,3.5,10,7.7Z"/>
    <path class="st2" d="M314.6,243.5h-2.8c-4.3,0-7.7-3.5-7.7-7.7s.8-4.1,2.3-5.5c1.4-1.4,3.4-2.3,5.5-2.3h2.8c0,3.3,0,9,0,15.5Z"/>
    <path class="st8" d="M87,272.9l-6.6-27.1c-.6-2.5-3-4.6-5.8-4.6H24.3c-2.7,0-5.2,1.9-5.8,4.6l-6.4,26.4,74.9.7Z"/>
    <polygon class="st5" points="231.5 191.7 256.4 166.8 254.4 164.1 226.8 191.7 231.5 191.7"/>
    <path class="st8" d="M300.2,274.3l-6.9-28.4c-.6-2.5-3-4.6-5.8-4.6h-50.5c-2.7,0-5.2,1.9-5.8,4.6l-6.8,28.1,75.8.3Z"/>
    <g>
      <circle class="st9" cx="262.2" cy="269.5" r="26"/>
      <circle class="st5" cx="262.1" cy="269.4" r="14.7"/>
      <circle class="st4" cx="262.1" cy="269.4" r="9.6"/>
    </g>
    <g>
      <circle class="st9" cx="49.6" cy="269.5" r="26"/>
      <circle class="st5" cx="49.6" cy="269.4" r="14.7" transform="translate(-221.8 306.7) rotate(-87.4)"/>
      <circle class="st4" cx="49.6" cy="269.4" r="9.6"/>
    </g>
  </g>
  <path class="st1" d="M165.2,224.9c-1.2.2-21.8,2.1-71.3,2.1s-71.1-1.8-72.1-2.1c-10.6-.8-18.8-9.7-18.8-20.4v-104.5c0-8.6,7-15.4,15.4-15.4h149.8c8.6,0,15.4,7,15.4,15.4v104.7c0,10.5-8.1,19.4-18.4,20.2Z"/>
  <path class="st7" d="M178,88.4v98.1c0,10-7.6,18.2-17.3,19.2-1.1.2-20.4,1.8-67.1,1.8s-66.9-1.8-67.9-1.8c-10-.8-17.8-9-17.8-19.2v-98.1c-3.2,2.8-5.3,7-5.3,11.6v104.7c0,10.8,8.3,19.6,18.8,20.4,1.1,0,22,2.1,72.1,2.1s70.1-1.8,71.3-2.1c10.4-1.1,18.4-9.7,18.4-20.2v-104.9c.3-4.7-1.8-8.9-5.2-11.6Z"/>
  <circle class="st6" cx="138.6" cy="113.9" r="2.8"/>
  <circle class="st6" cx="149.3" cy="113.9" r="2.8"/>
  <circle class="st6" cx="117.1" cy="113.9" r="2.8"/>
  <circle class="st6" cx="127.7" cy="113.9" r="2.8"/>
  <circle class="st6" cx="159.9" cy="113.9" r="2.8"/>
  <path class="st6" d="M33.7,175.5c0,.2,0,.4,0,.6h0c0,.1-3.3,6.1-3.3,6.1-.1.2-.2.4-.4.4-.1.1-.4.1-.6.1h-.8c-.2,0-.4-.1-.6-.1-.1-.1-.4-.2-.4-.4l-3.3-6h0c-.1-.3-.1-.5,0-.7s.2-.4.4-.4l.8-.4c.2-.1.4-.1.6,0s.4.4.6.6l2.1,4.3h0l2.1-4.3c.1-.2.4-.4.6-.6.2-.1.4-.1.6,0l1,.4c.3,0,.6.2.6.4Z"/>
  <path class="st6" d="M38,172.4c0,.2,0,.4,0,.6,0,.2-.2.4-.4.6,0,.1-.4.2-.6.4-.2.1-.4.1-.6.1s-.4,0-.6-.1c-.2-.1-.4-.2-.6-.4,0-.1-.4-.4-.4-.6,0-.2,0-.4,0-.6s0-.4,0-.6c0-.2.2-.4.4-.6,0-.1.4-.4.6-.4.2-.1.4-.1.6-.1s.4,0,.6.1c.2.1.4.2.6.4,0,.1.4.4.4.6s0,.3,0,.6ZM36.7,174.6c.4,0,.4.1.6.4.2.3.4.4.4.6v6.2c0,.4,0,.4-.4.6-.2.2-.4.4-.6.4h-.8c-.4,0-.4-.1-.6-.4-.2-.3-.4-.4-.4-.6v-6.2c0-.4,0-.4.4-.6.2-.2.4-.4.6-.4h.8Z"/>
  <path class="st6" d="M48.3,175.5c0,.2,0,.4,0,.6h0c0,.1-3.3,6.1-3.3,6.1,0,.2-.2.4-.4.4,0,.1-.4.1-.6.1h-.8c-.2,0-.4-.1-.6-.1,0-.1-.4-.2-.4-.4l-3.3-6h0c0-.3,0-.5,0-.7s.2-.4.4-.4l.8-.4c.2-.1.4-.1.6,0,.2.1.4.4.6.6l2.1,4.3h0l2.1-4.3c0-.2.4-.4.6-.6.2-.1.4-.1.6,0l.8.4c.6,0,.7.2.8.4Z"/>
  <path class="st6" d="M53.2,174.6c.6,0,1.1.1,1.6.4.4.2.8.4,1.3.8.4.4.6.8.8,1.3.2.4.4,1,.4,1.6s0,1.1-.4,1.6c-.2.6-.4.8-.8,1.3-.4.4-.8.6-1.3.8-.4.2-1,.4-1.6.4s-1.1-.1-1.6-.4c-.4-.2-.8-.4-1.3-.8-.5-.4-.6-.8-.8-1.3-.2-.6-.4-1-.4-1.6s0-1.1.4-1.6c.2-.4.4-.8.8-1.3.4-.4.8-.6,1.3-.8.4-.2,1-.4,1.6-.4ZM53.2,180.4c.2,0,.4,0,.6-.1.2-.1.4-.2.6-.4,0-.1.4-.4.4-.6,0-.2,0-.4,0-.6s0-.4,0-.6c0-.2-.2-.4-.4-.6,0-.1-.4-.4-.6-.4-.2-.1-.4-.1-.6-.1s-.4,0-.6.1c-.2.1-.4.2-.6.4,0,.1-.4.4-.4.6,0,.2,0,.4,0,.6s0,.4,0,.6c0,.2.2.4.4.6,0,.1.4.4.6.4,0,.1.3.1.6.1Z"/>
</svg>