<?xml version="1.0" encoding="utf-8"?>
<!-- Generator: Adobe Illustrator 28.1.0, SVG Export Plug-In . SVG Version: 6.00 Build 0)  -->
<svg version="1.1" id="Camada_1" xmlns="http://www.w3.org/2000/svg" xmlns:xlink="http://www.w3.org/1999/xlink" x="0px" y="0px"
	 viewBox="0 0 320 320" style="enable-background:new 0 0 320 320;" xml:space="preserve">
<style type="text/css">
	.st0{fill-rule:evenodd;clip-rule:evenodd;fill:#EB3D7D;}
	.st1{fill-rule:evenodd;clip-rule:evenodd;fill:#8533AD;}
	.st2{fill-rule:evenodd;clip-rule:evenodd;fill:#F4D7BA;}
	.st3{opacity:0.1;fill-rule:evenodd;clip-rule:evenodd;fill:#55057F;enable-background:new    ;}
	.st4{opacity:0.1;fill-rule:evenodd;clip-rule:evenodd;fill:#14001F;enable-background:new    ;}
	.st5{fill-rule:evenodd;clip-rule:evenodd;fill:#461E5F;}
	.st6{fill-rule:evenodd;clip-rule:evenodd;fill:#EF6497;}
	.st7{fill-rule:evenodd;clip-rule:evenodd;fill:#BF5079;}
	.st8{opacity:0.15;fill-rule:evenodd;clip-rule:evenodd;fill:#FFFFFF;enable-background:new    ;}
</style>
<path class="st0" d="M221,205.1c-8.9,8.1-22.9,7.3-30.8-1.9c-8.1-9-7.3-23.1,1.9-30.9c8.9-8.1,22.9-7.3,30.8,1.9
	C230.9,183.1,229.9,196.9,221,205.1z M245,141l-9.4,8.4c-1.6,1.4-3.5,1.6-5.1,0.5c-2.7-1.9-5.7-3-8.6-4.3c-1.9-0.8-3-2.4-3-4.3
	l0.8-12.5c0.3-2.2-1.9-4.3-4-4.6l-11.1-0.8c-2.2-0.3-4.3,1.9-4.6,4.1l-0.8,12.5c0,1.9-1.6,3.5-3.5,4.1c-3,0.8-6.2,1.9-8.9,3.3
	c-1.9,0.8-3.8,0.3-5.1-1.1l-8.4-9.5c-1.6-1.9-4.3-1.9-5.9-0.3l-8.4,7.6c-1.9,1.6-1.9,4.3-0.3,6l8.4,9.5c1.3,1.6,1.6,3.5,0.5,5.2
	c-1.9,2.7-3,5.7-4.3,8.7c-0.8,1.9-2.4,3-4.3,3l-12.4-0.8c-2.2-0.3-4.3,1.9-4.6,4.1l-0.8,11.1c-0.3,2.2,1.9,4.3,4,4.6l12.4,0.8
	c1.9,0,3.5,1.6,4,3.5c0.8,3,1.9,6.2,3.2,9c0.8,1.9,0.3,3.8-1.1,5.2l-9.2,8.1c-1.9,1.6-1.9,4.3-0.3,6l7.6,8.4
	c1.6,1.9,4.3,1.9,5.9,0.3l9.4-8.4c1.6-1.4,3.5-1.6,5.1-0.5c2.7,1.9,5.7,3,8.6,4.3c1.9,0.8,3,2.4,3,4.3l-0.8,12.8
	c-0.3,2.2,1.9,4.3,4,4.6l11.1,0.8c2.2,0.3,4.3-1.9,4.6-4.1l0.8-12.5c0-1.9,1.6-3.5,3.5-4.1c3-0.8,6.2-1.9,8.9-3.3
	c1.9-0.8,3.8-0.3,5.1,1.1l8.4,9.5c1.6,1.9,4.3,1.9,5.9,0.3l8.4-7.6c1.9-1.6,1.9-4.3,0.3-6l-8.4-10c-1.3-1.6-1.6-3.5-0.5-5.2
	c1.9-2.7,3-5.7,4.3-8.7c0.8-1.9,2.4-3,4.3-3l12.4,0.8c2.2,0.3,4.3-1.9,4.6-4.1l0.8-11.1c0.3-2.2-1.9-4.3-4-4.6l-12.4-0.8
	c-1.9,0-3.5-1.6-4-3.5c-0.8-3-1.9-6.2-3.2-9c-0.8-1.9-0.3-3.8,1.1-5.2l9.4-8.4c1.9-1.6,1.9-4.3,0.3-6l-7.6-8.4
	C249.6,139.7,246.6,139.4,245,141z"/>
<path class="st1" d="M282.4,286.1c-3.8,1.6-8.4,0-10-3.8c-1.6-3.8,0-8.4,3.8-10c3.8-1.6,8.4,0,10,3.8
	C287.9,279.6,286.3,284.2,282.4,286.1z M308.8,259.8l-6.5,2.9c-1.1,0.4-2,0.1-2.8-0.8c-1.3-1.4-2.6-2.7-4-3.8
	c-0.9-0.6-1.1-2-0.9-2.9l2.5-6.7c0.3-1.2-0.3-2.8-1.5-3.1l-6.1-2.3c-1.2-0.3-2.8,0.2-3.1,1.5l-2.5,6.7c-0.3,0.9-1.5,1.6-2.5,1.7
	c-2-0.2-3.7,0-5.4,0.2c-1,0.1-2.2-0.6-2.6-1.4l-2.9-6.5c-0.7-1.2-1.8-1.9-3.4-1.3l-5.8,2.8c-1.2,0.7-1.8,1.8-1.3,3.4l2.9,6.5
	c0.4,1.1,0.1,2-0.8,2.8c-1.4,1.3-2.7,2.6-3.8,4c-0.6,0.9-2,1.1-2.9,0.9l-6.5-3.1c-1.3-0.3-2.8,0.3-3.1,1.5l-2.3,5.8
	c-0.3,1.2,0.3,2.8,1.5,3.1l6.7,2.5c0.9,0.3,1.6,1.5,1.7,2.5c-0.2,2,0,3.7,0.2,5.4c0.1,1-0.6,2.2-1.4,2.6l-6.5,2.9
	c-1.2,0.7-1.9,1.8-1.3,3.4l2.8,5.8c0.7,1.2,1.8,1.9,3.4,1.3l6.5-2.9c1.1-0.4,2-0.1,2.8,0.8c1.3,1.4,2.6,2.7,4,3.8
	c0.9,0.6,1.1,2,0.9,2.9l-2.5,6.7c-0.3,1.2,0.2,2.8,1.5,3.1l6.1,2.3c1.3,0.3,2.8-0.3,3.1-1.5l2.5-6.7c0.3-0.9,1.5-1.6,2.5-1.7
	c2,0.2,3.7,0,5.4-0.2c1-0.1,2.2,0.6,2.6,1.4l2.9,6.5c0.7,1.2,1.8,1.8,3.4,1.3l5.8-2.8c1.2-0.7,1.8-1.8,1.3-3.4l-2.9-6.5
	c-0.4-1.1-0.1-2,0.8-2.8c1.4-1.3,2.7-2.6,3.8-4c0.6-0.9,2-1.1,2.9-0.9l6.7,2.5c1.3,0.3,2.8-0.3,3.1-1.5l2.3-6.1
	c0.3-1.2-0.3-2.8-1.5-3.1l-6.7-2.5c-0.9-0.3-1.6-1.5-1.7-2.5c0.2-2,0-3.7-0.2-5.4c-0.1-1,0.6-2.2,1.4-2.6l6.5-2.9
	c1.2-0.7,1.8-1.8,1.3-3.3l-2.8-5.8C311.4,259.8,310,259.1,308.8,259.8z"/>
<path class="st2" d="M147.2,115.4c1.7-13.3,1.1-27-3.6-39.8c-13.9-37-51.4-45.9-79.3-34.5c-41.7,17-26.1,36.2-33.7,66.5
	c-3.3,16.1-10.8,22.2-4.7,25.6c3.1,1.7,7-0.3,9.5,1.7c1.7,1.4,9.5,36.7,12.5,39.8c5.6,5.6,18.4,5,25.3,4.2c3.2-0.4,6.3-0.8,9.5-1.4
	c0.5,20.6-1.6,31.2-3.6,36.4c-8.6,22.7,1.3,50.5,22.7,45.8c14.2-3.3,46.3-15.1,36.6-50.8c0,0-4.2-13.6-5.3-22
	c-1.3-11.2-1.6-23.6-1.3-35.5C140.1,141.2,145.3,128.7,147.2,115.4z"/>
<path class="st3" d="M82.7,177.4c0,0.4,0,0.8,0,1.2c0.2,14-0.7,23.2-2,29.2c3.7-2.2,10.3-9.3,12.2-12.1c6.5-8.4,14.1-18.6,21-29.5
	C104.5,171.8,93.7,175.3,82.7,177.4z"/>
<path class="st1" d="M165.2,213c-9.2-3.2-17.7-4.7-27.3-5.3c0.2,0.7,0.4,1.2,0.4,1.2c2.5,10-3.1,20.3-17.2,23.6
	c-21.4,4.7-35-1.9-39.5-7.5c-2.8-3.3-3.1-8.9-2.5-11.1c0.4-1.4,0.8-3.2,1.3-5.4c-40.7,1.6-76.1,10-76.1,75.7
	c0,22.8,43.7,28.9,92.1,28.6c48.4-0.3,108.7,2.2,109.6-20.9C207.2,254.5,205.8,226.9,165.2,213z"/>
<path class="st4" d="M138,208.1c0.1,0.5,0.2,0.7,0.2,0.7c2.5,10-3.1,20.3-17.2,23.6c-21.4,4.7-35-1.9-39.5-7.5
	c-2.8-3.3-3.1-8.9-2.5-11.1c0.3-1.4,0.8-3.1,1.2-5.2c-2.6,2.6-8.9,10.6,0.2,20.8c10,11.1,40,14.2,55.3,0.6c5-4.4,6.1-10,5.8-13.6
	C141.5,212.8,139.7,210,138,208.1z"/>
<path class="st5" d="M34.8,30.9c-5.8,4.7-10,10.8-11.4,18.9c-1.9,12.5,7.8,23.6,16.7,31.1c5.6,4.7,26.4,11.4,15.6-3.3
	c9.2,1.7,18.4,2.2,27.5,1.4c1.7,0,2.8,1.1,3.3,2.5c5.6,15.9,6.4,18.4,6.1,27.3c-0.3,5.3-0.8,7,1.1,9.5c1.1,1.4,2.8,1.9,4.7,1.9
	c1.7,0,3.3-0.6,5-1.1c0.6-5,0.6-11.4,4.2-15c3.6-2.8,8.9-3.1,12.8-0.8c5.8,3.6,7,12.5,6.1,18.6c-0.8,5.3-1.9,10.3-1.9,15.6
	c0,2.8,1.1,7,2.5,9.5c0.3,0.6,0.6,1.4,0.8,2.2c1.1,2.8,4.2,4.7,7.2,3.9c1.1-0.3,2.5-0.6,3.1-0.6c5.8,0.3,10.6-10.6,13.3-14.7
	c4.4-6.7,8.3-14.2,11.1-21.7c6.1-15,9.2-31.4,8.9-47.6c-0.3-12-3.1-25-17.2-26.7c-0.6,0-1.4,0-1.9-0.3c-1.1-0.6-1.7-2.2-1.9-3.6
	C147.7,27,136,22.2,126,19.7c-22.8-5.8-47-5.6-69.8,0.6C49,22.5,41.2,25.6,34.8,30.9z"/>
<path class="st6" d="M312.6,183.5c-0.4-2.3-2.5-4.1-4.8-3.8h-5.2c-1.3-0.2-2.5,0.4-3.4,1.3l-4.8,4.8c-1.3,1.3-2.7,2.2-4.2,2.7
	c-0.7-0.3-1.3-0.6-1.9-1.1c-3.6-2.9-4.1-8.3-1.1-11.8l0.5-0.5l5.9-5.9c1.8-1.6,1.8-4.5,0-6.1c-0.9-0.7-1.8-1.3-2.7-1.3
	c-0.2,0-0.5-0.1-0.7-0.1c-0.4,0-0.7-0.1-1.1-0.1c-0.1,0-0.2,0-0.4,0c0,0-0.1,0-0.1,0c-0.3,0-0.5,0-0.8,0h-6.3
	c-1.4,0-2.9,0.2-4.3,0.5c-10,2-17.9,10-19.6,20.3c-0.2,1.3-0.4,2.5-0.4,3.8c-0.2,3.9-1.8,7.9-4.7,10.6L193,256.4
	c-2.9,2.9-6.6,4.7-10.8,4.7c-1.3,0-2.5,0.2-3.8,0.4c-10.2,1.6-18.3,9.5-20.3,19.6c-0.5,2.5-0.5,5-0.4,7.5c0.2,2.2,2.2,3.9,4.5,3.8
	h4.8c0.5,0.2,1.1,0.2,1.7,0.2c1.1-0.2,2-0.5,2.7-1.4l5.9-5.9c0.8-0.8,1.8-1.5,2.9-1.9c1.1,0.4,2,1,2.9,1.9l0.5,0.5
	c2.7,3.4,2.3,8.4-0.9,11.5l-5.6,5.6c-1.8,1.6-1.8,4.5,0,6.1c0.7,0.7,1.6,1.1,2.5,1.3c1.7,0.2,3.4,0.2,5,0c0.3,0.1,0.7,0.2,1.1,0.3
	c2.5,0.4,5,0.2,7.5-0.4c10-2,17.9-10,19.6-20.3c0.2-1.6,0.4-3.4,0.4-5c-0.2-2.9,1.1-5.7,3-7.7l62.8-63c2-2.2,4.8-3.2,7.7-3
	c13.6,0.5,25.1-10,25.6-23.7C312.8,186.1,312.8,184.8,312.6,183.5z"/>
<path class="st7" d="M277.3,162.2c-10,2-17.9,10-19.6,20.3c-0.2,1.3-0.4,2.5-0.4,3.8c-0.2,3.9-1.8,7.9-4.7,10.6L193,256.4
	c-2.9,2.9-6.6,4.7-10.8,4.7c-1.3,0-2.5,0.2-3.8,0.4c-10.2,1.6-18.3,9.5-20.3,19.5c-0.5,2.5-0.5,5-0.4,7.5c0.2,2.2,2.2,3.9,4.5,3.8
	h4.8c-1.7-0.5-3-2-3.2-3.8c-0.2-2.5-0.2-5,0.4-7.5c2-10,10-17.9,20.3-19.5c1.3-0.2,2.5-0.4,3.8-0.4c3.9,0,7.9-1.8,10.6-4.7
	l59.9-59.5c2.9-2.7,4.5-6.6,4.7-10.6c0-1.3,0.2-2.5,0.4-3.8c1.6-10.2,9.5-18.3,19.6-20.3c1.5-0.3,3-0.5,4.5-0.5h-6.3
	C280.1,161.7,278.7,161.8,277.3,162.2z M299.1,181c0.9-0.9,2.2-1.4,3.4-1.3h5.2c-0.9,0.2-1.8,0.5-2.5,1.3l-4.8,4.8
	c-3.1,3.1-7.1,4-10.3,2.7c1.5-0.5,2.9-1.4,4.2-2.7L299.1,181z M180.2,283.2c3-1.2,6.6-0.5,9,1.9l0.5,0.5c2.7,3.4,2.3,8.4-0.9,11.5
	l-5.6,5.9c-1.8,1.6-1.8,4.5,0,6.1c0.4,0.4,0.9,0.7,1.5,0.9c-1.7,0.2-3.4,0.2-5,0c-0.9-0.2-1.8-0.5-2.5-1.3c-1.8-1.6-1.8-4.5,0-6.1
	l5.6-5.6c3.2-3.1,3.6-8.1,0.9-11.5l-0.5-0.5C182.3,284.2,181.3,283.6,180.2,283.2z M217.1,264.6l46.7-46.7c2.2-2.2,2.2-5.6,0-7.8
	c-2.2-2.2-5.6-2.2-7.8,0l-46.6,46.6c-2.2,2.1-2.2,5.5-0.1,7.7c0,0,0.1,0.1,0.1,0.1c1.1,1.1,2.5,1.6,4.1,1.6
	C214.8,266.2,216.1,265.6,217.1,264.6z M207.4,254.9l46.6-46.6c3.2-3.2,8.4-3.2,11.6,0c3.2,3.2,3.2,8.4,0,11.6L219,266.5
	c-1.4,1.5-3.4,2.4-5.6,2.4h-0.1c-2.2,0-4.3-0.9-5.9-2.4C204.2,263.3,204.2,258.1,207.4,254.9z"/>
<path class="st8" d="M284.4,163.9c0.7-0.1,1.4,0.3,1.6,1.1c0.1,0.7-0.3,1.4-1.1,1.6c-8,1.5-14.2,8-15.6,16.1
	c-0.1,0.6-0.7,1.1-1.3,1.1c-0.1,0-0.1,0-0.2,0c-0.7-0.1-1.2-0.8-1.1-1.5C268.1,173,275.3,165.6,284.4,163.9z M302.3,188.2
	c0.5-0.5,1.4-0.5,1.9,0c0.5,0.5,0.5,1.4,0,1.9c-3.2,3.2-7.2,4.9-10.9,4.9c-2.7,0-5.3-0.9-7.6-2.7c-0.6-0.5-0.7-1.3-0.2-1.9
	c0.5-0.6,1.3-0.7,1.9-0.2C291.6,193.6,297.7,192.7,302.3,188.2z M184.3,264.7c-9,1.5-16.2,8.5-18,17.4c-0.3,2-0.6,4.3-0.2,6.7
	c0.1,0.7,0.7,1.1,1.3,1.1c0.1,0,0.1,0,0.2,0c0.7-0.1,1.2-0.8,1.1-1.5c-0.3-2.1-0.1-4.1,0.2-5.8c1.5-7.8,7.8-13.9,15.8-15.2
	c0.7-0.1,1.2-0.8,1.1-1.6C185.7,265.1,185,264.6,184.3,264.7z M192.8,287.3c-0.5-0.6-0.4-1.4,0.2-1.9c0.6-0.5,1.4-0.4,1.9,0.2
	c3.1,4,2.7,9.8-1,13.3l-5.5,5.5c-0.3,0.3-0.6,0.4-1,0.4c-0.3,0-0.7-0.1-1-0.4c-0.5-0.5-0.5-1.4,0-1.9l5.6-5.6
	C194.7,294.5,195.1,290.2,192.8,287.3z"/>
</svg>
