<?xml version="1.0" encoding="utf-8"?>
<!-- Generator: Adobe Illustrator 28.1.0, SVG Export Plug-In . SVG Version: 6.00 Build 0)  -->
<svg version="1.1" id="Camada_1" xmlns="http://www.w3.org/2000/svg" xmlns:xlink="http://www.w3.org/1999/xlink" x="0px" y="0px"
	 viewBox="0 0 320 320" style="enable-background:new 0 0 320 320;" xml:space="preserve">
<style type="text/css">
	.st0{fill:#F06496;}
	.st1{fill-rule:evenodd;clip-rule:evenodd;fill:#8533AD;}
	.st2{fill-rule:evenodd;clip-rule:evenodd;fill:#5D2479;}
	.st3{fill-rule:evenodd;clip-rule:evenodd;fill:#4A1D61;}
	.st4{fill-rule:evenodd;clip-rule:evenodd;fill:#F7B1CB;}
	.st5{fill-rule:evenodd;clip-rule:evenodd;fill:#6A298A;}
</style>
<path class="st0" d="M315.4,201.6c-2.5-7.8-6.2-15.1-11.2-21.6c-1.4-1.8-4-2.2-5.9-0.8c-1.8,1.4-2.2,4-0.8,5.9
	c4.4,5.6,7.7,12.1,9.8,18.9c2.1,6.8,3.1,13.9,2.7,21.1s-1.9,14.3-4.6,20.9c-2.7,6.7-6.7,12.7-11.5,18c-9.7,10.6-23,17.7-37.2,19.5
	c-7.1,0.9-14.3,0.6-21.3-0.9c-3.4-0.8-6.8-1.8-10.2-3.2c-0.7-0.3-1.4-0.6-2-0.9l8.4-1.9c2.2-0.5,3.7-2.8,3.2-5.1
	c-0.5-2.2-2.8-3.7-5.1-3.2l-18.6,4.3c-2.2,0.5-3.7,2.8-3.2,5.1l4.3,18.6c0.5,2,2.2,3.3,4.2,3.3c0.3,0,0.6,0,0.9-0.1
	c2.2-0.5,3.7-2.8,3.2-5.1l-2-8.8c1.2,0.6,2.4,1.1,3.6,1.6c3.8,1.5,7.6,2.7,11.6,3.6c8,1.7,16.3,2.1,24.3,0.9c8.1-1,16-3.5,23.2-7.4
	c7.2-3.8,13.8-8.8,19.2-14.8c5.5-6.1,9.9-13,13-20.5c3.2-7.5,4.9-15.6,5.2-23.7C318.9,217.5,317.9,209.4,315.4,201.6z"/>
<path class="st0" d="M2,95.3c0.1,8.2,1.6,16.3,4.5,23.9c0.8,2.1,3.2,3.3,5.4,2.5c2.1-0.8,3.3-3.2,2.5-5.4
	c-2.5-6.7-3.9-13.8-3.9-20.9c-0.1-7.1,1.1-14.2,3.5-21s6-13.1,10.5-18.6C29,50,34.6,45.4,40.7,41.7C53,34.4,67.9,31.4,82,33.9
	c7.1,1.2,13.8,3.6,20.1,7c3.1,1.7,6,3.7,8.8,6c0.6,0.5,1.1,1,1.7,1.5l-8.6-0.6c-2.3-0.2-4.3,1.6-4.5,4c-0.2,2.3,1.6,4.3,4,4.5
	l19.1,1.3c2.3,0.2,4.3-1.6,4.5-4l1.3-19.1c0.1-2-1.2-3.8-3-4.4c-0.2-0.1-0.6-0.2-0.9-0.2c-2.3-0.2-4.3,1.6-4.5,4l-0.6,9
	c-1-0.9-1.9-1.7-2.9-2.6c-3.2-2.6-6.5-4.8-10.1-6.8c-7.1-3.9-15-6.7-23-8C75.2,24.1,67,24.2,59,25.8c-8,1.5-15.7,4.4-22.7,8.6
	S23,44,17.9,50.3C12.7,56.5,8.7,63.7,6,71.4C3.3,79,1.9,87.1,2,95.3z"/>
<path class="st1" d="M253.4,175.6h-13.9h-177H48.6c-5.3,0-9.6,4.3-9.6,9.6v38.5c0,5.3,4.3,9.6,9.6,9.6h13.9h177h13.9
	c5.3,0,9.5-4.3,9.6-9.6v-38.5C263,179.9,258.7,175.6,253.4,175.6z"/>
<path class="st2" d="M186.8,233.3h52.7h7.3v3.7c0.1,1.8-1.4,3.3-3.3,3.3h-10.7h-32h-10.7c-1.9,0-3.3-1.5-3.3-3.3V233.3z M58.3,233.3
	h4.2h55.8v3.7c0,1.8-1.5,3.3-3.3,3.3h-10.8h-32H61.6c-1.9,0-3.3-1.5-3.3-3.3V233.3z"/>
<path class="st3" d="M186.8,233.3h10.7v3.7c0,1.8,1.4,3.3,3.3,3.3h-10.7c-1.9,0-3.3-1.5-3.3-3.3V233.3z M58.3,233.3h4.2H69v3.7
	c0,1.8,1.4,3.3,3.3,3.3H61.6c-1.9,0-3.3-1.5-3.3-3.3V233.3z"/>
<path class="st1" d="M82.3,78.6h2.9c1.4,0,2.6,1.1,2.6,2.6v94.4h-8.1V81.2C79.7,79.8,80.9,78.6,82.3,78.6z M228,175.6h8.1V81.2
	c0-1.4-1.1-2.6-2.6-2.6h-2.9c-1.4,0-2.6,1.1-2.6,2.6V175.6z M202.1,204.5h-11.7c-0.5,0-0.9,0.4-0.9,0.9v1.1c0,0.5,0.4,0.9,0.9,0.9
	h11.7c0.5,0,0.9-0.4,0.9-0.9v-1.1C203.1,204.9,202.6,204.5,202.1,204.5z M237.3,204.5h-11.7c-0.5,0-0.9,0.4-0.9,0.9v1.1
	c0,0.5,0.4,0.9,0.9,0.9h11.7c0.5,0,0.9-0.4,0.9-0.9v-1.1C238.2,204.9,237.8,204.5,237.3,204.5z"/>
<path class="st4" d="M82.5,195.5c-4.9,0-9,4-9,9s4,9,9,9c4.9,0,9-4,9-9S87.5,195.5,82.5,195.5z"/>
<path class="st4" d="M167.4,204.5h-11.7c-0.5,0-0.9,0.4-0.9,0.9v1.1c0,0.5,0.4,0.9,0.9,0.9h11.7c0.5,0,0.9-0.4,0.9-0.9v-1.1
	C168.3,204.9,167.9,204.5,167.4,204.5z M219.7,204.5H208c-0.5,0-0.9,0.4-0.9,0.9v1.1c0,0.5,0.4,0.9,0.9,0.9h11.7
	c0.5,0,0.9-0.4,0.9-0.9v-1.1C220.6,204.9,220.2,204.5,219.7,204.5z M172.9,204.5h11.7c0.5,0,0.9,0.4,0.9,0.9v1.1
	c0,0.5-0.4,0.9-0.9,0.9h-11.7c-0.5,0-0.9-0.4-0.9-0.9v-1.1C172,204.9,172.4,204.5,172.9,204.5z"/>
<path class="st5" d="M52.9,223.7v-38.5c0-5.3,4.3-9.6,9.6-9.6H48.6c-5.3,0-9.6,4.3-9.6,9.6v38.5c0,5.3,4.3,9.6,9.6,9.6h13.9
	C57.2,233.3,52.9,229,52.9,223.7z"/>
</svg>
