<?xml version="1.0" encoding="utf-8"?>
<!-- Generator: Adobe Illustrator 28.2.0, SVG Export Plug-In . SVG Version: 6.00 Build 0)  -->
<svg version="1.1" id="Camada_1" xmlns="http://www.w3.org/2000/svg" xmlns:xlink="http://www.w3.org/1999/xlink" x="0px" y="0px"
	 viewBox="0 0 320 320" style="enable-background:new 0 0 320 320;" xml:space="preserve">
<style type="text/css">
	.st0{fill-rule:evenodd;clip-rule:evenodd;fill:#8533AD;}
	.st1{fill-rule:evenodd;clip-rule:evenodd;fill:#DDDDDD;}
	.st2{opacity:0.1;fill-rule:evenodd;clip-rule:evenodd;fill:#FFFFFF;enable-background:new    ;}
	.st3{fill-rule:evenodd;clip-rule:evenodd;fill:#5D2479;}
	.st4{fill-rule:evenodd;clip-rule:evenodd;fill:#EF6497;}
	.st5{opacity:0.15;fill-rule:evenodd;clip-rule:evenodd;fill:#14001F;enable-background:new    ;}
	.st6{fill-rule:evenodd;clip-rule:evenodd;fill:#6A298A;}
</style>
<path class="st0" d="M318.3,250.3L318.3,250.3L318.3,250.3L318.3,250.3l-30.5-50.1c-1.7-2.9-6.2-4.7-6.2-4.7c1.8,0,3.3-1.5,3.3-3.3
	V40.3c0-1.8-1.5-3.3-3.3-3.3H39.8c-1.8,0-3.3,1.5-3.3,3.3v151.9c0,1.8,1.5,3.3,3.3,3.3c0,0-4.5,1.8-6.2,4.7L3,250.3h0v0l0,0h0v6.8
	c0,1.6,1.3,2.9,2.9,2.9h309.6c1.6,0,2.8-1.3,2.8-2.8L318.3,250.3L318.3,250.3z"/>
<path class="st1" d="M273.5,185.6H47.8c-0.7,0-1.2-0.5-1.2-1.2V49.5c0-0.7,0.5-1.2,1.2-1.2h225.7c0.7,0,1.2,0.5,1.2,1.2v134.9
	C274.7,185.1,274.2,185.6,273.5,185.6z"/>
<path class="st2" d="M4.2,248.3l-1.2,2h315.3l-1.2-2H4.2z"/>
<path class="st3" d="M36,223.6h247.9c3.4,0,5.5-3.7,3.7-6.6l-9.5-15.6c-0.8-1.3-2.2-2.1-3.7-2.1H45.5c-1.5,0-2.9,0.8-3.7,2.1
	L32.3,217C30.5,219.9,32.6,223.6,36,223.6z M178,227.5h-36.1c-1.7,0-3.2,1-3.8,2.6l-3.5,9c-1,2.7,0.9,5.6,3.8,5.6h43.1
	c2.9,0,4.9-2.9,3.8-5.6l-3.5-9C181.2,228.5,179.7,227.5,178,227.5z M3,257.1v-6.8h315.3v6.9c0,1.6-1.3,2.8-2.8,2.8H5.9
	C4.3,260,3,258.7,3,257.1z"/>
<path class="st4" d="M150.9,150.9c-2.2-0.1-4.4-1-6-2.5l-0.3-0.3l-22.8-22.8c-3.7-3.7-3.7-9.7,0-13.4c3.6-3.6,9.5-3.7,13.2-0.2
	l0.3,0.2l16.1,16.1l39-39c3.6-3.6,9.5-3.7,13.2-0.2l0.3,0.2c3.6,3.6,3.7,9.5,0.2,13.2l-0.2,0.3L158,148.1c-1.7,1.7-3.9,2.7-6.3,2.8
	l-0.4,0L150.9,150.9z"/>
<path class="st0" d="M119.3,114.5H7.4c-3.4,0-6.2,2.8-6.2,6.2v151.9c0,3.4,2.8,6.2,6.2,6.2h111.9c3.4,0,6.2-2.8,6.2-6.2V120.8
	C125.6,117.3,122.8,114.5,119.3,114.5z"/>
<path class="st5" d="M7.4,114.5H12c-3.4,0-6.2,2.8-6.2,6.2v151.9c0,3.4,2.8,6.2,6.2,6.2H7.4c-3.4,0-6.2-2.8-6.2-6.2V120.8
	C1.2,117.3,4,114.5,7.4,114.5z M61.6,269.8c0-2.2,1.8-4.1,4.1-4.1c2.2,0,4.1,1.8,4.1,4.1c0,2.2-1.8,4.1-4.1,4.1
	C63.4,273.9,61.6,272,61.6,269.8z"/>
<path class="st1" d="M114.4,260.6H16.9c-2.3,0-4.2-1.9-4.2-4.2V125.6c0-2.3,1.9-4.2,4.2-4.2h97.6c2.3,0,4.2,1.9,4.2,4.2v130.7
	C118.7,258.7,116.8,260.6,114.4,260.6z"/>
<path class="st4" d="M60.2,214.3c-1.7-0.1-3.3-0.7-4.6-1.9l-0.2-0.2l-17.3-17.3c-2.8-2.8-2.8-7.4,0-10.2c2.7-2.7,7.2-2.8,10-0.2
	l0.2,0.2l12.2,12.2l29.5-29.5c2.7-2.7,7.2-2.8,10-0.2l0.2,0.2c2.7,2.7,2.8,7.2,0.2,10l-0.2,0.2l-34.6,34.6c-1.3,1.3-3,2-4.8,2.1
	l-0.3,0L60.2,214.3z"/>
<path class="st0" d="M159.9,176.5c0-5.8-4.7-10.5-10.5-10.5l-39.8,0c-0.5,0-1,0-1.5,0.1l-2.5,0c-5.8,0-10.5,4.7-10.5,10.5l0,104.7
	c0,5.8,4.7,10.5,10.5,10.5h43.8c5.8,0,10.5-4.8,10.5-10.7L159.9,176.5z"/>
<path class="st1" d="M148.6,170.7l-3.9,0c-0.6,0-1.1,0.5-1.1,1.1l0,1.6c0,1.2-1,2.3-2.3,2.3l-23.8,0c-1.2,0-2.3-1-2.3-2.3l0-1.6
	c0-0.6-0.5-1.1-1.1-1.1l-3.9,0c-4.3,0-7.8,3.5-7.8,7.8l0,100.8c0,4.3,3.5,7.8,7.8,7.8l38.4,0c4.3,0,7.8-3.5,7.8-7.8l0-100.8
	C156.4,174.2,152.9,170.7,148.6,170.7z"/>
<path class="st6" d="M99,176.6l0,104.7c0,5.8,4.7,10.5,10.5,10.5l-4,0.1c-5.8,0-10.5-4.7-10.5-10.5l0-104.7
	c0-5.8,4.7-10.5,10.5-10.5l2.5,0C102.9,166.8,99,171.2,99,176.6z M135.3,171.7h-0.8c-0.2,0-0.3,0.1-0.3,0.3c0,0.2,0.1,0.3,0.3,0.3
	l0.8,0c0.2,0,0.3-0.1,0.3-0.3S135.5,171.7,135.3,171.7z M132.6,171.7l-6.7,0c-0.2,0-0.3,0.1-0.3,0.3c0,0.2,0.1,0.3,0.3,0.3l6.7,0
	c0.2,0,0.3-0.1,0.3-0.3C132.9,171.9,132.8,171.7,132.6,171.7z"/>
<path class="st4" d="M126.6,241.2c-0.8,0-1.6-0.4-2.2-0.9l-0.1-0.1l-8.3-8.3c-1.4-1.4-1.4-3.5,0-4.9c1.3-1.3,3.4-1.4,4.8-0.1
	l0.1,0.1l5.9,5.9l14.2-14.2c1.3-1.3,3.4-1.4,4.8-0.1l0.1,0.1c1.3,1.3,1.4,3.4,0.1,4.8l-0.1,0.1l-16.7,16.7c-0.6,0.6-1.4,1-2.3,1
	l-0.1,0L126.6,241.2z"/>
</svg>
