<?xml version="1.0" encoding="utf-8"?>
<!-- Generator: Adobe Illustrator 28.1.0, SVG Export Plug-In . SVG Version: 6.00 Build 0)  -->
<svg version="1.1" id="Layer_1" xmlns="http://www.w3.org/2000/svg" xmlns:xlink="http://www.w3.org/1999/xlink" x="0px" y="0px"
	 viewBox="0 0 320 320" style="enable-background:new 0 0 320 320;" xml:space="preserve">
<style type="text/css">
	.st0{fill:#6A298A;}
	.st1{fill:#8533AD;}
	.st2{fill:#DDDDDD;}
	.st3{fill:#791FA5;}
	.st4{fill:#F06497;}
	.st5{fill:#FFFFFF;}
</style>
<g>
	<path class="st0" d="M131.8,5.3H34.4C20.2,5.3,8.6,16.9,8.6,31.1l0.1,256.1c0,14.2,11.6,25.8,25.8,25.8h97.4
		c14.2,0,25.8-11.6,25.8-25.8l-0.1-256.1C157.6,16.8,146.1,5.3,131.8,5.3z"/>
	<path class="st1" d="M141.6,5H44.2C30,5.1,18.4,16.6,18.4,30.9L18.5,287c0,14.2,11.6,25.8,25.8,25.8h97.4
		c14.2,0,25.8-11.6,25.8-25.8l-0.1-256.1C167.4,16.6,155.8,5,141.6,5z"/>
	<g>
		<path class="st2" d="M139.7,16.5h-9.5c-1.6,0-2.8,1.3-2.8,2.8v4c0,3.1-2.5,5.5-5.5,5.5H63.8c-3.1,0-5.5-2.5-5.5-5.5v-4
			c0-1.6-1.3-2.8-2.8-2.8H46c-10.5,0-19,8.5-19,19l0.1,246.6c0,10.5,8.5,19,19,19H140c10.5,0,19-8.5,19-19l-0.1-246.6
			C158.7,25,150.2,16.5,139.7,16.5z"/>
		<path class="st3" d="M85.2,20.5h16.4c0.4,0,0.7-0.3,0.7-0.7c0-0.4-0.3-0.7-0.7-0.7H85.2c-0.4,0-0.7,0.3-0.7,0.7
			S84.8,20.5,85.2,20.5z"/>
		<path class="st3" d="M105.2,20.5h2c0.4,0,0.7-0.3,0.7-0.7c0-0.4-0.3-0.7-0.7-0.7h-2c-0.4,0-0.7,0.3-0.7,0.7S104.8,20.5,105.2,20.5
			z"/>
	</g>
</g>
<path class="st4" d="M213.9,254.3H105.7c-20.8,0-37.9-17-37.9-37.9V108.2c0-20.8,17-37.9,37.9-37.9h108.2c20.8,0,37.9,17,37.9,37.9
	v108.2C251.8,237.2,234.7,254.3,213.9,254.3z"/>
<path class="st5" d="M176.9,172.1c0.6-0.5,1.4-0.9,2.2-1.1c2.9-0.7,11.8-2.9,14.8-3.6c3.6-0.8,8.5-4.2,6.4-13s-10.8-7.1-10.8-7.1
	s-14.4,3.4-17.4,4.1c-3,0.7-3.7-1.8-3.7-1.8s-0.9-2.6,1.9-4c5-2.6,11.5-9.4,11.5-19.6s-9.3-20.1-22.1-20.1s-22.7,10.7-21.5,22.8
	s10.4,16.5,11.8,17.1c1.5,0.6,2.1,1.8,1.6,4c-0.2,1.1-1.2,1.6-2,1.8s-1.6,0.1-2.4-0.1c-1.8-0.5-7.1-1.8-15.3-3.7
	c-10.3-2.5-11.8,5.6-11.8,5.6l-0.9,3.5c-1.3,5.3,2.8,8.6,4.7,9.8c0.5,0.3,1,0.5,1.6,0.7c2.7,0.7,12.2,3,15,3.7
	c3.2,0.8,4.7,2.4,5,5.8c0.3,3.4-1.7,5.9-1.7,5.9c-2.2,2.7-14,17-16,19.2c-2,2.3-2.6,3.6-2.8,6.2c-0.2,2.6,1,4.2,1.8,5.3
	c0.7,1.1,2.8,2.8,4.5,4s4.3,1.7,6.6,1.4c2.4-0.3,4.5-2,5.3-3c0.8-0.9,12.2-15,13-16s1.5-2.2,3.8-2.4c1.9-0.1,3,1.3,3.3,1.9
	c0.1,0.2,0.2,0.3,0.4,0.5c1.4,1.7,8.5,10.4,12.2,14.8c4.2,4.9,8.2,6.1,15.2,0.8s2.1-11.2,2.1-11.2s-14.2-16.8-16.5-20.1
	s-2.3-5.1-2.2-7.3C174.6,174.5,175.9,173,176.9,172.1z"/>
</svg>
