<?xml version="1.0" encoding="UTF-8"?>
<svg xmlns="http://www.w3.org/2000/svg" version="1.1" viewBox="0 0 320 320">
  <defs>
    <style>
      .cls-1 {
        fill: #ef6497;
      }

      .cls-1, .cls-2, .cls-3, .cls-4 {
        fill-rule: evenodd;
      }

      .cls-2 {
        fill: #8533ad;
      }

      .cls-3 {
        fill: #4a1d61;
      }

      .cls-4 {
        fill: #321a4c;
        fill-opacity: .2;
      }
    </style>
  </defs>
  <!-- Generator: Adobe Illustrator 28.7.1, SVG Export Plug-In . SVG Version: 1.2.0 Build 142)  -->
  <g>
    <g id="Camada_1">
      <path class="cls-2" d="M290.6096738,80.9604319h-133.9195626v-38.2283908c0-3.6064516-2.885154-6.7320412-6.7320412-6.7320412H12.4320433c-3.6064516,0-6.7320429,2.8851631-6.7320429,6.7320412v269.7625825c0,1.562781,1.2021505,2.7649316,2.7649459,2.7649316h285.7511975c1.5627994,0,2.7649499-1.2021505,2.7649499-2.7649316V87.4520467c.120204-3.4862384-2.7649682-6.4916147-6.3714199-6.4916147Z"/>
      <path class="cls-1" d="M121.58731,59.8025843h10.9395681c.6010753,0,1.3223638.480862,1.3223638,1.3223638v28.6111773c0,.6010753-.480862,1.3223729-1.3223638,1.3223729h-10.9395681c-.6010753,0-1.3223638-.4808529-1.3223638-1.3223638v-28.6111773c.1202132-.7212977.7212885-1.3223729,1.3223638-1.3223729ZM66.5288163,105.1236559h-10.9395726c-.6010753,0-1.3223638.4808529-1.3223638,1.3223729v28.6111865c0,.6010753.480862,1.3223729,1.3223638,1.3223729h10.9395681c.6010753,0,1.3223638-.4808529,1.3223638-1.3223729v-28.6111865c.1202224-.7212977-.6010661-1.3223729-1.3223592-1.3223729ZM207.0602114,105.1236559h-10.9395772c-.6010753,0-1.3223729.4808529-1.3223729,1.3223729v28.6111865c0,.6010753.4808529,1.3223729,1.3223729,1.3223729h10.9395772c.6010753,0,1.3223729-.4808529,1.3223729-1.3223729v-28.6111865c-.1202224-.7212977-.6010753-1.3223729-1.3223729-1.3223729ZM251.1791325,149.1223729h-10.9395772c-.6010753,0-1.3223729.4808529-1.3223729,1.3223729v28.6111681c0,.6010753.4808529,1.3223729,1.3223729,1.3223729h10.9395772c.6010753,0,1.3223729-.4808529,1.3223729-1.3223729v-28.6111865c-.1202224-.7212793-.7212977-1.3223546-1.3223729-1.3223546ZM218.1199927,149.1223729h10.9395772c.6010753,0,1.3223729.4808529,1.3223729,1.3223729v28.6111681c0,.6010753-.4808529,1.3223729-1.3223729,1.3223729h-10.9395772c-.6010753,0-1.3223729-.4808529-1.3223729-1.3223729v-28.6111865c.0000183-.7212793.6010936-1.3223546,1.3223729-1.3223546ZM273.0582869,193.1210716h-10.9395772c-.6010753,0-1.3223729.4808529-1.3223729,1.3223729v28.6111865c0,.6010753.4808529,1.3223729,1.3223729,1.3223729h10.9395772c.6010753,0,1.3223729-.4808529,1.3223729-1.3223729v-28.6111865c-.0000183-.7212977-.6010936-1.3223729-1.3223729-1.3223729ZM196.0004301,237.2399927h10.9395772c.6010753,0,1.3223729.4808529,1.3223729,1.3223729v28.6111681c0,.6010753-.4808529,1.3223729-1.3223729,1.3223729h-10.9395772c-.6010753,0-1.3223729-.4808529-1.3223729-1.3223729v-28.6111865c.2404448-.7212793.7212977-1.3223546,1.3223729-1.3223546ZM110.5275288,59.8025843h-10.9395681c-.6010753,0-1.3223638.480862-1.3223638,1.3223638v28.6111773c0,.6010753.480862,1.3223729,1.3223638,1.3223729h10.9395681c.6010753,0,1.3223638-.4808529,1.3223638-1.3223638v-28.6111773c0-.7212977-.6010753-1.3223729-1.3223638-1.3223729ZM77.5886022,59.8025843h11.0597813c.6010753,0,1.3223638.480862,1.3223638,1.3223638v28.6111773c0,.6010753-.480862,1.3223729-1.3223638,1.3223729h-10.9395681c-.6010753,0-1.3223638-.4808529-1.3223638-1.3223638v-28.6111773c0-.7212977.480862-1.3223729,1.2021505-1.3223729ZM132.6471005,149.1223729h-10.9395681c-.6010753,0-1.3223638.4808529-1.3223638,1.3223729v28.6111681c0,.6010753.480862,1.3223729,1.3223638,1.3223729h10.9395681c.6010753,0,1.3223638-.4808529,1.3223638-1.3223729v-28.6111865c-.1202132-.7212793-.7212885-1.3223546-1.3223638-1.3223546ZM99.7081739,149.1223729h10.9395681c.6010753,0,1.3223638.4808529,1.3223638,1.3223729v28.6111681c0,.6010753-.480862,1.3223729-1.3223638,1.3223729h-10.9395681c-.6010753,0-1.3223638-.4808529-1.3223638-1.3223729v-28.6111865c0-.7212793.4808529-1.3223546,1.3223638-1.3223546ZM66.5288163,193.1210716h-10.9395726c-.6010753,0-1.3223638.4808529-1.3223638,1.3223729v28.6111865c0,.6010753.480862,1.3223729,1.3223638,1.3223729h10.9395681c.6010753,0,1.3223638-.4808529,1.3223638-1.3223729v-28.6111865c.1202224-.7212977-.6010661-1.3223729-1.3223592-1.3223729ZM99.7081739,237.2399927h10.9395681c.6010753,0,1.3223638.4808529,1.3223638,1.3223729v28.6111681c0,.6010753-.480862,1.3223729-1.3223638,1.3223729h-10.9395681c-.6010753,0-1.3223638-.4808529-1.3223638-1.3223729v-28.6111865c0-.7212793.4808529-1.3223546,1.3223638-1.3223546Z"/>
      <path class="cls-3" d="M55.5892483,59.8025843h10.9395726c.6010753,0,1.3223638.480862,1.3223638,1.3223638v28.6111773c0,.6010753-.480862,1.3223729-1.3223638,1.3223729h-10.9395681c-.6010753,0-1.3223638-.4808529-1.3223638-1.3223638v-28.6111773c-.0000092-.7212977.7212839-1.3223729,1.3223592-1.3223729ZM77.5886022,136.2593475h11.0597813c.6010753,0,1.3223638-.4808529,1.3223638-1.3223729v-28.6111865c0-.6010753-.480862-1.3223729-1.3223638-1.3223729h-10.9395681c-.6010753,0-1.3223638.4808529-1.3223638,1.3223729v28.6111865c0,.7212977.480862,1.3223729,1.2021505,1.3223729ZM228.9393475,136.2593475h-10.9395772c-.6010753,0-1.3223729-.4808529-1.3223729-1.3223729v-28.6111865c0-.6010753.4808529-1.3223729,1.3223729-1.3223729h10.9395772c.6010753,0,1.3223729.4808529,1.3223729,1.3223729v28.6111865c0,.7212977-.6010753,1.3223729-1.3223729,1.3223729ZM240.1193512,136.2593475h10.9395772c.6010753,0,1.3223729-.4808529,1.3223729-1.3223729v-28.6111865c0-.6010753-.4808529-1.3223729-1.3223729-1.3223729h-10.9395772c-.6010753,0-1.3223729.4808529-1.3223729,1.3223729v28.6111865c.0000183.7212977.6010936,1.3223729,1.3223729,1.3223729ZM273.0582869,105.1236559h-10.9395772c-.6010753,0-1.3223729.4808529-1.3223729,1.3223729v28.6111865c0,.6010753.4808529,1.3223729,1.3223729,1.3223729h10.9395772c.6010753,0,1.3223729-.4808529,1.3223729-1.3223729v-28.6111865c-.0000183-.7212977-.6010936-1.3223729-1.3223729-1.3223729ZM273.0582869,149.1223729h-10.9395772c-.6010753,0-1.3223729.4808529-1.3223729,1.3223729v28.6111681c0,.6010753.4808529,1.3223729,1.3223729,1.3223729h10.9395772c.6010753,0,1.3223729-.4808529,1.3223729-1.3223729v-28.6111865c-.0000183-.7212793-.6010936-1.3223546-1.3223729-1.3223546ZM196.0004301,149.1223729h10.9395772c.6010753,0,1.3223729.4808529,1.3223729,1.3223729v28.6111681c0,.6010753-.4808529,1.3223729-1.3223729,1.3223729h-10.9395772c-.6010753,0-1.3223729-.4808529-1.3223729-1.3223729v-28.6111865c.2404448-.7212793.7212977-1.3223546,1.3223729-1.3223546ZM240.1193512,224.3769856h10.9395772c.6010753,0,1.3223729-.4808529,1.3223729-1.3223729v-28.6111865c0-.6010753-.4808529-1.3223729-1.3223729-1.3223729h-10.9395772c-.6010753,0-1.3223729.4808529-1.3223729,1.3223729v28.6111865c.0000183.7212977.6010936,1.3223729,1.3223729,1.3223729ZM228.9393475,224.3769856h-10.9395772c-.6010753,0-1.3223729-.4808529-1.3223729-1.3223729v-28.6111865c0-.6010753.4808529-1.3223729,1.3223729-1.3223729h10.9395772c.6010753,0,1.3223729.4808529,1.3223729,1.3223729v28.6111865c0,.7212977-.6010753,1.3223729-1.3223729,1.3223729ZM207.0602114,193.1210716h-10.9395772c-.6010753,0-1.3223729.4808529-1.3223729,1.3223729v28.6111865c0,.6010753.4808529,1.3223729,1.3223729,1.3223729h10.9395772c.6010753,0,1.3223729-.4808529,1.3223729-1.3223729v-28.6111865c-.1202224-.7212977-.6010753-1.3223729-1.3223729-1.3223729ZM262.2389321,237.2399927h10.9395772c.6010753,0,1.3223729.4808529,1.3223729,1.3223729v28.6111681c0,.6010753-.4808529,1.3223729-1.3223729,1.3223729h-10.9395772c-.6010753,0-1.3223729-.4808529-1.3223729-1.3223729v-28.6111865c0-.7212793.4808529-1.3223546,1.3223729-1.3223546ZM240.1193512,268.3756843h10.9395772c.6010753,0,1.3223729-.4808529,1.3223729-1.3223729v-28.6111865c0-.6010753-.4808529-1.3223729-1.3223729-1.3223729h-10.9395772c-.6010753,0-1.3223729.4808529-1.3223729,1.3223729v28.6111865c.0000183.8415201.6010936,1.3223729,1.3223729,1.3223729ZM228.9393475,268.3756843h-10.9395772c-.6010753,0-1.3223729-.4808529-1.3223729-1.3223729v-28.6111865c0-.6010753.4808529-1.3223729,1.3223729-1.3223729h10.9395772c.6010753,0,1.3223729.4808529,1.3223729,1.3223729v28.6111865c0,.8415201-.6010753,1.3223729-1.3223729,1.3223729ZM132.6471005,105.1236559h-10.9395681c-.6010753,0-1.3223638.4808529-1.3223638,1.3223729v28.6111865c0,.6010753.480862,1.3223729,1.3223638,1.3223729h10.9395681c.6010753,0,1.3223638-.4808529,1.3223638-1.3223729v-28.6111865c-.1202132-.7212977-.7212885-1.3223729-1.3223638-1.3223729ZM99.7081739,105.1236559h10.9395681c.6010753,0,1.3223638.4808529,1.3223638,1.3223729v28.6111865c0,.6010753-.480862,1.3223729-1.3223638,1.3223729h-10.9395681c-.6010753,0-1.3223638-.4808529-1.3223638-1.3223729v-28.6111865c0-.7212977.4808529-1.3223729,1.3223638-1.3223729ZM77.5886022,180.3782869h11.0597813c.6010753,0,1.3223638-.4808529,1.3223638-1.3223729v-28.6111865c0-.6010753-.480862-1.3223729-1.3223638-1.3223729h-10.9395681c-.6010753,0-1.3223638.4808529-1.3223638,1.3223729v28.6111865c0,.7212977.480862,1.3223729,1.2021505,1.3223729ZM55.5892483,149.1223729h10.9395726c.6010753,0,1.3223638.4808529,1.3223638,1.3223729v28.6111681c0,.6010753-.480862,1.3223729-1.3223638,1.3223729h-10.9395681c-.6010753,0-1.3223638-.4808529-1.3223638-1.3223729v-28.6111865c-.0000092-.7212793.7212839-1.3223546,1.3223592-1.3223546ZM132.6471005,193.1210716h-10.9395681c-.6010753,0-1.3223638.4808529-1.3223638,1.3223729v28.6111865c0,.6010753.480862,1.3223729,1.3223638,1.3223729h10.9395681c.6010753,0,1.3223638-.4808529,1.3223638-1.3223729v-28.6111865c-.1202132-.7212977-.7212885-1.3223729-1.3223638-1.3223729ZM99.7081739,193.1210716h10.9395681c.6010753,0,1.3223638.4808529,1.3223638,1.3223729v28.6111865c0,.6010753-.480862,1.3223729-1.3223638,1.3223729h-10.9395681c-.6010753,0-1.3223638-.4808529-1.3223638-1.3223729v-28.6111865c0-.7212977.4808529-1.3223729,1.3223638-1.3223729ZM77.5886022,224.3769856h11.0597813c.6010753,0,1.3223638-.4808529,1.3223638-1.3223729v-28.6111865c0-.6010753-.480862-1.3223729-1.3223638-1.3223729h-10.9395681c-.6010753,0-1.3223638.4808529-1.3223638,1.3223729v28.6111865c0,.7212977.480862,1.3223729,1.2021505,1.3223729ZM121.58731,237.2399927h10.9395681c.6010753,0,1.3223638.4808529,1.3223638,1.3223729v28.6111681c0,.6010753-.480862,1.3223729-1.3223638,1.3223729h-10.9395681c-.6010753,0-1.3223638-.4808529-1.3223638-1.3223729v-28.6111865c.1202132-.7212793.7212885-1.3223546,1.3223638-1.3223546ZM77.5886022,268.3756843h11.0597813c.6010753,0,1.3223638-.4808529,1.3223638-1.3223729v-28.6111865c0-.6010753-.480862-1.3223729-1.3223638-1.3223729h-10.9395681c-.6010753,0-1.3223638.4808529-1.3223638,1.3223729v28.6111865c0,.8415201.480862,1.3223729,1.2021505,1.3223729ZM55.5892483,237.2399927h10.9395726c.6010753,0,1.3223638.4808529,1.3223638,1.3223729v28.6111681c0,.6010753-.480862,1.3223729-1.3223638,1.3223729h-10.9395681c-.6010753,0-1.3223638-.4808529-1.3223638-1.3223729v-28.6111865c-.0000092-.7212793.7212839-1.3223546,1.3223592-1.3223546ZM248.6546274,284.1238636h-28.2505376c-1.9234482,0-3.726674,1.562781-3.726674,3.726674v27.52924h35.5836633v-27.52924c.120204-2.1638563-1.442577-3.726674-3.6064516-3.726674ZM78.0694642,284.1238636h28.2505376c1.923439,0,3.7266648,1.562781,3.7266648,3.726674v27.52924h-35.8240851v-27.52924c0-2.1638563,1.683008-3.726674,3.8468826-3.726674Z"/>
      <path class="cls-4" d="M5.6999998,42.7320412c0-3.6064516,2.885162-6.7320412,6.7320423-6.7320412h25.8462366c-3.6064516,0-6.7320435,2.8851631-6.7320435,6.7320412v269.7625825c0,1.562781,1.2021505,2.7649316,2.7649453,2.7649316H8.4649463c-1.5627959,0-2.7649465-1.2021505-2.7649465-2.7649316V42.7320412ZM156.6901112,80.9604319h21.8791361c-3.6064516,0-6.7320503,2.8851631-6.7320503,6.7320412v225.0425953c0,1.562781,1.2021505,2.7649316,2.7649499,2.7649316h-20.917412c1.5627994,0,2.7649499-1.2021505,2.7649499-2.7649316V80.9604319h.2404264Z"/>
    </g>
  </g>
</svg>