<svg width="384" height="320" viewBox="0 0 384 320" fill="none" xmlns="http://www.w3.org/2000/svg">
<path fill-rule="evenodd" clip-rule="evenodd" d="M218.988 309.368H36.1762C26.6902 309.368 19.0002 301.678 19.0002 292.192V27.1762C19.0002 17.6902 26.6902 10.0002 36.1762 10.0002H199.814L236.165 46.3502V292.192C236.165 301.678 228.474 309.368 218.988 309.368Z" fill="#DDDDDD"/>
<path fill-rule="evenodd" clip-rule="evenodd" d="M179.487 56.8495H64.0723C62.5583 56.8495 61.3313 55.6215 61.3313 54.1075V53.8885C61.3313 52.3745 62.5583 51.1465 64.0723 51.1465H179.487C181.002 51.1465 182.229 52.3745 182.229 53.8885V54.1075C182.229 55.6215 181.002 56.8495 179.487 56.8495ZM179.487 73.9579H64.0723C62.5583 73.9579 61.3313 72.7299 61.3313 71.2159V70.9969C61.3313 69.4829 62.5583 68.2549 64.0723 68.2549H179.487C181.002 68.2549 182.229 69.4829 182.229 70.9969V71.2159C182.229 72.7299 181.002 73.9579 179.487 73.9579ZM64.0721 91.0663H150.702C152.217 91.0663 153.444 89.8383 153.444 88.3243V88.1053C153.444 86.5913 152.217 85.3633 150.702 85.3633H64.0721C62.5581 85.3633 61.3311 86.5913 61.3311 88.1053V88.3243C61.3311 89.8383 62.5581 91.0663 64.0721 91.0663ZM179.487 232.457H64.0723C62.5583 232.457 61.3313 231.229 61.3313 229.715V229.496C61.3313 227.982 62.5583 226.754 64.0723 226.754H179.487C181.002 226.754 182.229 227.982 182.229 229.496V229.715C182.229 231.229 181.002 232.457 179.487 232.457ZM64.0723 249.565H179.487C181.002 249.565 182.229 248.337 182.229 246.823V246.604C182.229 245.09 181.002 243.862 179.487 243.862H64.0723C62.5583 243.862 61.3313 245.09 61.3313 246.604V246.823C61.3313 248.337 62.5583 249.565 64.0723 249.565ZM150.702 266.674H64.0721C62.5581 266.674 61.3311 265.446 61.3311 263.932V263.713C61.3311 262.199 62.5581 260.971 64.0721 260.971H150.702C152.217 260.971 153.444 262.199 153.444 263.713V263.932C153.444 265.446 152.217 266.674 150.702 266.674ZM64.0718 115.779H127.674C129.189 115.779 130.416 114.551 130.416 113.037V112.818C130.416 111.303 129.189 110.076 127.674 110.076H64.0718C62.5588 110.076 61.3308 111.303 61.3308 112.818V113.037C61.3308 114.551 62.5588 115.779 64.0718 115.779ZM179.487 132.887H64.0723C62.5583 132.887 61.3313 131.659 61.3313 130.145V129.926C61.3313 128.411 62.5583 127.184 64.0723 127.184H179.487C181.002 127.184 182.229 128.411 182.229 129.926V130.145C182.229 131.659 181.002 132.887 179.487 132.887ZM64.0721 149.995H150.702C152.217 149.995 153.444 148.767 153.444 147.253V147.034C153.444 145.519 152.217 144.292 150.702 144.292H64.0721C62.5581 144.292 61.3311 145.519 61.3311 147.034V147.253C61.3311 148.767 62.5581 149.995 64.0721 149.995ZM127.674 184.212H64.0718C62.5588 184.212 61.3308 182.984 61.3308 181.47V181.251C61.3308 179.736 62.5588 178.509 64.0718 178.509H127.674C129.189 178.509 130.416 179.736 130.416 181.251V181.47C130.416 182.984 129.189 184.212 127.674 184.212ZM64.0723 167.104H179.487C181.002 167.104 182.229 165.876 182.229 164.362V164.143C182.229 162.628 181.002 161.401 179.487 161.401H64.0723C62.5583 161.401 61.3313 162.628 61.3313 164.143V164.362C61.3313 165.876 62.5583 167.104 64.0723 167.104Z" fill="#8533AD"/>
<path opacity="0.2" fill-rule="evenodd" clip-rule="evenodd" d="M199.814 10V34.234C199.814 40.93 205.234 46.351 211.93 46.351H236.165L199.814 10Z" fill="#14001F"/>
<path fill-rule="evenodd" clip-rule="evenodd" d="M301.448 143.398C303.643 140.399 303.399 136.268 300.673 133.351L300.457 133.135C300.115 132.794 299.743 132.502 299.357 132.24C299.232 132.154 299.101 132.083 298.972 132.006C298.704 131.843 298.43 131.699 298.144 131.572C297.983 131.5 297.826 131.432 297.661 131.372C297.393 131.274 297.121 131.198 296.846 131.132C296.67 131.088 296.5 131.034 296.325 131.002C295.933 130.934 295.538 130.898 295.144 130.891C294.871 130.884 294.602 130.909 294.331 130.932C294.177 130.943 294.023 130.954 293.871 130.975C293.583 131.015 293.3 131.073 293.019 131.145C292.896 131.177 292.774 131.215 292.653 131.252C292.354 131.343 292.059 131.44 291.773 131.568H291.771L298.514 124.731C301.537 121.498 301.537 116.541 298.514 113.524C295.279 110.507 290.315 110.507 287.294 113.524L214.007 187.83C213.689 188.169 213.422 188.539 213.172 188.912L213.143 188.907L213.02 189.109C213.016 189.114 213.015 189.121 213.011 189.126L200.195 210.241C198.254 214.121 198.902 218.861 202.136 221.878C205.159 224.895 209.906 225.756 213.791 223.816L235.154 210.888L235.113 210.721C235.508 210.455 235.887 210.157 236.234 209.811L268.737 176.787L300.673 144.341C300.967 144.047 301.21 143.723 301.448 143.398Z" fill="#EB3D7D"/>
<path opacity="0.1" fill-rule="evenodd" clip-rule="evenodd" d="M223.835 200.116C220.789 201.982 216.605 201.628 214.008 199.034C210.985 196.018 210.985 191.063 214.008 187.83L287.294 113.524C290.316 110.507 295.278 110.507 298.515 113.524C301.536 116.541 301.536 121.498 298.515 124.731L291.812 131.525C290.954 131.9 290.151 132.437 289.452 133.135L225.012 198.604C224.549 199.067 224.156 199.576 223.835 200.116Z" fill="#14001F"/>
<path opacity="0.2" fill-rule="evenodd" clip-rule="evenodd" d="M300.674 133.351L300.458 133.135C297.435 130.118 292.473 130.118 289.452 133.135L225.012 198.604C221.991 201.621 221.991 206.578 225.012 209.594L225.227 209.811C228.25 212.827 233.212 212.827 236.235 209.811L300.674 144.341C303.694 141.324 303.694 136.584 300.674 133.351Z" fill="white"/>
<path fill-rule="evenodd" clip-rule="evenodd" d="M303.041 106.203L316.637 119.779C319.011 122.15 319.011 126.029 316.637 128.4L314.857 130.175C314.627 130.541 314.362 130.888 314.047 131.202L302.824 142.407C299.589 145.64 294.625 145.64 291.387 142.407L280.599 131.633C277.36 128.399 277.36 123.228 280.599 120.212L291.428 109.396C291.663 109.028 291.931 108.678 292.251 108.358L294.408 106.203C296.782 103.832 300.667 103.832 303.041 106.203ZM199.457 212.285C198.577 215.686 199.45 219.373 202.137 221.877C204.868 224.605 209.003 225.548 212.644 224.276L195.017 232.868C192.642 234.161 190.268 231.574 191.563 229.204L199.457 212.285Z" fill="#660099"/>
<path opacity="0.15" fill-rule="evenodd" clip-rule="evenodd" d="M314.48 130.554C312.104 132.925 308.221 132.925 305.847 130.554L292.251 116.977C290.198 114.927 289.928 111.751 291.428 109.395L280.599 120.21C277.36 123.227 277.36 128.4 280.599 131.633L291.387 142.407C294.625 145.639 299.589 145.639 302.825 142.407L314.047 131.201C314.362 130.888 314.627 130.542 314.857 130.176L314.48 130.554Z" fill="#14001F"/>
</svg>
