<?xml version="1.0" encoding="utf-8"?>
<!-- Generator: Adobe Illustrator 28.1.0, SVG Export Plug-In . SVG Version: 6.00 Build 0)  -->
<svg version="1.1" id="Layer_1" xmlns="http://www.w3.org/2000/svg" xmlns:xlink="http://www.w3.org/1999/xlink" x="0px" y="0px"
	 viewBox="0 0 320 320" style="enable-background:new 0 0 320 320;" xml:space="preserve">
<style type="text/css">
	.st0{display:none;}
	.st1{display:inline;fill:#660099;}
	.st2{display:inline;fill:#8533AD;}
	.st3{display:inline;fill:#FAB538;}
	.st4{display:inline;fill:#EDA541;}
	.st5{display:inline;fill:#D83582;}
	.st6{display:inline;fill:#EB3D7D;}
	.st7{display:inline;}
	.st8{fill:#8533AD;}
	.st9{fill:#622D85;}
	.st10{fill:#7B38A7;}
	.st11{fill:#DDDDDD;}
	.st12{fill:#C299D6;}
	.st13{fill:#791FA5;}
	.st14{fill:#DF6D96;}
	.st15{fill:#B25779;}
</style>
<g id="Camada_1" class="st0">
	<path class="st1" d="M147,109.8l-35.3,6.8c-3,0.6-5,3.5-4.5,6.6l16.1,84.6c0.6,3,3.5,5,6.6,4.5l35.3-6.7c3-0.6,5-3.5,4.5-6.6
		l-16.1-84.7C152.9,111.3,150,109.3,147,109.8z"/>
	<path class="st2" d="M149.9,109.2l-35.3,6.7c-3,0.6-5,3.5-4.5,6.6l16.1,84.6c0.6,3,3.5,5,6.6,4.5l35.3-6.7c3-0.6,5-3.5,4.5-6.6
		l-16.2-84.7C155.8,110.6,152.9,108.6,149.9,109.2z"/>
	<path class="st1" d="M164.6,156.7c-1.1-0.9-2.7-1.1-4.1-0.5c-1.3,0.6-2.2,2-2.2,3.3c-1-1.7-3.2-2.3-5-1.5c-1.3,0.6-2.1,1.9-2.2,3.2
		l-3.7-7.9c-0.9-1.9-3.3-2.9-5.3-2c-2,0.9-3,3.4-2.1,5.3c0,0,4.3,9,9.2,19.6l-4.9-3.6c-1.8-1-4.3-0.9-5.6,0.8
		c-1.3,1.8-1.1,4.2,0.7,5.5l13.4,10c5.7,4.3,13.4,5.2,18.6,3.3C171.4,192.2,164.6,156.7,164.6,156.7z"/>
	<path class="st3" d="M149.8,111.6l-5.1,1c-0.4,0.1-0.8,0.6-0.7,1.1l0.2,1.3c0.2,1-0.4,1.9-1.5,2.1l-18.6,3.6
		c-1,0.2-1.9-0.4-2.1-1.5l-0.2-1.2c-0.1-0.4-0.6-0.8-1.1-0.7l-5.1,1c-2.1,0.4-3.6,2.6-3.2,4.7l15.9,83.2c0.4,2.1,2.6,3.6,4.7,3.2
		l34.1-6.4c2.1-0.4,3.6-2.6,3.2-4.7l-15.8-83.5C154.1,112.6,152,111.2,149.8,111.6z"/>
	<path class="st4" d="M162.3,155.8c-0.6,0-1.2,0.1-1.8,0.4c-1.3,0.6-2.2,2-2.2,3.3c-1-1.7-3.2-2.3-5-1.5c-1.3,0.6-2.1,1.9-2.2,3.2
		l-3.7-7.9c-0.9-1.9-3.3-2.9-5.3-2c-2,0.9-3,3.4-2.1,5.3c0,0,4.3,9,9.2,19.6l-4.9-3.6c-1.8-1-4.3-0.9-5.6,0.8
		c-1.3,1.8-1.1,4.2,0.7,5.5l13.4,10c5,3.7,11.4,4.9,16.4,3.9C169.2,192.8,162.3,155.8,162.3,155.8z"/>
	<path class="st5" d="M167.8,150.4c-1.5,0.8-2.2,2.2-2.1,3.7c-1.2-1.7-3.5-2.1-5.3-1c-1.2,0.8-1.9,2.2-1.8,3.6
		c-1.2-1.6-3.5-1.9-5.1-0.9c-1.2,0.8-1.9,2.1-1.8,3.5l-4.6-7.4c-1.1-1.8-3.6-2.5-5.5-1.3c-1.9,1.2-2.6,3.6-1.5,5.4
		c0,0,5.4,8.4,11.5,18.4l-5.3-3c-1.9-0.8-4.4-0.3-5.5,1.5c-1.1,1.9-0.6,4.3,1.3,5.4l14.6,8.3c6.6,3.8,15,3.5,19.8,0.4
		c4.8-3,8.1-8.6,7.3-13.8c-0.6-3.2-1.6-6.2-4.1-10.3c-4.1-6.6-6.7-10.7-6.7-10.7C171.9,150.3,169.7,149.5,167.8,150.4z"/>
	<path class="st6" d="M182.8,172.8c-0.7-6.6-2.9-9.3-5-13c-0.6-0.9-1.2-2-2-3.4c-1.8-2.8-2.9-4.4-2.9-4.4c-1.1-1.7-3.4-2.5-5.1-1.6
		c-1.5,0.8-2.2,2.2-2.1,3.7c-1.2-1.7-3.5-2.1-5.3-1c-1.2,0.8-1.9,2.2-1.8,3.6c-1.2-1.6-3.5-1.9-5.1-0.9c-1.2,0.8-1.9,2.1-1.8,3.5
		l-4.6-7.4c-1.1-1.8-3.6-2.5-5.5-1.3c-0.2,0.1-0.4,0.3-0.7,0.4c2.5,4.6,8.6,13.9,11.9,18.6c4.1,5.9,8.4,13.5,15.1,15.1
		C174.4,186.3,183.5,179.4,182.8,172.8z"/>
	<g class="st7">
		<path class="st8" d="M140.1,147.9c-0.4,0-0.9-0.3-1-0.8l-3-8.6c-0.2-0.6,0.1-1.2,0.7-1.5c0.6-0.3,1.2,0.1,1.5,0.7l3,8.6
			c0.2,0.6-0.1,1.2-0.7,1.5C140.4,147.9,140.3,147.9,140.1,147.9z M136.1,153.6C136,153.6,136,153.6,136.1,153.6l-7-0.6
			c-0.6-0.1-1.1-0.6-1-1.2c0.1-0.6,0.6-1.1,1.2-1l6.9,0.7c0.6,0.1,1.1,0.6,1,1.2C137.1,153.2,136.7,153.6,136.1,153.6z M135,165.2
			c-0.2,0-0.4-0.1-0.6-0.2c-0.6-0.3-0.7-1-0.3-1.6l2.9-4.5c0.3-0.6,1-0.7,1.6-0.3c0.6,0.3,0.7,1,0.3,1.6l-2.9,4.4
			C135.8,165,135.4,165.2,135,165.2z M146.4,148.5c-0.2,0-0.4-0.1-0.7-0.2c-0.4-0.3-0.6-1.1-0.1-1.6l3.4-4.1
			c0.3-0.4,1.1-0.6,1.6-0.1c0.4,0.4,0.6,1.1,0.1,1.6l-3.4,4.1C147.1,148.4,146.8,148.5,146.4,148.5z"/>
	</g>
</g>
<g id="Layer_2_1_">
	<path class="st9" d="M248.3,30.3L308,51.9c8.6,3,11.8,14.8,7.4,26.6l-76.8,211.2c-4.1,11.5-14.5,18.6-22.7,15.7l-59.7-21.9
		c-8.6-3-11.8-14.8-7.4-26.6L225.5,46C229.7,34.5,240,27.4,248.3,30.3L248.3,30.3z"/>
	<path class="st10" d="M240.3,27.7L300,49.5c8.6,3,11.8,14.8,7.4,26.6L230.6,287c-4.1,11.5-14.5,18.6-22.7,15.7l-59.7-21.9
		c-8.6-3-11.8-14.8-7.4-26.6l76.8-210.9C221.7,31.8,232,24.7,240.3,27.7L240.3,27.7z"/>
	<g>
		<path class="st11" d="M193.1,284.1l-26.6-9.7c-0.3,0-0.6-0.6-0.3-1.2c0.3-0.6,0.9-0.9,1.2-0.9l26.6,9.7c0.3,0,0.6,0.6,0.3,1.2
			C193.9,283.8,193.4,284.1,193.1,284.1 M238,32.7c-6.5-2.4-14.2,3-17.4,12.1l-76.2,209.1c-3.2,8.9-0.6,18,5.6,20.4l56.1,20.4
			c6.5,2.1,14.2-3.2,17.4-12.1l76.2-209.1c3.2-8.9,0.6-18-5.6-20.4l-5.6-2.1c-0.9-0.3-2.1,0.6-2.7,1.8l-0.9,3.2
			c-0.9,2.7-3.2,4.1-5,3.5L245,46.9c-2.1-0.6-2.7-3.2-1.8-5.9l1.2-3.2c0.3-1.2,0-2.7-0.9-3L238,32.7"/>
		<path class="st12" d="M167.4,272.5c-0.3-0.3-0.9,0.3-1.2,0.9c-0.3,0.6,0,1.2,0.3,1.2l26.6,9.7c0.6,0,0.9-0.3,1.2-0.9
			s0-1.2-0.3-1.2L167.4,272.5"/>
		<path class="st13" d="M259.5,44.5c-0.6-0.3-0.9,0-1.2,0.9c-0.3,0.6,0,1.2,0.3,1.2l9.7,3.5c0.6,0,0.9-0.3,1.2-0.9
			c0.3-0.6,0-1.2-0.3-1.2L259.5,44.5 M256,43c-0.3,0-0.9,0.3-1.2,0.9s0,1.2,0.3,1.2l1.2,0.6c0.6,0,0.9-0.3,1.2-0.9s0-1.2-0.3-1.2
			L256,43"/>
	</g>
	<g>
		<path class="st14" d="M232.9,151.4l-22.7-0.6c-2.1,0-3.2,2.4-1.8,3.8l10.9,11.5c0.9,0.9,2.4,0.9,3.2,0l11.5-10.9
			C235.6,153.8,234.4,151.4,232.9,151.4z"/>
	</g>
	<g>
		<path class="st14" d="M218.5,144.6c0-0.6,0-0.9,0-1.2c0-1.5,0.9-2.7,2.1-2.7c1.5,0,2.7,0.9,2.7,2.1c0,0.3,0,0.9,0,1.2
			c0,1.2-0.9,2.4-2.4,2.4l0,0C219.6,146.4,218.5,145.5,218.5,144.6z M218.2,133.7c-1.2,0-2.1-0.6-2.4-1.8c-0.3-0.6-0.6-1.5-0.9-2.1
			c-0.3-1.2,0.3-2.4,1.5-3c1.2-0.3,2.4,0.3,3,1.5c0.3,0.9,0.6,1.5,0.9,2.4c0.3,1.2-0.3,2.7-1.5,3
			C218.8,133.7,218.5,133.7,218.2,133.7L218.2,133.7z M210.5,119.8c-0.3-0.9-0.6-1.5-1.2-2.1c-0.9-1.2-0.6-2.7,0.6-3.2
			c1.2-0.9,2.7-0.6,3.2,0.6c0.3,0.6,0.6,1.5,1.2,2.1c0.6,1.2,0.3,2.7-0.9,3.2c-0.3,0.3-0.9,0.3-1.2,0.3
			C211.4,120.7,210.5,120.1,210.5,119.8z M204,108.9c-0.9,0-1.5-0.3-2.1-0.9c-0.3-0.6-0.9-1.2-1.5-1.8c-0.9-0.9-0.6-2.4,0.3-3.2
			c0.9-0.9,2.4-0.6,3.2,0.3c0.6,0.6,1.2,1.2,1.8,1.8c0.9,0.9,0.9,2.4-0.3,3.2C205.2,108.6,204.6,108.9,204,108.9L204,108.9z
			 M192.8,98c-0.6-0.3-1.2-0.9-1.8-1.5c-0.9-0.9-1.2-2.4-0.3-3.2c0.9-0.9,2.4-1.2,3.2-0.3c0.6,0.6,1.2,1.2,1.8,1.8
			c0.9,0.9,0.9,2.4,0,3.2c-0.6,0.3-1.2,0.6-1.8,0.6C193.4,98.6,192.8,98.3,192.8,98z M182.7,89.4c-0.3,0-0.9,0-1.5-0.3
			c-0.9-0.6-1.5-0.9-2.1-1.5c-1.2-0.6-1.2-2.1-0.6-3.2c0.6-1.2,2.1-1.2,3.2-0.6c0.9,0.6,1.5,0.9,2.1,1.5c1.2,0.9,1.2,2.1,0.6,3.2
			C184.2,89.1,183.3,89.4,182.7,89.4L182.7,89.4z M170.6,81.7c-0.3,0-0.9,0-1.2-0.3c-0.6-0.6-1.5-0.9-2.1-1.2
			c-0.9-0.6-1.5-2.1-0.9-3.2c0.6-0.9,2.1-1.5,3.2-0.9c0.6,0.3,1.5,0.9,2.1,1.2c1.2,0.6,1.5,2.1,0.9,3.2
			C172.4,81.1,171.5,81.7,170.6,81.7L170.6,81.7z M157.6,75.5c-0.3,0-0.6,0-1.2-0.3c-0.6-0.3-1.5-0.6-2.1-0.9
			c-1.2-0.3-1.8-1.8-1.2-3c0.3-1.2,1.8-1.8,3-1.2c0.9,0.3,1.8,0.6,2.4,0.9c1.2,0.3,1.8,1.8,1.2,3C159.4,74.9,158.5,75.5,157.6,75.5
			L157.6,75.5z M143.4,70.8c-0.9-0.3-1.5-0.3-2.4-0.6c-1.2,0-2.1-1.5-1.8-2.7c0-1.2,1.5-2.1,2.7-1.8c0.9,0,1.5,0.3,2.4,0.6
			c1.5,0.3,2.1,1.8,1.8,3c0,1.2-0.9,1.8-2.1,1.8C143.7,71.1,143.7,71.1,143.4,70.8z M129.8,67.8L129.8,67.8c-1.2,0-1.8-0.3-2.7-0.3
			c-1.5-0.3-2.1-1.5-2.1-2.7c0.3-1.5,1.5-2.1,2.7-2.1l2.4,0.3c1.5,0.3,2.4,1.5,2.1,2.7S131,67.8,129.8,67.8L129.8,67.8z"/>
	</g>
	<path class="st15" d="M53,151.1c2.1,1.2,4.7,3.5,5.6,7.4c0.6,3.8,1.2,6.8-1.8,13c-3,5.9-22.2,38.1-22.2,38.1s-6.8,11.2,6.5,18.3
		c13.3,7.1,19.8,4.1,25.4-5.3c5-8.6,14.8-25.1,16.5-28.4c0.3-0.3,0.6-0.6,0.6-0.9c0.3-1.2,1.8-3.8,5-4.1c4.1-0.3,5.3,1.5,7.1,3
		c1.5,1.5,24.8,22.2,26.3,23.3c1.5,1.5,5.6,3.5,9.7,3.5c4.1,0,8.3-1.5,10.6-4.1c2.4-2.7,5.6-5.9,6.5-8c0.9-2.1,2.7-5,1.5-9.5
		s-2.7-6.5-6.5-9.7c-3.8-3.2-27.5-23.9-32.8-27.8c0,0-3.8-3.5-4.4-9.5c-0.6-5.9,1.8-8.9,6.8-11.2c4.4-2.1,19.8-8.6,24.2-10.3
		c0.9-0.6,2.1-1.2,2.7-1.8c3-2.4,8.9-9.2,5.3-17.7l-2.7-5.6c0,0-4.7-13.3-21.3-6.2c-13.3,5.3-21.9,9.2-24.8,10.3
		c-1.5,0.6-2.7,0.9-4.1,0.9s-3.2-0.6-3.8-2.4c-1.2-3.5-0.6-5.6,1.8-7.1c2.4-1.5,16.5-11.2,15.4-31.9S85.5,31.4,64,35
		S29.7,57.4,32.1,74.9c2.7,17.1,15.4,26.9,24.5,29.8c5.3,1.5,4.4,6.2,4.4,6.2s-0.3,4.4-5.6,4.1C50.1,114.7,25,113,25,113
		s-15.1-0.6-16.2,14.8s8,19.5,14.2,20.1c5.3,0.3,21,1.5,26,2.1C50.4,149.9,51.9,150.5,53,151.1L53,151.1z"/>
	<path class="st14" d="M56,145.4c2.1,1.2,4.7,3.5,5.6,7.4c0.6,3.8,1.2,6.8-1.8,13c-3,5.9-22.2,38.1-22.2,38.1s-6.8,11.2,6.5,18.3
		c13.3,7.1,19.8,4.1,25.4-5.3c5-8.6,14.8-25.1,16.5-28.4c0.3-0.3,0.6-0.6,0.6-0.9c0.3-1.2,1.8-3.8,5-4.1c4.1-0.3,5.3,1.5,7.1,3
		c1.5,1.5,24.8,22.2,26.3,23.3c1.5,1.5,5.6,3.5,9.7,3.5c4.1,0,8.3-1.5,10.6-4.1c2.4-2.7,5.6-5.9,6.5-8c0.9-2.1,2.7-5,1.5-9.5
		c-1.2-4.4-2.7-6.5-6.5-9.7c-3.8-3.2-27.5-23.9-32.8-27.8c0,0-3.8-3.5-4.4-9.5c-0.6-5.9,1.8-8.9,6.8-11.2
		c4.4-2.1,19.8-8.6,24.2-10.3c0.9-0.6,2.1-1.2,2.7-1.8c3-2.4,8.9-9.2,5.3-17.7l-2.7-5.6c0,0-4.7-13.3-21.3-6.2
		c-13.3,5.3-21.9,9.2-24.8,10.3c-1.5,0.6-2.7,0.9-4.1,0.9s-3.2-0.6-3.8-2.4c-1.2-3.5-0.6-5.6,1.8-7.1c2.4-1.5,16.5-11.2,15.4-31.9
		s-20.7-36-42.2-32.5S32.7,51.7,35,69.2C37.7,86.3,50.4,96,59.5,99c5.3,1.5,4.4,6.2,4.4,6.2s-0.3,4.4-5.6,4.1
		c-5.3-0.3-30.4-2.1-30.4-2.1s-15.1-0.6-16.2,14.8s8,19.5,14.2,20.1c5.3,0.3,21,1.5,26,2.1C53.3,144.2,54.8,144.8,56,145.4L56,145.4
		z"/>
</g>
</svg>
